G75*
G70*
%OFA0B0*%
%FSLAX24Y24*%
%IPPOS*%
%LPD*%
%AMOC8*
5,1,8,0,0,1.08239X$1,22.5*
%
%ADD10R,0.1181X0.1772*%
%ADD11C,0.0710*%
%ADD12C,0.0513*%
%ADD13C,0.0634*%
%ADD14C,0.0634*%
%ADD15C,0.0083*%
%ADD16OC8,0.0634*%
%ADD17C,0.1661*%
%ADD18C,0.0080*%
%ADD19C,0.0083*%
%ADD20R,0.0157X0.0443*%
%ADD21R,0.0443X0.0157*%
%ADD22C,0.1080*%
%ADD23R,0.0730X0.0730*%
%ADD24C,0.0730*%
%ADD25C,0.1025*%
%ADD26C,0.0080*%
%ADD27C,0.1346*%
%ADD28C,0.0085*%
%ADD29R,0.0522X0.0256*%
%ADD30C,0.0081*%
%ADD31C,0.0434*%
%ADD32C,0.0087*%
%ADD33C,0.0611*%
%ADD34C,0.0516*%
D10*
X003696Y020013D03*
D11*
X002476Y005151D03*
X002476Y003182D03*
X017543Y002986D03*
D12*
X027307Y002986D03*
D13*
X006615Y007194D02*
X006061Y007194D01*
X006061Y008194D02*
X006615Y008194D01*
X006615Y009194D02*
X006061Y009194D01*
X006061Y010194D02*
X006615Y010194D01*
X006615Y012312D02*
X006061Y012312D01*
X006061Y013312D02*
X006615Y013312D01*
X006615Y014312D02*
X006061Y014312D01*
X006061Y015312D02*
X006615Y015312D01*
X003615Y015312D02*
X003061Y015312D01*
X003061Y014312D02*
X003615Y014312D01*
X003615Y013312D02*
X003061Y013312D01*
X003061Y012312D02*
X003615Y012312D01*
X003615Y010194D02*
X003061Y010194D01*
X003061Y009194D02*
X003615Y009194D01*
X003615Y008194D02*
X003061Y008194D01*
X003061Y007194D02*
X003615Y007194D01*
D14*
X003196Y016399D03*
X004196Y016399D03*
X005468Y025820D03*
X005468Y026804D03*
X006295Y026804D03*
X007318Y026804D03*
X008145Y026804D03*
X008145Y025820D03*
X002476Y025911D03*
X002476Y026911D03*
X014101Y025820D03*
X015001Y025820D03*
X015901Y025820D03*
X016801Y025820D03*
X017701Y025820D03*
X017251Y024820D03*
X016351Y024820D03*
X015451Y024820D03*
X015451Y026820D03*
X014551Y026820D03*
X016351Y026820D03*
X017251Y026820D03*
X018151Y026820D03*
X018151Y024820D03*
X024366Y025820D03*
X024366Y026804D03*
X025192Y026804D03*
X026216Y026804D03*
X027043Y026804D03*
X027043Y025820D03*
D15*
X026136Y024539D02*
X025626Y024539D01*
X026136Y024539D02*
X026136Y023951D01*
X025626Y023951D01*
X025626Y024539D01*
X025626Y024033D02*
X026136Y024033D01*
X026136Y024115D02*
X025626Y024115D01*
X025626Y024197D02*
X026136Y024197D01*
X026136Y024279D02*
X025626Y024279D01*
X025626Y024361D02*
X026136Y024361D01*
X026136Y024443D02*
X025626Y024443D01*
X025626Y024525D02*
X026136Y024525D01*
X025388Y024539D02*
X024878Y024539D01*
X025388Y024539D02*
X025388Y023951D01*
X024878Y023951D01*
X024878Y024539D01*
X024878Y024033D02*
X025388Y024033D01*
X025388Y024115D02*
X024878Y024115D01*
X024878Y024197D02*
X025388Y024197D01*
X025388Y024279D02*
X024878Y024279D01*
X024878Y024361D02*
X025388Y024361D01*
X025388Y024443D02*
X024878Y024443D01*
X024878Y024525D02*
X025388Y024525D01*
X024168Y024539D02*
X023658Y024539D01*
X024168Y024539D02*
X024168Y023951D01*
X023658Y023951D01*
X023658Y024539D01*
X023658Y024033D02*
X024168Y024033D01*
X024168Y024115D02*
X023658Y024115D01*
X023658Y024197D02*
X024168Y024197D01*
X024168Y024279D02*
X023658Y024279D01*
X023658Y024361D02*
X024168Y024361D01*
X024168Y024443D02*
X023658Y024443D01*
X023658Y024525D02*
X024168Y024525D01*
X023420Y024539D02*
X022910Y024539D01*
X023420Y024539D02*
X023420Y023951D01*
X022910Y023951D01*
X022910Y024539D01*
X022910Y024033D02*
X023420Y024033D01*
X023420Y024115D02*
X022910Y024115D01*
X022910Y024197D02*
X023420Y024197D01*
X023420Y024279D02*
X022910Y024279D01*
X022910Y024361D02*
X023420Y024361D01*
X023420Y024443D02*
X022910Y024443D01*
X022910Y024525D02*
X023420Y024525D01*
X021276Y023693D02*
X021276Y023183D01*
X021276Y023693D02*
X021864Y023693D01*
X021864Y023183D01*
X021276Y023183D01*
X021276Y023265D02*
X021864Y023265D01*
X021864Y023347D02*
X021276Y023347D01*
X021276Y023429D02*
X021864Y023429D01*
X021864Y023511D02*
X021276Y023511D01*
X021276Y023593D02*
X021864Y023593D01*
X021864Y023675D02*
X021276Y023675D01*
X020489Y023693D02*
X020489Y023183D01*
X020489Y023693D02*
X021077Y023693D01*
X021077Y023183D01*
X020489Y023183D01*
X020489Y023265D02*
X021077Y023265D01*
X021077Y023347D02*
X020489Y023347D01*
X020489Y023429D02*
X021077Y023429D01*
X021077Y023511D02*
X020489Y023511D01*
X020489Y023593D02*
X021077Y023593D01*
X021077Y023675D02*
X020489Y023675D01*
X020290Y023693D02*
X020290Y023183D01*
X019702Y023183D01*
X019702Y023693D01*
X020290Y023693D01*
X020290Y023265D02*
X019702Y023265D01*
X019702Y023347D02*
X020290Y023347D01*
X020290Y023429D02*
X019702Y023429D01*
X019702Y023511D02*
X020290Y023511D01*
X020290Y023593D02*
X019702Y023593D01*
X019702Y023675D02*
X020290Y023675D01*
X020290Y022945D02*
X020290Y022435D01*
X019702Y022435D01*
X019702Y022945D01*
X020290Y022945D01*
X020290Y022517D02*
X019702Y022517D01*
X019702Y022599D02*
X020290Y022599D01*
X020290Y022681D02*
X019702Y022681D01*
X019702Y022763D02*
X020290Y022763D01*
X020290Y022845D02*
X019702Y022845D01*
X019702Y022927D02*
X020290Y022927D01*
X020489Y022945D02*
X020489Y022435D01*
X020489Y022945D02*
X021077Y022945D01*
X021077Y022435D01*
X020489Y022435D01*
X020489Y022517D02*
X021077Y022517D01*
X021077Y022599D02*
X020489Y022599D01*
X020489Y022681D02*
X021077Y022681D01*
X021077Y022763D02*
X020489Y022763D01*
X020489Y022845D02*
X021077Y022845D01*
X021077Y022927D02*
X020489Y022927D01*
X021276Y022945D02*
X021276Y022435D01*
X021276Y022945D02*
X021864Y022945D01*
X021864Y022435D01*
X021276Y022435D01*
X021276Y022517D02*
X021864Y022517D01*
X021864Y022599D02*
X021276Y022599D01*
X021276Y022681D02*
X021864Y022681D01*
X021864Y022763D02*
X021276Y022763D01*
X021276Y022845D02*
X021864Y022845D01*
X021864Y022927D02*
X021276Y022927D01*
X019502Y022945D02*
X019502Y022435D01*
X018914Y022435D01*
X018914Y022945D01*
X019502Y022945D01*
X019502Y022517D02*
X018914Y022517D01*
X018914Y022599D02*
X019502Y022599D01*
X019502Y022681D02*
X018914Y022681D01*
X018914Y022763D02*
X019502Y022763D01*
X019502Y022845D02*
X018914Y022845D01*
X018914Y022927D02*
X019502Y022927D01*
X019502Y023183D02*
X019502Y023693D01*
X019502Y023183D02*
X018914Y023183D01*
X018914Y023693D01*
X019502Y023693D01*
X019502Y023265D02*
X018914Y023265D01*
X018914Y023347D02*
X019502Y023347D01*
X019502Y023429D02*
X018914Y023429D01*
X018914Y023511D02*
X019502Y023511D01*
X019502Y023593D02*
X018914Y023593D01*
X018914Y023675D02*
X019502Y023675D01*
X018715Y023693D02*
X018715Y023183D01*
X018127Y023183D01*
X018127Y023693D01*
X018715Y023693D01*
X018715Y023265D02*
X018127Y023265D01*
X018127Y023347D02*
X018715Y023347D01*
X018715Y023429D02*
X018127Y023429D01*
X018127Y023511D02*
X018715Y023511D01*
X018715Y023593D02*
X018127Y023593D01*
X018127Y023675D02*
X018715Y023675D01*
X018715Y022945D02*
X018715Y022435D01*
X018127Y022435D01*
X018127Y022945D01*
X018715Y022945D01*
X018715Y022517D02*
X018127Y022517D01*
X018127Y022599D02*
X018715Y022599D01*
X018715Y022681D02*
X018127Y022681D01*
X018127Y022763D02*
X018715Y022763D01*
X018715Y022845D02*
X018127Y022845D01*
X018127Y022927D02*
X018715Y022927D01*
X017927Y022945D02*
X017927Y022435D01*
X017339Y022435D01*
X017339Y022945D01*
X017927Y022945D01*
X017927Y022517D02*
X017339Y022517D01*
X017339Y022599D02*
X017927Y022599D01*
X017927Y022681D02*
X017339Y022681D01*
X017339Y022763D02*
X017927Y022763D01*
X017927Y022845D02*
X017339Y022845D01*
X017339Y022927D02*
X017927Y022927D01*
X017927Y023183D02*
X017927Y023693D01*
X017927Y023183D02*
X017339Y023183D01*
X017339Y023693D01*
X017927Y023693D01*
X017927Y023265D02*
X017339Y023265D01*
X017339Y023347D02*
X017927Y023347D01*
X017927Y023429D02*
X017339Y023429D01*
X017339Y023511D02*
X017927Y023511D01*
X017927Y023593D02*
X017339Y023593D01*
X017339Y023675D02*
X017927Y023675D01*
X017140Y023693D02*
X017140Y023183D01*
X016552Y023183D01*
X016552Y023693D01*
X017140Y023693D01*
X017140Y023265D02*
X016552Y023265D01*
X016552Y023347D02*
X017140Y023347D01*
X017140Y023429D02*
X016552Y023429D01*
X016552Y023511D02*
X017140Y023511D01*
X017140Y023593D02*
X016552Y023593D01*
X016552Y023675D02*
X017140Y023675D01*
X017140Y022945D02*
X017140Y022435D01*
X016552Y022435D01*
X016552Y022945D01*
X017140Y022945D01*
X017140Y022517D02*
X016552Y022517D01*
X016552Y022599D02*
X017140Y022599D01*
X017140Y022681D02*
X016552Y022681D01*
X016552Y022763D02*
X017140Y022763D01*
X017140Y022845D02*
X016552Y022845D01*
X016552Y022927D02*
X017140Y022927D01*
X016353Y022945D02*
X016353Y022435D01*
X015765Y022435D01*
X015765Y022945D01*
X016353Y022945D01*
X016353Y022517D02*
X015765Y022517D01*
X015765Y022599D02*
X016353Y022599D01*
X016353Y022681D02*
X015765Y022681D01*
X015765Y022763D02*
X016353Y022763D01*
X016353Y022845D02*
X015765Y022845D01*
X015765Y022927D02*
X016353Y022927D01*
X016353Y023183D02*
X016353Y023693D01*
X016353Y023183D02*
X015765Y023183D01*
X015765Y023693D01*
X016353Y023693D01*
X016353Y023265D02*
X015765Y023265D01*
X015765Y023347D02*
X016353Y023347D01*
X016353Y023429D02*
X015765Y023429D01*
X015765Y023511D02*
X016353Y023511D01*
X016353Y023593D02*
X015765Y023593D01*
X015765Y023675D02*
X016353Y023675D01*
X015565Y023693D02*
X015565Y023183D01*
X014977Y023183D01*
X014977Y023693D01*
X015565Y023693D01*
X015565Y023265D02*
X014977Y023265D01*
X014977Y023347D02*
X015565Y023347D01*
X015565Y023429D02*
X014977Y023429D01*
X014977Y023511D02*
X015565Y023511D01*
X015565Y023593D02*
X014977Y023593D01*
X014977Y023675D02*
X015565Y023675D01*
X015565Y022945D02*
X015565Y022435D01*
X014977Y022435D01*
X014977Y022945D01*
X015565Y022945D01*
X015565Y022517D02*
X014977Y022517D01*
X014977Y022599D02*
X015565Y022599D01*
X015565Y022681D02*
X014977Y022681D01*
X014977Y022763D02*
X015565Y022763D01*
X015565Y022845D02*
X014977Y022845D01*
X014977Y022927D02*
X015565Y022927D01*
X014778Y022945D02*
X014778Y022435D01*
X014190Y022435D01*
X014190Y022945D01*
X014778Y022945D01*
X014778Y022517D02*
X014190Y022517D01*
X014190Y022599D02*
X014778Y022599D01*
X014778Y022681D02*
X014190Y022681D01*
X014190Y022763D02*
X014778Y022763D01*
X014778Y022845D02*
X014190Y022845D01*
X014190Y022927D02*
X014778Y022927D01*
X014778Y023183D02*
X014778Y023693D01*
X014778Y023183D02*
X014190Y023183D01*
X014190Y023693D01*
X014778Y023693D01*
X014778Y023265D02*
X014190Y023265D01*
X014190Y023347D02*
X014778Y023347D01*
X014778Y023429D02*
X014190Y023429D01*
X014190Y023511D02*
X014778Y023511D01*
X014778Y023593D02*
X014190Y023593D01*
X014190Y023675D02*
X014778Y023675D01*
X013990Y023693D02*
X013990Y023183D01*
X013402Y023183D01*
X013402Y023693D01*
X013990Y023693D01*
X013990Y023265D02*
X013402Y023265D01*
X013402Y023347D02*
X013990Y023347D01*
X013990Y023429D02*
X013402Y023429D01*
X013402Y023511D02*
X013990Y023511D01*
X013990Y023593D02*
X013402Y023593D01*
X013402Y023675D02*
X013990Y023675D01*
X013990Y022945D02*
X013990Y022435D01*
X013402Y022435D01*
X013402Y022945D01*
X013990Y022945D01*
X013990Y022517D02*
X013402Y022517D01*
X013402Y022599D02*
X013990Y022599D01*
X013990Y022681D02*
X013402Y022681D01*
X013402Y022763D02*
X013990Y022763D01*
X013990Y022845D02*
X013402Y022845D01*
X013402Y022927D02*
X013990Y022927D01*
X009072Y023223D02*
X009072Y023733D01*
X009660Y023733D01*
X009660Y023223D01*
X009072Y023223D01*
X009072Y023305D02*
X009660Y023305D01*
X009660Y023387D02*
X009072Y023387D01*
X009072Y023469D02*
X009660Y023469D01*
X009660Y023551D02*
X009072Y023551D01*
X009072Y023633D02*
X009660Y023633D01*
X009660Y023715D02*
X009072Y023715D01*
X009072Y023971D02*
X009072Y024481D01*
X009660Y024481D01*
X009660Y023971D01*
X009072Y023971D01*
X009072Y024053D02*
X009660Y024053D01*
X009660Y024135D02*
X009072Y024135D01*
X009072Y024217D02*
X009660Y024217D01*
X009660Y024299D02*
X009072Y024299D01*
X009072Y024381D02*
X009660Y024381D01*
X009660Y024463D02*
X009072Y024463D01*
X007891Y024481D02*
X007891Y023971D01*
X007891Y024481D02*
X008479Y024481D01*
X008479Y023971D01*
X007891Y023971D01*
X007891Y024053D02*
X008479Y024053D01*
X008479Y024135D02*
X007891Y024135D01*
X007891Y024217D02*
X008479Y024217D01*
X008479Y024299D02*
X007891Y024299D01*
X007891Y024381D02*
X008479Y024381D01*
X008479Y024463D02*
X007891Y024463D01*
X007891Y023733D02*
X007891Y023223D01*
X007891Y023733D02*
X008479Y023733D01*
X008479Y023223D01*
X007891Y023223D01*
X007891Y023305D02*
X008479Y023305D01*
X008479Y023387D02*
X007891Y023387D01*
X007891Y023469D02*
X008479Y023469D01*
X008479Y023551D02*
X007891Y023551D01*
X007891Y023633D02*
X008479Y023633D01*
X008479Y023715D02*
X007891Y023715D01*
X007436Y011547D02*
X006926Y011547D01*
X007436Y011547D02*
X007436Y010959D01*
X006926Y010959D01*
X006926Y011547D01*
X006926Y011041D02*
X007436Y011041D01*
X007436Y011123D02*
X006926Y011123D01*
X006926Y011205D02*
X007436Y011205D01*
X007436Y011287D02*
X006926Y011287D01*
X006926Y011369D02*
X007436Y011369D01*
X007436Y011451D02*
X006926Y011451D01*
X006926Y011533D02*
X007436Y011533D01*
X006688Y011547D02*
X006178Y011547D01*
X006688Y011547D02*
X006688Y010959D01*
X006178Y010959D01*
X006178Y011547D01*
X006178Y011041D02*
X006688Y011041D01*
X006688Y011123D02*
X006178Y011123D01*
X006178Y011205D02*
X006688Y011205D01*
X006688Y011287D02*
X006178Y011287D01*
X006178Y011369D02*
X006688Y011369D01*
X006688Y011451D02*
X006178Y011451D01*
X006178Y011533D02*
X006688Y011533D01*
X012416Y005583D02*
X012416Y005073D01*
X011828Y005073D01*
X011828Y005583D01*
X012416Y005583D01*
X012416Y005155D02*
X011828Y005155D01*
X011828Y005237D02*
X012416Y005237D01*
X012416Y005319D02*
X011828Y005319D01*
X011828Y005401D02*
X012416Y005401D01*
X012416Y005483D02*
X011828Y005483D01*
X011828Y005565D02*
X012416Y005565D01*
X012615Y005583D02*
X012615Y005073D01*
X012615Y005583D02*
X013203Y005583D01*
X013203Y005073D01*
X012615Y005073D01*
X012615Y005155D02*
X013203Y005155D01*
X013203Y005237D02*
X012615Y005237D01*
X012615Y005319D02*
X013203Y005319D01*
X013203Y005401D02*
X012615Y005401D01*
X012615Y005483D02*
X013203Y005483D01*
X013203Y005565D02*
X012615Y005565D01*
X012615Y004835D02*
X012615Y004325D01*
X012615Y004835D02*
X013203Y004835D01*
X013203Y004325D01*
X012615Y004325D01*
X012615Y004407D02*
X013203Y004407D01*
X013203Y004489D02*
X012615Y004489D01*
X012615Y004571D02*
X013203Y004571D01*
X013203Y004653D02*
X012615Y004653D01*
X012615Y004735D02*
X013203Y004735D01*
X013203Y004817D02*
X012615Y004817D01*
X012416Y004835D02*
X012416Y004325D01*
X011828Y004325D01*
X011828Y004835D01*
X012416Y004835D01*
X012416Y004407D02*
X011828Y004407D01*
X011828Y004489D02*
X012416Y004489D01*
X012416Y004571D02*
X011828Y004571D01*
X011828Y004653D02*
X012416Y004653D01*
X012416Y004735D02*
X011828Y004735D01*
X011828Y004817D02*
X012416Y004817D01*
X017745Y005032D02*
X017745Y004522D01*
X017745Y005032D02*
X018333Y005032D01*
X018333Y004522D01*
X017745Y004522D01*
X017745Y004604D02*
X018333Y004604D01*
X018333Y004686D02*
X017745Y004686D01*
X017745Y004768D02*
X018333Y004768D01*
X018333Y004850D02*
X017745Y004850D01*
X017745Y004932D02*
X018333Y004932D01*
X018333Y005014D02*
X017745Y005014D01*
X017745Y005270D02*
X017745Y005780D01*
X018333Y005780D01*
X018333Y005270D01*
X017745Y005270D01*
X017745Y005352D02*
X018333Y005352D01*
X018333Y005434D02*
X017745Y005434D01*
X017745Y005516D02*
X018333Y005516D01*
X018333Y005598D02*
X017745Y005598D01*
X017745Y005680D02*
X018333Y005680D01*
X018333Y005762D02*
X017745Y005762D01*
X018127Y002827D02*
X018127Y002317D01*
X018127Y002827D02*
X018715Y002827D01*
X018715Y002317D01*
X018127Y002317D01*
X018127Y002399D02*
X018715Y002399D01*
X018715Y002481D02*
X018127Y002481D01*
X018127Y002563D02*
X018715Y002563D01*
X018715Y002645D02*
X018127Y002645D01*
X018127Y002727D02*
X018715Y002727D01*
X018715Y002809D02*
X018127Y002809D01*
X018127Y002079D02*
X018127Y001569D01*
X018127Y002079D02*
X018715Y002079D01*
X018715Y001569D01*
X018127Y001569D01*
X018127Y001651D02*
X018715Y001651D01*
X018715Y001733D02*
X018127Y001733D01*
X018127Y001815D02*
X018715Y001815D01*
X018715Y001897D02*
X018127Y001897D01*
X018127Y001979D02*
X018715Y001979D01*
X018715Y002061D02*
X018127Y002061D01*
X018914Y002079D02*
X018914Y001569D01*
X018914Y002079D02*
X019502Y002079D01*
X019502Y001569D01*
X018914Y001569D01*
X018914Y001651D02*
X019502Y001651D01*
X019502Y001733D02*
X018914Y001733D01*
X018914Y001815D02*
X019502Y001815D01*
X019502Y001897D02*
X018914Y001897D01*
X018914Y001979D02*
X019502Y001979D01*
X019502Y002061D02*
X018914Y002061D01*
X018914Y002317D02*
X018914Y002827D01*
X019502Y002827D01*
X019502Y002317D01*
X018914Y002317D01*
X018914Y002399D02*
X019502Y002399D01*
X019502Y002481D02*
X018914Y002481D01*
X018914Y002563D02*
X019502Y002563D01*
X019502Y002645D02*
X018914Y002645D01*
X018914Y002727D02*
X019502Y002727D01*
X019502Y002809D02*
X018914Y002809D01*
X019702Y002827D02*
X019702Y002317D01*
X019702Y002827D02*
X020290Y002827D01*
X020290Y002317D01*
X019702Y002317D01*
X019702Y002399D02*
X020290Y002399D01*
X020290Y002481D02*
X019702Y002481D01*
X019702Y002563D02*
X020290Y002563D01*
X020290Y002645D02*
X019702Y002645D01*
X019702Y002727D02*
X020290Y002727D01*
X020290Y002809D02*
X019702Y002809D01*
X019702Y002079D02*
X019702Y001569D01*
X019702Y002079D02*
X020290Y002079D01*
X020290Y001569D01*
X019702Y001569D01*
X019702Y001651D02*
X020290Y001651D01*
X020290Y001733D02*
X019702Y001733D01*
X019702Y001815D02*
X020290Y001815D01*
X020290Y001897D02*
X019702Y001897D01*
X019702Y001979D02*
X020290Y001979D01*
X020290Y002061D02*
X019702Y002061D01*
X020745Y002295D02*
X021255Y002295D01*
X021255Y001707D01*
X020745Y001707D01*
X020745Y002295D01*
X020745Y001789D02*
X021255Y001789D01*
X021255Y001871D02*
X020745Y001871D01*
X020745Y001953D02*
X021255Y001953D01*
X021255Y002035D02*
X020745Y002035D01*
X020745Y002117D02*
X021255Y002117D01*
X021255Y002199D02*
X020745Y002199D01*
X020745Y002281D02*
X021255Y002281D01*
X021493Y002295D02*
X022003Y002295D01*
X022003Y001707D01*
X021493Y001707D01*
X021493Y002295D01*
X021493Y001789D02*
X022003Y001789D01*
X022003Y001871D02*
X021493Y001871D01*
X021493Y001953D02*
X022003Y001953D01*
X022003Y002035D02*
X021493Y002035D01*
X021493Y002117D02*
X022003Y002117D01*
X022003Y002199D02*
X021493Y002199D01*
X021493Y002281D02*
X022003Y002281D01*
X022003Y002692D02*
X021493Y002692D01*
X021493Y003280D01*
X022003Y003280D01*
X022003Y002692D01*
X022003Y002774D02*
X021493Y002774D01*
X021493Y002856D02*
X022003Y002856D01*
X022003Y002938D02*
X021493Y002938D01*
X021493Y003020D02*
X022003Y003020D01*
X022003Y003102D02*
X021493Y003102D01*
X021493Y003184D02*
X022003Y003184D01*
X022003Y003266D02*
X021493Y003266D01*
X021255Y002692D02*
X020745Y002692D01*
X020745Y003280D01*
X021255Y003280D01*
X021255Y002692D01*
X021255Y002774D02*
X020745Y002774D01*
X020745Y002856D02*
X021255Y002856D01*
X021255Y002938D02*
X020745Y002938D01*
X020745Y003020D02*
X021255Y003020D01*
X021255Y003102D02*
X020745Y003102D01*
X020745Y003184D02*
X021255Y003184D01*
X021255Y003266D02*
X020745Y003266D01*
X022851Y002827D02*
X022851Y002317D01*
X022851Y002827D02*
X023439Y002827D01*
X023439Y002317D01*
X022851Y002317D01*
X022851Y002399D02*
X023439Y002399D01*
X023439Y002481D02*
X022851Y002481D01*
X022851Y002563D02*
X023439Y002563D01*
X023439Y002645D02*
X022851Y002645D01*
X022851Y002727D02*
X023439Y002727D01*
X023439Y002809D02*
X022851Y002809D01*
X022851Y002079D02*
X022851Y001569D01*
X022851Y002079D02*
X023439Y002079D01*
X023439Y001569D01*
X022851Y001569D01*
X022851Y001651D02*
X023439Y001651D01*
X023439Y001733D02*
X022851Y001733D01*
X022851Y001815D02*
X023439Y001815D01*
X023439Y001897D02*
X022851Y001897D01*
X022851Y001979D02*
X023439Y001979D01*
X023439Y002061D02*
X022851Y002061D01*
X023639Y002079D02*
X023639Y001569D01*
X023639Y002079D02*
X024227Y002079D01*
X024227Y001569D01*
X023639Y001569D01*
X023639Y001651D02*
X024227Y001651D01*
X024227Y001733D02*
X023639Y001733D01*
X023639Y001815D02*
X024227Y001815D01*
X024227Y001897D02*
X023639Y001897D01*
X023639Y001979D02*
X024227Y001979D01*
X024227Y002061D02*
X023639Y002061D01*
X023639Y002317D02*
X023639Y002827D01*
X024227Y002827D01*
X024227Y002317D01*
X023639Y002317D01*
X023639Y002399D02*
X024227Y002399D01*
X024227Y002481D02*
X023639Y002481D01*
X023639Y002563D02*
X024227Y002563D01*
X024227Y002645D02*
X023639Y002645D01*
X023639Y002727D02*
X024227Y002727D01*
X024227Y002809D02*
X023639Y002809D01*
X024426Y002827D02*
X024426Y002317D01*
X024426Y002827D02*
X025014Y002827D01*
X025014Y002317D01*
X024426Y002317D01*
X024426Y002399D02*
X025014Y002399D01*
X025014Y002481D02*
X024426Y002481D01*
X024426Y002563D02*
X025014Y002563D01*
X025014Y002645D02*
X024426Y002645D01*
X024426Y002727D02*
X025014Y002727D01*
X025014Y002809D02*
X024426Y002809D01*
X024426Y002079D02*
X024426Y001569D01*
X024426Y002079D02*
X025014Y002079D01*
X025014Y001569D01*
X024426Y001569D01*
X024426Y001651D02*
X025014Y001651D01*
X025014Y001733D02*
X024426Y001733D01*
X024426Y001815D02*
X025014Y001815D01*
X025014Y001897D02*
X024426Y001897D01*
X024426Y001979D02*
X025014Y001979D01*
X025014Y002061D02*
X024426Y002061D01*
X025213Y002079D02*
X025213Y001569D01*
X025213Y002079D02*
X025801Y002079D01*
X025801Y001569D01*
X025213Y001569D01*
X025213Y001651D02*
X025801Y001651D01*
X025801Y001733D02*
X025213Y001733D01*
X025213Y001815D02*
X025801Y001815D01*
X025801Y001897D02*
X025213Y001897D01*
X025213Y001979D02*
X025801Y001979D01*
X025801Y002061D02*
X025213Y002061D01*
X025213Y002317D02*
X025213Y002827D01*
X025801Y002827D01*
X025801Y002317D01*
X025213Y002317D01*
X025213Y002399D02*
X025801Y002399D01*
X025801Y002481D02*
X025213Y002481D01*
X025213Y002563D02*
X025801Y002563D01*
X025801Y002645D02*
X025213Y002645D01*
X025213Y002727D02*
X025801Y002727D01*
X025801Y002809D02*
X025213Y002809D01*
X026001Y002827D02*
X026001Y002317D01*
X026001Y002827D02*
X026589Y002827D01*
X026589Y002317D01*
X026001Y002317D01*
X026001Y002399D02*
X026589Y002399D01*
X026589Y002481D02*
X026001Y002481D01*
X026001Y002563D02*
X026589Y002563D01*
X026589Y002645D02*
X026001Y002645D01*
X026001Y002727D02*
X026589Y002727D01*
X026589Y002809D02*
X026001Y002809D01*
X026001Y002079D02*
X026001Y001569D01*
X026001Y002079D02*
X026589Y002079D01*
X026589Y001569D01*
X026001Y001569D01*
X026001Y001651D02*
X026589Y001651D01*
X026589Y001733D02*
X026001Y001733D01*
X026001Y001815D02*
X026589Y001815D01*
X026589Y001897D02*
X026001Y001897D01*
X026001Y001979D02*
X026589Y001979D01*
X026589Y002061D02*
X026001Y002061D01*
X030329Y016333D02*
X030329Y016843D01*
X030329Y016333D02*
X029741Y016333D01*
X029741Y016843D01*
X030329Y016843D01*
X030329Y016415D02*
X029741Y016415D01*
X029741Y016497D02*
X030329Y016497D01*
X030329Y016579D02*
X029741Y016579D01*
X029741Y016661D02*
X030329Y016661D01*
X030329Y016743D02*
X029741Y016743D01*
X029741Y016825D02*
X030329Y016825D01*
X030329Y017081D02*
X030329Y017591D01*
X030329Y017081D02*
X029741Y017081D01*
X029741Y017591D01*
X030329Y017591D01*
X030329Y017163D02*
X029741Y017163D01*
X029741Y017245D02*
X030329Y017245D01*
X030329Y017327D02*
X029741Y017327D01*
X029741Y017409D02*
X030329Y017409D01*
X030329Y017491D02*
X029741Y017491D01*
X029741Y017573D02*
X030329Y017573D01*
D16*
X014551Y024820D03*
D17*
X002673Y001608D03*
X005429Y020978D03*
X006610Y022867D03*
X004248Y022867D03*
X002673Y028773D03*
X011334Y025820D03*
X021177Y025820D03*
X029838Y028773D03*
X029838Y001608D03*
D18*
X022464Y004493D02*
X021874Y004493D01*
X022464Y004493D02*
X022464Y003863D01*
X021874Y003863D01*
X021874Y004493D01*
X021874Y003942D02*
X022464Y003942D01*
X022464Y004021D02*
X021874Y004021D01*
X021874Y004100D02*
X022464Y004100D01*
X022464Y004179D02*
X021874Y004179D01*
X021874Y004258D02*
X022464Y004258D01*
X022464Y004337D02*
X021874Y004337D01*
X021874Y004416D02*
X022464Y004416D01*
X022464Y006501D02*
X021874Y006501D01*
X022464Y006501D02*
X022464Y005871D01*
X021874Y005871D01*
X021874Y006501D01*
X021874Y005950D02*
X022464Y005950D01*
X022464Y006029D02*
X021874Y006029D01*
X021874Y006108D02*
X022464Y006108D01*
X022464Y006187D02*
X021874Y006187D01*
X021874Y006266D02*
X022464Y006266D01*
X022464Y006345D02*
X021874Y006345D01*
X021874Y006424D02*
X022464Y006424D01*
X020968Y005871D02*
X020378Y005871D01*
X020378Y006501D01*
X020968Y006501D01*
X020968Y005871D01*
X020968Y005950D02*
X020378Y005950D01*
X020378Y006029D02*
X020968Y006029D01*
X020968Y006108D02*
X020378Y006108D01*
X020378Y006187D02*
X020968Y006187D01*
X020968Y006266D02*
X020378Y006266D01*
X020378Y006345D02*
X020968Y006345D01*
X020968Y006424D02*
X020378Y006424D01*
X020378Y003863D02*
X020968Y003863D01*
X020378Y003863D02*
X020378Y004493D01*
X020968Y004493D01*
X020968Y003863D01*
X020968Y003942D02*
X020378Y003942D01*
X020378Y004021D02*
X020968Y004021D01*
X020968Y004100D02*
X020378Y004100D01*
X020378Y004179D02*
X020968Y004179D01*
X020968Y004258D02*
X020378Y004258D01*
X020378Y004337D02*
X020968Y004337D01*
X020968Y004416D02*
X020378Y004416D01*
D19*
X020289Y013518D02*
X020289Y015090D01*
X020289Y013518D02*
X018717Y013518D01*
X018717Y015090D01*
X020289Y015090D01*
X020289Y013600D02*
X018717Y013600D01*
X018717Y013682D02*
X020289Y013682D01*
X020289Y013764D02*
X018717Y013764D01*
X018717Y013846D02*
X020289Y013846D01*
X020289Y013928D02*
X018717Y013928D01*
X018717Y014010D02*
X020289Y014010D01*
X020289Y014092D02*
X018717Y014092D01*
X018717Y014174D02*
X020289Y014174D01*
X020289Y014256D02*
X018717Y014256D01*
X018717Y014338D02*
X020289Y014338D01*
X020289Y014420D02*
X018717Y014420D01*
X018717Y014502D02*
X020289Y014502D01*
X020289Y014584D02*
X018717Y014584D01*
X018717Y014666D02*
X020289Y014666D01*
X020289Y014748D02*
X018717Y014748D01*
X018717Y014830D02*
X020289Y014830D01*
X020289Y014912D02*
X018717Y014912D01*
X018717Y014994D02*
X020289Y014994D01*
X020289Y015076D02*
X018717Y015076D01*
D20*
X018814Y018542D03*
X018618Y018542D03*
X018421Y018542D03*
X018224Y018542D03*
X018027Y018542D03*
X017830Y018542D03*
X017633Y018542D03*
X017437Y018542D03*
X017240Y018542D03*
X017043Y018542D03*
X016846Y018542D03*
X016649Y018542D03*
X016452Y018542D03*
X016255Y018542D03*
X016059Y018542D03*
X019011Y018542D03*
X019208Y018542D03*
X019405Y018542D03*
X019602Y018542D03*
X019799Y018542D03*
X019996Y018542D03*
X020192Y018542D03*
X020389Y018542D03*
X020586Y018542D03*
X020783Y018542D03*
X020980Y018542D03*
X021177Y018542D03*
X021374Y018542D03*
X021570Y018542D03*
X021767Y018542D03*
X021964Y018542D03*
X022161Y018542D03*
X022358Y018542D03*
X022555Y018542D03*
X022751Y018542D03*
X022948Y018542D03*
X022948Y010067D03*
X022751Y010067D03*
X022555Y010067D03*
X022358Y010067D03*
X022161Y010067D03*
X021964Y010067D03*
X021767Y010067D03*
X021570Y010067D03*
X021374Y010067D03*
X021177Y010067D03*
X020980Y010067D03*
X020783Y010067D03*
X020586Y010067D03*
X020389Y010067D03*
X020192Y010067D03*
X019996Y010067D03*
X019799Y010067D03*
X019602Y010067D03*
X019405Y010067D03*
X019208Y010067D03*
X019011Y010067D03*
X018814Y010067D03*
X018618Y010067D03*
X018421Y010067D03*
X018224Y010067D03*
X018027Y010067D03*
X017830Y010067D03*
X017633Y010067D03*
X017437Y010067D03*
X017240Y010067D03*
X017043Y010067D03*
X016846Y010067D03*
X016649Y010067D03*
X016452Y010067D03*
X016255Y010067D03*
X016059Y010067D03*
D21*
X015266Y010860D03*
X015266Y011056D03*
X015266Y011253D03*
X015266Y011450D03*
X015266Y011647D03*
X015266Y011844D03*
X015266Y012041D03*
X015266Y012237D03*
X015266Y012434D03*
X015266Y012631D03*
X015266Y012828D03*
X015266Y013025D03*
X015266Y013222D03*
X015266Y013419D03*
X015266Y013615D03*
X015266Y013812D03*
X015266Y014009D03*
X015266Y014206D03*
X015266Y014403D03*
X015266Y014600D03*
X015266Y014797D03*
X015266Y014993D03*
X015266Y015190D03*
X015266Y015387D03*
X015266Y015584D03*
X015266Y015781D03*
X015266Y015978D03*
X015266Y016174D03*
X015266Y016371D03*
X015266Y016568D03*
X015266Y016765D03*
X015266Y016962D03*
X015266Y017159D03*
X015266Y017356D03*
X015266Y017552D03*
X015266Y017749D03*
X023741Y017749D03*
X023741Y017552D03*
X023741Y017356D03*
X023741Y017159D03*
X023741Y016962D03*
X023741Y016765D03*
X023741Y016568D03*
X023741Y016371D03*
X023741Y016174D03*
X023741Y015978D03*
X023741Y015781D03*
X023741Y015584D03*
X023741Y015387D03*
X023741Y015190D03*
X023741Y014993D03*
X023741Y014797D03*
X023741Y014600D03*
X023741Y014403D03*
X023741Y014206D03*
X023741Y014009D03*
X023741Y013812D03*
X023741Y013615D03*
X023741Y013419D03*
X023741Y013222D03*
X023741Y013025D03*
X023741Y012828D03*
X023741Y012631D03*
X023741Y012434D03*
X023741Y012237D03*
X023741Y012041D03*
X023741Y011844D03*
X023741Y011647D03*
X023741Y011450D03*
X023741Y011253D03*
X023741Y011056D03*
X023741Y010860D03*
D22*
X013482Y018537D03*
X005600Y018537D03*
D23*
X014712Y002812D03*
X026129Y020702D03*
X023129Y022474D03*
D24*
X024129Y022474D03*
X025129Y022474D03*
X025129Y020702D03*
X024129Y020702D03*
X023129Y020702D03*
X022129Y020702D03*
X013712Y002812D03*
X013712Y001812D03*
X012712Y001812D03*
X011712Y001812D03*
X011712Y002812D03*
X012712Y002812D03*
X014712Y001812D03*
X010712Y001812D03*
X010712Y002812D03*
D25*
X006019Y004167D03*
X005232Y002986D03*
X005232Y005348D03*
D26*
X014856Y005196D02*
X014856Y005000D01*
X013990Y005000D01*
X013990Y005196D01*
X014856Y005196D01*
X014856Y005079D02*
X013990Y005079D01*
X013990Y005158D02*
X014856Y005158D01*
X014856Y005500D02*
X014856Y005696D01*
X014856Y005500D02*
X013990Y005500D01*
X013990Y005696D01*
X014856Y005696D01*
X014856Y005579D02*
X013990Y005579D01*
X013990Y005658D02*
X014856Y005658D01*
X014856Y006000D02*
X014856Y006196D01*
X014856Y006000D02*
X013990Y006000D01*
X013990Y006196D01*
X014856Y006196D01*
X014856Y006079D02*
X013990Y006079D01*
X013990Y006158D02*
X014856Y006158D01*
X014856Y004696D02*
X014856Y004500D01*
X013990Y004500D01*
X013990Y004696D01*
X014856Y004696D01*
X014856Y004579D02*
X013990Y004579D01*
X013990Y004658D02*
X014856Y004658D01*
X017340Y004696D02*
X017340Y004500D01*
X016474Y004500D01*
X016474Y004696D01*
X017340Y004696D01*
X017340Y004579D02*
X016474Y004579D01*
X016474Y004658D02*
X017340Y004658D01*
X017340Y004996D02*
X017340Y005192D01*
X017340Y004996D02*
X016474Y004996D01*
X016474Y005192D01*
X017340Y005192D01*
X017340Y005075D02*
X016474Y005075D01*
X016474Y005154D02*
X017340Y005154D01*
X017340Y005496D02*
X017340Y005692D01*
X017340Y005496D02*
X016474Y005496D01*
X016474Y005692D01*
X017340Y005692D01*
X017340Y005575D02*
X016474Y005575D01*
X016474Y005654D02*
X017340Y005654D01*
X017340Y005996D02*
X017340Y006192D01*
X017340Y005996D02*
X016474Y005996D01*
X016474Y006192D01*
X017340Y006192D01*
X017340Y006075D02*
X016474Y006075D01*
X016474Y006154D02*
X017340Y006154D01*
X027260Y021942D02*
X028480Y021942D01*
X028480Y021746D01*
X027260Y021746D01*
X027260Y021942D01*
X027260Y021825D02*
X028480Y021825D01*
X028480Y021904D02*
X027260Y021904D01*
X027260Y022257D02*
X028480Y022257D01*
X028480Y022061D01*
X027260Y022061D01*
X027260Y022257D01*
X027260Y022140D02*
X028480Y022140D01*
X028480Y022219D02*
X027260Y022219D01*
X027260Y022572D02*
X028480Y022572D01*
X028480Y022376D01*
X027260Y022376D01*
X027260Y022572D01*
X027260Y022455D02*
X028480Y022455D01*
X028480Y022534D02*
X027260Y022534D01*
X027260Y022887D02*
X028480Y022887D01*
X028480Y022691D01*
X027260Y022691D01*
X027260Y022887D01*
X027260Y022770D02*
X028480Y022770D01*
X028480Y022849D02*
X027260Y022849D01*
X027260Y023202D02*
X028480Y023202D01*
X028480Y023006D01*
X027260Y023006D01*
X027260Y023202D01*
X027260Y023085D02*
X028480Y023085D01*
X028480Y023164D02*
X027260Y023164D01*
D27*
X028363Y027984D03*
X025703Y028304D03*
X023043Y027984D03*
X019503Y014304D03*
X009465Y027984D03*
X006805Y028304D03*
X004145Y027984D03*
D28*
X007163Y005858D02*
X007163Y004838D01*
X007163Y005858D02*
X008025Y005858D01*
X008025Y004838D01*
X007163Y004838D01*
X007163Y004922D02*
X008025Y004922D01*
X008025Y005006D02*
X007163Y005006D01*
X007163Y005090D02*
X008025Y005090D01*
X008025Y005174D02*
X007163Y005174D01*
X007163Y005258D02*
X008025Y005258D01*
X008025Y005342D02*
X007163Y005342D01*
X007163Y005426D02*
X008025Y005426D01*
X008025Y005510D02*
X007163Y005510D01*
X007163Y005594D02*
X008025Y005594D01*
X008025Y005678D02*
X007163Y005678D01*
X007163Y005762D02*
X008025Y005762D01*
X008025Y005846D02*
X007163Y005846D01*
X007163Y003889D02*
X007163Y002869D01*
X007163Y003889D02*
X008025Y003889D01*
X008025Y002869D01*
X007163Y002869D01*
X007163Y002953D02*
X008025Y002953D01*
X008025Y003037D02*
X007163Y003037D01*
X007163Y003121D02*
X008025Y003121D01*
X008025Y003205D02*
X007163Y003205D01*
X007163Y003289D02*
X008025Y003289D01*
X008025Y003373D02*
X007163Y003373D01*
X007163Y003457D02*
X008025Y003457D01*
X008025Y003541D02*
X007163Y003541D01*
X007163Y003625D02*
X008025Y003625D01*
X008025Y003709D02*
X007163Y003709D01*
X007163Y003793D02*
X008025Y003793D01*
X008025Y003877D02*
X007163Y003877D01*
X007084Y001177D02*
X008104Y001177D01*
X007084Y001177D02*
X007084Y002039D01*
X008104Y002039D01*
X008104Y001177D01*
X008104Y001261D02*
X007084Y001261D01*
X007084Y001345D02*
X008104Y001345D01*
X008104Y001429D02*
X007084Y001429D01*
X007084Y001513D02*
X008104Y001513D01*
X008104Y001597D02*
X007084Y001597D01*
X007084Y001681D02*
X008104Y001681D01*
X008104Y001765D02*
X007084Y001765D01*
X007084Y001849D02*
X008104Y001849D01*
X008104Y001933D02*
X007084Y001933D01*
X007084Y002017D02*
X008104Y002017D01*
X006136Y001177D02*
X005116Y001177D01*
X005116Y002039D01*
X006136Y002039D01*
X006136Y001177D01*
X006136Y001261D02*
X005116Y001261D01*
X005116Y001345D02*
X006136Y001345D01*
X006136Y001429D02*
X005116Y001429D01*
X005116Y001513D02*
X006136Y001513D01*
X006136Y001597D02*
X005116Y001597D01*
X005116Y001681D02*
X006136Y001681D01*
X006136Y001765D02*
X005116Y001765D01*
X005116Y001849D02*
X006136Y001849D01*
X006136Y001933D02*
X005116Y001933D01*
X005116Y002017D02*
X006136Y002017D01*
X027753Y019090D02*
X028773Y019090D01*
X027753Y019090D02*
X027753Y019952D01*
X028773Y019952D01*
X028773Y019090D01*
X028773Y019174D02*
X027753Y019174D01*
X027753Y019258D02*
X028773Y019258D01*
X028773Y019342D02*
X027753Y019342D01*
X027753Y019426D02*
X028773Y019426D01*
X028773Y019510D02*
X027753Y019510D01*
X027753Y019594D02*
X028773Y019594D01*
X028773Y019678D02*
X027753Y019678D01*
X027753Y019762D02*
X028773Y019762D01*
X028773Y019846D02*
X027753Y019846D01*
X027753Y019930D02*
X028773Y019930D01*
X029722Y019090D02*
X030742Y019090D01*
X029722Y019090D02*
X029722Y019952D01*
X030742Y019952D01*
X030742Y019090D01*
X030742Y019174D02*
X029722Y019174D01*
X029722Y019258D02*
X030742Y019258D01*
X030742Y019342D02*
X029722Y019342D01*
X029722Y019426D02*
X030742Y019426D01*
X030742Y019510D02*
X029722Y019510D01*
X029722Y019594D02*
X030742Y019594D01*
X030742Y019678D02*
X029722Y019678D01*
X029722Y019762D02*
X030742Y019762D01*
X030742Y019846D02*
X029722Y019846D01*
X029722Y019930D02*
X030742Y019930D01*
D29*
X012569Y013379D03*
X012569Y013064D03*
X012569Y012749D03*
X012569Y012434D03*
X012569Y012119D03*
X012569Y011804D03*
X012569Y011489D03*
X012569Y011174D03*
X012569Y010860D03*
X012569Y010545D03*
X012569Y010230D03*
X012569Y009915D03*
X012569Y009600D03*
X012569Y009285D03*
X012569Y008970D03*
X012569Y008655D03*
X012569Y008340D03*
X012569Y008025D03*
X012569Y007710D03*
X012569Y007395D03*
X012569Y007080D03*
X012569Y006765D03*
X008130Y006765D03*
X008130Y007080D03*
X008130Y007395D03*
X008130Y007710D03*
X008130Y008025D03*
X008130Y008340D03*
X008130Y008655D03*
X008130Y008970D03*
X008130Y009285D03*
X008130Y009600D03*
X008130Y009915D03*
X008130Y010230D03*
X008130Y010545D03*
X008130Y010860D03*
X008130Y011174D03*
X008130Y011489D03*
X008130Y011804D03*
X008130Y012119D03*
X008130Y012434D03*
X008130Y012749D03*
X008130Y013064D03*
X008130Y013379D03*
D30*
X025456Y013339D02*
X025810Y013339D01*
X025810Y013183D01*
X025456Y013183D01*
X025456Y013339D01*
X025456Y013263D02*
X025810Y013263D01*
X025810Y013654D02*
X025456Y013654D01*
X025810Y013654D02*
X025810Y013498D01*
X025456Y013498D01*
X025456Y013654D01*
X025456Y013578D02*
X025810Y013578D01*
X025810Y013969D02*
X025456Y013969D01*
X025810Y013969D02*
X025810Y013813D01*
X025456Y013813D01*
X025456Y013969D01*
X025456Y013893D02*
X025810Y013893D01*
X025810Y014284D02*
X025456Y014284D01*
X025810Y014284D02*
X025810Y014128D01*
X025456Y014128D01*
X025456Y014284D01*
X025456Y014208D02*
X025810Y014208D01*
X025810Y014599D02*
X025456Y014599D01*
X025810Y014599D02*
X025810Y014443D01*
X025456Y014443D01*
X025456Y014599D01*
X025456Y014523D02*
X025810Y014523D01*
X025810Y014914D02*
X025456Y014914D01*
X025810Y014914D02*
X025810Y014758D01*
X025456Y014758D01*
X025456Y014914D01*
X025456Y014838D02*
X025810Y014838D01*
X025810Y015073D02*
X025456Y015073D01*
X025456Y015229D01*
X025810Y015229D01*
X025810Y015073D01*
X025810Y015153D02*
X025456Y015153D01*
X025456Y013024D02*
X025810Y013024D01*
X025810Y012868D01*
X025456Y012868D01*
X025456Y013024D01*
X025456Y012948D02*
X025810Y012948D01*
X025810Y012709D02*
X025456Y012709D01*
X025810Y012709D02*
X025810Y012553D01*
X025456Y012553D01*
X025456Y012709D01*
X025456Y012633D02*
X025810Y012633D01*
X025810Y012394D02*
X025456Y012394D01*
X025810Y012394D02*
X025810Y012238D01*
X025456Y012238D01*
X025456Y012394D01*
X025456Y012318D02*
X025810Y012318D01*
X025810Y012079D02*
X025456Y012079D01*
X025810Y012079D02*
X025810Y011923D01*
X025456Y011923D01*
X025456Y012079D01*
X025456Y012003D02*
X025810Y012003D01*
X025810Y011764D02*
X025456Y011764D01*
X025810Y011764D02*
X025810Y011608D01*
X025456Y011608D01*
X025456Y011764D01*
X025456Y011688D02*
X025810Y011688D01*
X025810Y011449D02*
X025456Y011449D01*
X025810Y011449D02*
X025810Y011293D01*
X025456Y011293D01*
X025456Y011449D01*
X025456Y011373D02*
X025810Y011373D01*
X025810Y011134D02*
X025456Y011134D01*
X025810Y011134D02*
X025810Y010978D01*
X025456Y010978D01*
X025456Y011134D01*
X025456Y011058D02*
X025810Y011058D01*
X025810Y010819D02*
X025456Y010819D01*
X025810Y010819D02*
X025810Y010663D01*
X025456Y010663D01*
X025456Y010819D01*
X025456Y010743D02*
X025810Y010743D01*
X025810Y010504D02*
X025456Y010504D01*
X025810Y010504D02*
X025810Y010348D01*
X025456Y010348D01*
X025456Y010504D01*
X025456Y010428D02*
X025810Y010428D01*
X025810Y010189D02*
X025456Y010189D01*
X025810Y010189D02*
X025810Y010033D01*
X025456Y010033D01*
X025456Y010189D01*
X025456Y010113D02*
X025810Y010113D01*
X025810Y009875D02*
X025456Y009875D01*
X025810Y009875D02*
X025810Y009719D01*
X025456Y009719D01*
X025456Y009875D01*
X025456Y009799D02*
X025810Y009799D01*
X025810Y009560D02*
X025456Y009560D01*
X025810Y009560D02*
X025810Y009404D01*
X025456Y009404D01*
X025456Y009560D01*
X025456Y009484D02*
X025810Y009484D01*
X025810Y009245D02*
X025456Y009245D01*
X025810Y009245D02*
X025810Y009089D01*
X025456Y009089D01*
X025456Y009245D01*
X025456Y009169D02*
X025810Y009169D01*
X025810Y008930D02*
X025456Y008930D01*
X025810Y008930D02*
X025810Y008774D01*
X025456Y008774D01*
X025456Y008930D01*
X025456Y008854D02*
X025810Y008854D01*
X025810Y008615D02*
X025456Y008615D01*
X025810Y008615D02*
X025810Y008459D01*
X025456Y008459D01*
X025456Y008615D01*
X025456Y008539D02*
X025810Y008539D01*
X025810Y008300D02*
X025456Y008300D01*
X025810Y008300D02*
X025810Y008144D01*
X025456Y008144D01*
X025456Y008300D01*
X025456Y008224D02*
X025810Y008224D01*
X025810Y007985D02*
X025456Y007985D01*
X025810Y007985D02*
X025810Y007829D01*
X025456Y007829D01*
X025456Y007985D01*
X025456Y007909D02*
X025810Y007909D01*
X025810Y007670D02*
X025456Y007670D01*
X025810Y007670D02*
X025810Y007514D01*
X025456Y007514D01*
X025456Y007670D01*
X025456Y007594D02*
X025810Y007594D01*
X025810Y007355D02*
X025456Y007355D01*
X025810Y007355D02*
X025810Y007199D01*
X025456Y007199D01*
X025456Y007355D01*
X025456Y007279D02*
X025810Y007279D01*
X025810Y007040D02*
X025456Y007040D01*
X025810Y007040D02*
X025810Y006884D01*
X025456Y006884D01*
X025456Y007040D01*
X025456Y006964D02*
X025810Y006964D01*
X029929Y007040D02*
X030283Y007040D01*
X030283Y006884D01*
X029929Y006884D01*
X029929Y007040D01*
X029929Y006964D02*
X030283Y006964D01*
X030283Y007355D02*
X029929Y007355D01*
X030283Y007355D02*
X030283Y007199D01*
X029929Y007199D01*
X029929Y007355D01*
X029929Y007279D02*
X030283Y007279D01*
X030283Y007670D02*
X029929Y007670D01*
X030283Y007670D02*
X030283Y007514D01*
X029929Y007514D01*
X029929Y007670D01*
X029929Y007594D02*
X030283Y007594D01*
X030283Y007985D02*
X029929Y007985D01*
X030283Y007985D02*
X030283Y007829D01*
X029929Y007829D01*
X029929Y007985D01*
X029929Y007909D02*
X030283Y007909D01*
X030283Y008300D02*
X029929Y008300D01*
X030283Y008300D02*
X030283Y008144D01*
X029929Y008144D01*
X029929Y008300D01*
X029929Y008224D02*
X030283Y008224D01*
X030283Y008615D02*
X029929Y008615D01*
X030283Y008615D02*
X030283Y008459D01*
X029929Y008459D01*
X029929Y008615D01*
X029929Y008539D02*
X030283Y008539D01*
X030283Y008930D02*
X029929Y008930D01*
X030283Y008930D02*
X030283Y008774D01*
X029929Y008774D01*
X029929Y008930D01*
X029929Y008854D02*
X030283Y008854D01*
X030283Y009245D02*
X029929Y009245D01*
X030283Y009245D02*
X030283Y009089D01*
X029929Y009089D01*
X029929Y009245D01*
X029929Y009169D02*
X030283Y009169D01*
X030283Y009560D02*
X029929Y009560D01*
X030283Y009560D02*
X030283Y009404D01*
X029929Y009404D01*
X029929Y009560D01*
X029929Y009484D02*
X030283Y009484D01*
X030283Y009875D02*
X029929Y009875D01*
X030283Y009875D02*
X030283Y009719D01*
X029929Y009719D01*
X029929Y009875D01*
X029929Y009799D02*
X030283Y009799D01*
X030283Y010189D02*
X029929Y010189D01*
X030283Y010189D02*
X030283Y010033D01*
X029929Y010033D01*
X029929Y010189D01*
X029929Y010113D02*
X030283Y010113D01*
X030283Y010504D02*
X029929Y010504D01*
X030283Y010504D02*
X030283Y010348D01*
X029929Y010348D01*
X029929Y010504D01*
X029929Y010428D02*
X030283Y010428D01*
X030283Y010819D02*
X029929Y010819D01*
X030283Y010819D02*
X030283Y010663D01*
X029929Y010663D01*
X029929Y010819D01*
X029929Y010743D02*
X030283Y010743D01*
X030283Y011134D02*
X029929Y011134D01*
X030283Y011134D02*
X030283Y010978D01*
X029929Y010978D01*
X029929Y011134D01*
X029929Y011058D02*
X030283Y011058D01*
X030283Y011449D02*
X029929Y011449D01*
X030283Y011449D02*
X030283Y011293D01*
X029929Y011293D01*
X029929Y011449D01*
X029929Y011373D02*
X030283Y011373D01*
X030283Y011764D02*
X029929Y011764D01*
X030283Y011764D02*
X030283Y011608D01*
X029929Y011608D01*
X029929Y011764D01*
X029929Y011688D02*
X030283Y011688D01*
X030283Y012079D02*
X029929Y012079D01*
X030283Y012079D02*
X030283Y011923D01*
X029929Y011923D01*
X029929Y012079D01*
X029929Y012003D02*
X030283Y012003D01*
X030283Y012394D02*
X029929Y012394D01*
X030283Y012394D02*
X030283Y012238D01*
X029929Y012238D01*
X029929Y012394D01*
X029929Y012318D02*
X030283Y012318D01*
X030283Y012709D02*
X029929Y012709D01*
X030283Y012709D02*
X030283Y012553D01*
X029929Y012553D01*
X029929Y012709D01*
X029929Y012633D02*
X030283Y012633D01*
X030283Y013024D02*
X029929Y013024D01*
X030283Y013024D02*
X030283Y012868D01*
X029929Y012868D01*
X029929Y013024D01*
X029929Y012948D02*
X030283Y012948D01*
X030283Y013339D02*
X029929Y013339D01*
X030283Y013339D02*
X030283Y013183D01*
X029929Y013183D01*
X029929Y013339D01*
X029929Y013263D02*
X030283Y013263D01*
X030283Y013654D02*
X029929Y013654D01*
X030283Y013654D02*
X030283Y013498D01*
X029929Y013498D01*
X029929Y013654D01*
X029929Y013578D02*
X030283Y013578D01*
X030283Y013969D02*
X029929Y013969D01*
X030283Y013969D02*
X030283Y013813D01*
X029929Y013813D01*
X029929Y013969D01*
X029929Y013893D02*
X030283Y013893D01*
X030283Y014284D02*
X029929Y014284D01*
X030283Y014284D02*
X030283Y014128D01*
X029929Y014128D01*
X029929Y014284D01*
X029929Y014208D02*
X030283Y014208D01*
X030283Y014599D02*
X029929Y014599D01*
X030283Y014599D02*
X030283Y014443D01*
X029929Y014443D01*
X029929Y014599D01*
X029929Y014523D02*
X030283Y014523D01*
X030283Y014914D02*
X029929Y014914D01*
X030283Y014914D02*
X030283Y014758D01*
X029929Y014758D01*
X029929Y014914D01*
X029929Y014838D02*
X030283Y014838D01*
X030283Y015229D02*
X029929Y015229D01*
X030283Y015229D02*
X030283Y015073D01*
X029929Y015073D01*
X029929Y015229D01*
X029929Y015153D02*
X030283Y015153D01*
D31*
X029051Y021608D03*
X029051Y023340D03*
D32*
X028555Y024616D02*
X027263Y024616D01*
X028555Y024616D02*
X028555Y023836D01*
X027263Y023836D01*
X027263Y024616D01*
X027263Y023922D02*
X028555Y023922D01*
X028555Y024008D02*
X027263Y024008D01*
X027263Y024094D02*
X028555Y024094D01*
X028555Y024180D02*
X027263Y024180D01*
X027263Y024266D02*
X028555Y024266D01*
X028555Y024352D02*
X027263Y024352D01*
X027263Y024438D02*
X028555Y024438D01*
X028555Y024524D02*
X027263Y024524D01*
X027263Y024610D02*
X028555Y024610D01*
X029743Y024616D02*
X030721Y024616D01*
X030721Y023836D01*
X029743Y023836D01*
X029743Y024616D01*
X029743Y023922D02*
X030721Y023922D01*
X030721Y024008D02*
X029743Y024008D01*
X029743Y024094D02*
X030721Y024094D01*
X030721Y024180D02*
X029743Y024180D01*
X029743Y024266D02*
X030721Y024266D01*
X030721Y024352D02*
X029743Y024352D01*
X029743Y024438D02*
X030721Y024438D01*
X030721Y024524D02*
X029743Y024524D01*
X029743Y024610D02*
X030721Y024610D01*
X030721Y021112D02*
X029743Y021112D01*
X030721Y021112D02*
X030721Y020332D01*
X029743Y020332D01*
X029743Y021112D01*
X029743Y020418D02*
X030721Y020418D01*
X030721Y020504D02*
X029743Y020504D01*
X029743Y020590D02*
X030721Y020590D01*
X030721Y020676D02*
X029743Y020676D01*
X029743Y020762D02*
X030721Y020762D01*
X030721Y020848D02*
X029743Y020848D01*
X029743Y020934D02*
X030721Y020934D01*
X030721Y021020D02*
X029743Y021020D01*
X029743Y021106D02*
X030721Y021106D01*
X028555Y021112D02*
X027263Y021112D01*
X028555Y021112D02*
X028555Y020332D01*
X027263Y020332D01*
X027263Y021112D01*
X027263Y020418D02*
X028555Y020418D01*
X028555Y020504D02*
X027263Y020504D01*
X027263Y020590D02*
X028555Y020590D01*
X028555Y020676D02*
X027263Y020676D01*
X027263Y020762D02*
X028555Y020762D01*
X028555Y020848D02*
X027263Y020848D01*
X027263Y020934D02*
X028555Y020934D01*
X028555Y021020D02*
X027263Y021020D01*
X027263Y021106D02*
X028555Y021106D01*
D33*
X003460Y005741D03*
X003460Y002592D03*
D34*
X004641Y001608D03*
X006610Y005741D03*
X009169Y010269D03*
X013106Y006135D03*
X013500Y007119D03*
X014287Y006726D03*
X015271Y006529D03*
X016452Y007119D03*
X017240Y007119D03*
X017830Y006332D03*
X019011Y006332D03*
X019602Y007119D03*
X019602Y007907D03*
X020586Y008300D03*
X020783Y007316D03*
X021570Y007316D03*
X023145Y006135D03*
X023933Y005741D03*
X024720Y005348D03*
X025507Y004954D03*
X026295Y004560D03*
X027082Y004167D03*
X028854Y004167D03*
X028854Y004954D03*
X028854Y006726D03*
X028854Y007710D03*
X028854Y009678D03*
X028854Y011056D03*
X026885Y007907D03*
X024917Y008300D03*
X024129Y009088D03*
X023145Y009285D03*
X024917Y010663D03*
X022751Y011647D03*
X021964Y011844D03*
X021964Y013025D03*
X022751Y013222D03*
X022751Y014403D03*
X021964Y015387D03*
X022751Y015978D03*
X021374Y016765D03*
X021374Y017552D03*
X022751Y017749D03*
X025114Y019718D03*
X025704Y019127D03*
X027279Y019718D03*
X026492Y021883D03*
X026492Y022867D03*
X024720Y023458D03*
X022555Y024049D03*
X018814Y020505D03*
X018421Y021096D03*
X018224Y021883D03*
X018224Y019915D03*
X018618Y019324D03*
X019208Y019915D03*
X019011Y017552D03*
X018421Y016765D03*
X018027Y015584D03*
X017043Y016371D03*
X016255Y016076D03*
X016255Y014993D03*
X016255Y013812D03*
X017043Y012828D03*
X018027Y012828D03*
X018027Y011844D03*
X019208Y011056D03*
X020192Y011056D03*
X020783Y011844D03*
X020980Y014206D03*
X018027Y014206D03*
X016255Y011844D03*
X013303Y010072D03*
X017437Y008104D03*
X016059Y004954D03*
X019405Y005151D03*
X021374Y005151D03*
X022358Y001804D03*
X030232Y015781D03*
X029248Y022277D03*
X016059Y020702D03*
X014877Y018930D03*
X010744Y020702D03*
X009759Y022671D03*
X008185Y022671D03*
M02*
