G75*
G70*
%OFA0B0*%
%FSLAX24Y24*%
%IPPOS*%
%LPD*%
%AMOC8*
5,1,8,0,0,1.08239X$1,22.5*
%
%ADD10C,0.0110*%
%ADD11C,0.0554*%
%ADD12C,0.0554*%
%ADD13R,0.0591X0.0512*%
%ADD14R,0.0512X0.0591*%
%ADD15OC8,0.0554*%
%ADD16C,0.1581*%
%ADD17R,0.0591X0.0630*%
%ADD18R,0.0098X0.0394*%
%ADD19R,0.0394X0.0098*%
%ADD20R,0.1575X0.1575*%
%ADD21C,0.1000*%
%ADD22R,0.0650X0.0650*%
%ADD23C,0.0650*%
%ADD24C,0.0945*%
%ADD25R,0.0866X0.0197*%
%ADD26C,0.1266*%
%ADD27R,0.0866X0.1024*%
%ADD28R,0.1024X0.0866*%
%ADD29R,0.0472X0.0197*%
%ADD30R,0.0354X0.0157*%
%ADD31R,0.0984X0.0787*%
%ADD32R,0.1299X0.0787*%
%ADD33R,0.1220X0.0197*%
%ADD34C,0.0098*%
%ADD35C,0.0531*%
%ADD36C,0.0436*%
%ADD37C,0.0500*%
%ADD38C,0.0160*%
%ADD39C,0.0560*%
%ADD40C,0.0320*%
%ADD41C,0.0400*%
%ADD42C,0.0100*%
D10*
X002305Y018939D02*
X002672Y018939D01*
X002672Y019306D02*
X002305Y019306D01*
X002121Y019122D01*
X002305Y018939D01*
X002397Y019546D02*
X002213Y019546D01*
X002121Y019638D01*
X002121Y019822D01*
X002213Y019913D01*
X002397Y019913D02*
X002488Y019730D01*
X002488Y019638D01*
X002397Y019546D01*
X002672Y019546D02*
X002672Y019913D01*
X002397Y019913D01*
X002397Y020154D02*
X002397Y020521D01*
X002580Y020338D02*
X002213Y020338D01*
D11*
X003061Y015312D02*
X003615Y015312D01*
X003615Y014312D02*
X003061Y014312D01*
X003061Y013312D02*
X003615Y013312D01*
X003615Y012312D02*
X003061Y012312D01*
X003061Y010194D02*
X003615Y010194D01*
X003615Y009194D02*
X003061Y009194D01*
X003061Y008194D02*
X003615Y008194D01*
X003615Y007194D02*
X003061Y007194D01*
X006061Y007194D02*
X006615Y007194D01*
X006615Y008194D02*
X006061Y008194D01*
X006061Y009194D02*
X006615Y009194D01*
X006615Y010194D02*
X006061Y010194D01*
X006061Y012312D02*
X006615Y012312D01*
X006615Y013312D02*
X006061Y013312D01*
X006061Y014312D02*
X006615Y014312D01*
X006615Y015312D02*
X006061Y015312D01*
D12*
X004196Y016399D03*
X003196Y016399D03*
X002476Y025911D03*
X002476Y026911D03*
X005468Y026804D03*
X006295Y026804D03*
X005468Y025820D03*
X007318Y026804D03*
X008145Y026804D03*
X008145Y025820D03*
X014101Y025820D03*
X015001Y025820D03*
X015901Y025820D03*
X016801Y025820D03*
X017701Y025820D03*
X017251Y024820D03*
X016351Y024820D03*
X015451Y024820D03*
X015451Y026820D03*
X014551Y026820D03*
X016351Y026820D03*
X017251Y026820D03*
X018151Y026820D03*
X018151Y024820D03*
X024366Y025820D03*
X024366Y026804D03*
X025192Y026804D03*
X026216Y026804D03*
X027043Y026804D03*
X027043Y025820D03*
D13*
X021570Y023438D03*
X021570Y022690D03*
X020783Y022690D03*
X019996Y022690D03*
X019996Y023438D03*
X020783Y023438D03*
X019208Y023438D03*
X018421Y023438D03*
X018421Y022690D03*
X019208Y022690D03*
X017633Y022690D03*
X016846Y022690D03*
X016846Y023438D03*
X017633Y023438D03*
X016059Y023438D03*
X015271Y023438D03*
X015271Y022690D03*
X016059Y022690D03*
X014484Y022690D03*
X013696Y022690D03*
X013696Y023438D03*
X014484Y023438D03*
X009366Y023478D03*
X009366Y024226D03*
X008185Y024226D03*
X008185Y023478D03*
X012122Y005328D03*
X012909Y005328D03*
X012909Y004580D03*
X012122Y004580D03*
X018039Y004777D03*
X018039Y005525D03*
X018421Y002572D03*
X018421Y001824D03*
X019208Y001824D03*
X019208Y002572D03*
X019996Y002572D03*
X019996Y001824D03*
X023145Y001824D03*
X023145Y002572D03*
X023933Y002572D03*
X023933Y001824D03*
X024720Y001824D03*
X024720Y002572D03*
X025507Y002572D03*
X025507Y001824D03*
X026295Y001824D03*
X026295Y002572D03*
X030035Y016588D03*
X030035Y017336D03*
D14*
X025881Y024245D03*
X025133Y024245D03*
X023913Y024245D03*
X023165Y024245D03*
X007181Y011253D03*
X006433Y011253D03*
X021000Y002986D03*
X021748Y002986D03*
X021748Y002001D03*
X021000Y002001D03*
D15*
X014551Y024820D03*
D16*
X011334Y025820D03*
X006610Y022867D03*
X005429Y020978D03*
X004248Y022867D03*
X002673Y028773D03*
X021177Y025820D03*
X029838Y028773D03*
X029838Y001608D03*
X002673Y001608D03*
D17*
X020673Y004178D03*
X022169Y004178D03*
X022169Y006186D03*
X020673Y006186D03*
D18*
X020586Y010072D03*
X020389Y010072D03*
X020192Y010072D03*
X019996Y010072D03*
X019799Y010072D03*
X019602Y010072D03*
X019405Y010072D03*
X019208Y010072D03*
X019011Y010072D03*
X018814Y010072D03*
X018618Y010072D03*
X018421Y010072D03*
X018224Y010072D03*
X018027Y010072D03*
X017830Y010072D03*
X017633Y010072D03*
X017437Y010072D03*
X017240Y010072D03*
X017043Y010072D03*
X016846Y010072D03*
X016649Y010072D03*
X016452Y010072D03*
X016255Y010072D03*
X016059Y010072D03*
X020783Y010072D03*
X020980Y010072D03*
X021177Y010072D03*
X021374Y010072D03*
X021570Y010072D03*
X021767Y010072D03*
X021964Y010072D03*
X022161Y010072D03*
X022358Y010072D03*
X022555Y010072D03*
X022751Y010072D03*
X022948Y010072D03*
X022948Y018537D03*
X022751Y018537D03*
X022555Y018537D03*
X022358Y018537D03*
X022161Y018537D03*
X021964Y018537D03*
X021767Y018537D03*
X021570Y018537D03*
X021374Y018537D03*
X021177Y018537D03*
X020980Y018537D03*
X020783Y018537D03*
X020586Y018537D03*
X020389Y018537D03*
X020192Y018537D03*
X019996Y018537D03*
X019799Y018537D03*
X019602Y018537D03*
X019405Y018537D03*
X019208Y018537D03*
X019011Y018537D03*
X018814Y018537D03*
X018618Y018537D03*
X018421Y018537D03*
X018224Y018537D03*
X018027Y018537D03*
X017830Y018537D03*
X017633Y018537D03*
X017437Y018537D03*
X017240Y018537D03*
X017043Y018537D03*
X016846Y018537D03*
X016649Y018537D03*
X016452Y018537D03*
X016255Y018537D03*
X016059Y018537D03*
D19*
X015271Y017749D03*
X015271Y017552D03*
X015271Y017356D03*
X015271Y017159D03*
X015271Y016962D03*
X015271Y016765D03*
X015271Y016568D03*
X015271Y016371D03*
X015271Y016174D03*
X015271Y015978D03*
X015271Y015781D03*
X015271Y015584D03*
X015271Y015387D03*
X015271Y015190D03*
X015271Y014993D03*
X015271Y014797D03*
X015271Y014600D03*
X015271Y014403D03*
X015271Y014206D03*
X015271Y014009D03*
X015271Y013812D03*
X015271Y013615D03*
X015271Y013419D03*
X015271Y013222D03*
X015271Y013025D03*
X015271Y012828D03*
X015271Y012631D03*
X015271Y012434D03*
X015271Y012237D03*
X015271Y012041D03*
X015271Y011844D03*
X015271Y011647D03*
X015271Y011450D03*
X015271Y011253D03*
X015271Y011056D03*
X015271Y010860D03*
X023736Y010860D03*
X023736Y011056D03*
X023736Y011253D03*
X023736Y011450D03*
X023736Y011647D03*
X023736Y011844D03*
X023736Y012041D03*
X023736Y012237D03*
X023736Y012434D03*
X023736Y012631D03*
X023736Y012828D03*
X023736Y013025D03*
X023736Y013222D03*
X023736Y013419D03*
X023736Y013615D03*
X023736Y013812D03*
X023736Y014009D03*
X023736Y014206D03*
X023736Y014403D03*
X023736Y014600D03*
X023736Y014797D03*
X023736Y014993D03*
X023736Y015190D03*
X023736Y015387D03*
X023736Y015584D03*
X023736Y015781D03*
X023736Y015978D03*
X023736Y016174D03*
X023736Y016371D03*
X023736Y016568D03*
X023736Y016765D03*
X023736Y016962D03*
X023736Y017159D03*
X023736Y017356D03*
X023736Y017552D03*
X023736Y017749D03*
D20*
X019503Y014304D03*
D21*
X013482Y018537D03*
X005600Y018537D03*
D22*
X014712Y002812D03*
X026129Y020702D03*
X023129Y022474D03*
D23*
X024129Y022474D03*
X025129Y022474D03*
X025129Y020702D03*
X024129Y020702D03*
X023129Y020702D03*
X022129Y020702D03*
X013712Y002812D03*
X013712Y001812D03*
X012712Y001812D03*
X011712Y001812D03*
X011712Y002812D03*
X012712Y002812D03*
X014712Y001812D03*
X010712Y001812D03*
X010712Y002812D03*
D24*
X006019Y004167D03*
X005232Y002986D03*
X005232Y005348D03*
D25*
X014423Y005098D03*
X014423Y005598D03*
X014423Y006098D03*
X014423Y004598D03*
X016907Y004598D03*
X016907Y005094D03*
X016907Y005594D03*
X016907Y006094D03*
D26*
X019503Y014304D03*
X023043Y027984D03*
X025703Y028304D03*
X028363Y027984D03*
X009465Y027984D03*
X006805Y028304D03*
X004145Y027984D03*
D27*
X007594Y005348D03*
X007594Y003379D03*
D28*
X007594Y001608D03*
X005626Y001608D03*
X028263Y019521D03*
X030232Y019521D03*
D29*
X012565Y013379D03*
X012565Y013064D03*
X012565Y012749D03*
X012565Y012434D03*
X012565Y012119D03*
X012565Y011804D03*
X012565Y011489D03*
X012565Y011174D03*
X012565Y010860D03*
X012565Y010545D03*
X012565Y010230D03*
X012565Y009915D03*
X012565Y009600D03*
X012565Y009285D03*
X012565Y008970D03*
X012565Y008655D03*
X012565Y008340D03*
X012565Y008025D03*
X012565Y007710D03*
X012565Y007395D03*
X012565Y007080D03*
X012565Y006765D03*
X008134Y006765D03*
X008134Y007080D03*
X008134Y007395D03*
X008134Y007710D03*
X008134Y008025D03*
X008134Y008340D03*
X008134Y008655D03*
X008134Y008970D03*
X008134Y009285D03*
X008134Y009600D03*
X008134Y009915D03*
X008134Y010230D03*
X008134Y010545D03*
X008134Y010860D03*
X008134Y011174D03*
X008134Y011489D03*
X008134Y011804D03*
X008134Y012119D03*
X008134Y012434D03*
X008134Y012749D03*
X008134Y013064D03*
X008134Y013379D03*
D30*
X025633Y013261D03*
X025633Y012946D03*
X025633Y012631D03*
X025633Y012316D03*
X025633Y012001D03*
X025633Y011686D03*
X025633Y011371D03*
X025633Y011056D03*
X025633Y010741D03*
X025633Y010426D03*
X025633Y010111D03*
X025633Y009797D03*
X025633Y009482D03*
X025633Y009167D03*
X025633Y008852D03*
X025633Y008537D03*
X025633Y008222D03*
X025633Y007907D03*
X025633Y007592D03*
X025633Y007277D03*
X025633Y006962D03*
X030106Y006962D03*
X030106Y007277D03*
X030106Y007592D03*
X030106Y007907D03*
X030106Y008222D03*
X030106Y008537D03*
X030106Y008852D03*
X030106Y009167D03*
X030106Y009482D03*
X030106Y009797D03*
X030106Y010111D03*
X030106Y010426D03*
X030106Y010741D03*
X030106Y011056D03*
X030106Y011371D03*
X030106Y011686D03*
X030106Y012001D03*
X030106Y012316D03*
X030106Y012631D03*
X030106Y012946D03*
X030106Y013261D03*
X030106Y013576D03*
X030106Y013891D03*
X030106Y014206D03*
X030106Y014521D03*
X030106Y014836D03*
X030106Y015151D03*
X025633Y015151D03*
X025633Y014836D03*
X025633Y014521D03*
X025633Y014206D03*
X025633Y013891D03*
X025633Y013576D03*
D31*
X030232Y020722D03*
X030232Y024226D03*
D32*
X027909Y024226D03*
X027909Y020722D03*
D33*
X027870Y021844D03*
X027870Y022159D03*
X027870Y022474D03*
X027870Y022789D03*
X027870Y023104D03*
D34*
X001741Y029705D02*
X001741Y000676D01*
X013951Y000676D01*
X013881Y000746D01*
X013306Y001321D01*
X013233Y001497D01*
X013233Y001600D01*
X013212Y001651D01*
X013156Y001516D01*
X013009Y001368D01*
X012816Y001289D01*
X012608Y001289D01*
X012416Y001368D01*
X012268Y001516D01*
X012212Y001651D01*
X012156Y001516D01*
X012009Y001368D01*
X011816Y001289D01*
X011608Y001289D01*
X011416Y001368D01*
X011268Y001516D01*
X011189Y001708D01*
X011189Y001916D01*
X011268Y002109D01*
X011416Y002256D01*
X011551Y002312D01*
X011416Y002368D01*
X011268Y002516D01*
X011212Y002651D01*
X011156Y002516D01*
X011009Y002368D01*
X010816Y002289D01*
X010608Y002289D01*
X010416Y002368D01*
X010268Y002516D01*
X010189Y002708D01*
X010189Y002916D01*
X010268Y003109D01*
X010416Y003256D01*
X010608Y003336D01*
X010816Y003336D01*
X011009Y003256D01*
X011156Y003109D01*
X011212Y002973D01*
X011268Y003109D01*
X011416Y003256D01*
X011608Y003336D01*
X011816Y003336D01*
X012009Y003256D01*
X012156Y003109D01*
X012212Y002973D01*
X012268Y003109D01*
X012416Y003256D01*
X012608Y003336D01*
X012816Y003336D01*
X013009Y003256D01*
X013156Y003109D01*
X013212Y002973D01*
X013268Y003109D01*
X013416Y003256D01*
X013608Y003336D01*
X013816Y003336D01*
X014009Y003256D01*
X014156Y003109D01*
X014189Y003030D01*
X014189Y003219D01*
X014305Y003336D01*
X015119Y003336D01*
X015236Y003219D01*
X015236Y002405D01*
X015119Y002289D01*
X014305Y002289D01*
X014189Y002405D01*
X014189Y002594D01*
X014156Y002516D01*
X014009Y002368D01*
X013873Y002312D01*
X014009Y002256D01*
X014156Y002109D01*
X014236Y001916D01*
X014236Y001745D01*
X014244Y001737D01*
X014240Y001763D01*
X014663Y001763D01*
X014663Y001861D01*
X014240Y001861D01*
X014250Y001923D01*
X014273Y001994D01*
X014307Y002061D01*
X014351Y002121D01*
X014403Y002174D01*
X014464Y002218D01*
X014530Y002252D01*
X014601Y002275D01*
X014663Y002284D01*
X014663Y001862D01*
X014761Y001862D01*
X014761Y002284D01*
X014823Y002275D01*
X014894Y002252D01*
X014961Y002218D01*
X015021Y002174D01*
X015074Y002121D01*
X015118Y002061D01*
X015151Y001994D01*
X015174Y001923D01*
X015184Y001861D01*
X014761Y001861D01*
X014761Y001763D01*
X015184Y001763D01*
X015174Y001701D01*
X015151Y001630D01*
X015118Y001564D01*
X015074Y001503D01*
X015066Y001496D01*
X016003Y001496D01*
X016003Y003193D01*
X015050Y004147D01*
X014982Y004312D01*
X014982Y004319D01*
X014957Y004319D01*
X014939Y004300D01*
X013908Y004300D01*
X013889Y004319D01*
X013403Y004319D01*
X013403Y004242D01*
X013287Y004125D01*
X012531Y004125D01*
X012515Y004141D01*
X012499Y004125D01*
X011744Y004125D01*
X011627Y004242D01*
X011627Y004918D01*
X011701Y004991D01*
X011687Y005015D01*
X011677Y005052D01*
X011677Y005279D01*
X012072Y005279D01*
X012072Y005377D01*
X011677Y005377D01*
X011677Y005604D01*
X011687Y005641D01*
X011707Y005676D01*
X011735Y005703D01*
X011769Y005723D01*
X011807Y005733D01*
X012072Y005733D01*
X012072Y005377D01*
X012171Y005377D01*
X012171Y005733D01*
X012436Y005733D01*
X012472Y005724D01*
X012531Y005783D01*
X012869Y005783D01*
X012753Y005899D01*
X012689Y006052D01*
X012689Y006218D01*
X012753Y006371D01*
X012849Y006468D01*
X012247Y006468D01*
X012130Y006584D01*
X012130Y006899D01*
X012130Y007214D01*
X012130Y007529D01*
X012130Y007844D01*
X012130Y008159D01*
X012130Y008474D01*
X012130Y008789D01*
X012130Y009151D01*
X012130Y009419D01*
X012130Y009734D01*
X012130Y010095D01*
X012180Y010145D01*
X012180Y010229D01*
X012565Y010229D01*
X012565Y010230D01*
X012180Y010230D01*
X012180Y010314D01*
X012130Y010364D01*
X012130Y010679D01*
X012130Y010994D01*
X012130Y011309D01*
X012130Y011624D01*
X012130Y011939D01*
X012130Y012254D01*
X012130Y012569D01*
X012130Y012883D01*
X012130Y013198D01*
X012130Y013470D01*
X011779Y013119D01*
X011779Y008842D01*
X011741Y008751D01*
X011671Y008681D01*
X011671Y008681D01*
X010245Y007254D01*
X010245Y007254D01*
X010175Y007185D01*
X010084Y007147D01*
X008569Y007147D01*
X008569Y006946D01*
X008569Y006584D01*
X008453Y006468D01*
X007816Y006468D01*
X007699Y006584D01*
X007699Y006946D01*
X007699Y007261D01*
X007699Y007576D01*
X007699Y007891D01*
X007699Y008206D01*
X007699Y008521D01*
X007699Y008836D01*
X007699Y009151D01*
X007699Y009465D01*
X007699Y009780D01*
X007749Y009830D01*
X007749Y009914D01*
X008134Y009914D01*
X008134Y009915D01*
X007749Y009915D01*
X007749Y009999D01*
X007699Y010049D01*
X007699Y010410D01*
X007699Y010725D01*
X007699Y010896D01*
X007635Y010896D01*
X007635Y010876D01*
X007519Y010759D01*
X006842Y010759D01*
X006769Y010832D01*
X006746Y010819D01*
X006708Y010809D01*
X006482Y010809D01*
X006482Y011204D01*
X006383Y011204D01*
X006027Y011204D01*
X006027Y010938D01*
X006038Y010900D01*
X006057Y010866D01*
X006085Y010839D01*
X006119Y010819D01*
X006157Y010809D01*
X006383Y010809D01*
X006383Y011204D01*
X006383Y011302D01*
X006027Y011302D01*
X006027Y011568D01*
X006038Y011606D01*
X006057Y011640D01*
X006085Y011668D01*
X006119Y011688D01*
X006157Y011698D01*
X006383Y011698D01*
X006383Y011303D01*
X006482Y011303D01*
X006482Y011698D01*
X006708Y011698D01*
X006746Y011688D01*
X006769Y011674D01*
X006842Y011747D01*
X007519Y011747D01*
X007635Y011631D01*
X007635Y011453D01*
X007699Y011453D01*
X007699Y011670D01*
X007699Y011985D01*
X007699Y012300D01*
X007699Y012615D01*
X007699Y012930D01*
X007699Y013245D01*
X007699Y013560D01*
X007816Y013676D01*
X008453Y013676D01*
X008527Y013602D01*
X008527Y016027D01*
X008565Y016118D01*
X008635Y016188D01*
X009225Y016778D01*
X009316Y016816D01*
X009415Y016816D01*
X012806Y016816D01*
X013753Y017763D01*
X013844Y017800D01*
X013943Y017800D01*
X014876Y017800D01*
X014876Y017881D01*
X014992Y017997D01*
X015222Y017997D01*
X015616Y017997D01*
X015714Y017997D01*
X015805Y017960D01*
X016199Y017566D01*
X016269Y017496D01*
X016307Y017405D01*
X016307Y016816D01*
X016895Y016816D01*
X016964Y016788D01*
X017126Y016788D01*
X017279Y016724D01*
X017396Y016607D01*
X017459Y016454D01*
X017459Y016288D01*
X017396Y016135D01*
X017279Y016018D01*
X017126Y015955D01*
X016960Y015955D01*
X016807Y016018D01*
X016690Y016135D01*
X016626Y016288D01*
X016626Y016320D01*
X016600Y016320D01*
X016609Y016312D01*
X016672Y016159D01*
X016672Y015993D01*
X016609Y015840D01*
X016491Y015723D01*
X016338Y015659D01*
X016173Y015659D01*
X016019Y015723D01*
X015902Y015840D01*
X015866Y015926D01*
X015653Y015926D01*
X015667Y015912D01*
X015667Y015715D01*
X015667Y015519D01*
X015667Y015438D01*
X016108Y015438D01*
X016176Y015410D01*
X016338Y015410D01*
X016491Y015347D01*
X016609Y015229D01*
X016672Y015076D01*
X016672Y014910D01*
X016609Y014757D01*
X016491Y014640D01*
X016338Y014577D01*
X016173Y014577D01*
X016019Y014640D01*
X015902Y014757D01*
X015839Y014910D01*
X015839Y014942D01*
X015653Y014942D01*
X015667Y014928D01*
X015667Y014731D01*
X015667Y014534D01*
X015667Y014338D01*
X015667Y014074D01*
X015667Y013944D01*
X015667Y013863D01*
X015839Y013863D01*
X015839Y013895D01*
X015902Y014048D01*
X016019Y014165D01*
X016173Y014229D01*
X016338Y014229D01*
X016491Y014165D01*
X016609Y014048D01*
X016672Y013895D01*
X016672Y013729D01*
X016609Y013576D01*
X016491Y013459D01*
X016338Y013396D01*
X016176Y013396D01*
X016108Y013367D01*
X015653Y013367D01*
X015667Y013353D01*
X015667Y013156D01*
X015667Y013076D01*
X016702Y013076D01*
X016807Y013181D01*
X016960Y013245D01*
X017126Y013245D01*
X017279Y013181D01*
X017396Y013064D01*
X017459Y012911D01*
X017459Y012745D01*
X017396Y012592D01*
X017279Y012475D01*
X017126Y012411D01*
X016960Y012411D01*
X016807Y012475D01*
X016702Y012580D01*
X015667Y012580D01*
X015667Y012566D01*
X015667Y012369D01*
X015667Y012172D01*
X015667Y012092D01*
X015914Y012092D01*
X016019Y012197D01*
X016173Y012260D01*
X016338Y012260D01*
X016491Y012197D01*
X016609Y012080D01*
X016672Y011927D01*
X016672Y011761D01*
X016609Y011608D01*
X016491Y011491D01*
X016338Y011427D01*
X016173Y011427D01*
X016019Y011491D01*
X015914Y011596D01*
X015653Y011596D01*
X015667Y011582D01*
X015667Y011385D01*
X015667Y011188D01*
X015667Y010991D01*
X015667Y010728D01*
X015550Y010611D01*
X014992Y010611D01*
X014980Y010611D01*
X014535Y010166D01*
X014535Y009432D01*
X014497Y009341D01*
X014427Y009271D01*
X014059Y008903D01*
X014932Y008903D01*
X015811Y009781D01*
X015811Y009793D01*
X015811Y010351D01*
X015927Y010468D01*
X016124Y010468D01*
X016321Y010468D01*
X016518Y010468D01*
X016598Y010468D01*
X016598Y010613D01*
X016598Y010712D01*
X016636Y010803D01*
X017610Y011778D01*
X017610Y011927D01*
X017674Y012080D01*
X017791Y012197D01*
X017944Y012260D01*
X018110Y012260D01*
X018263Y012197D01*
X018380Y012080D01*
X018444Y011927D01*
X018444Y011761D01*
X018380Y011608D01*
X018263Y011491D01*
X018110Y011427D01*
X017961Y011427D01*
X017094Y010560D01*
X017094Y010468D01*
X017108Y010468D01*
X017371Y010468D01*
X017502Y010468D01*
X017699Y010468D01*
X017896Y010468D01*
X018092Y010468D01*
X018289Y010468D01*
X018486Y010468D01*
X018683Y010468D01*
X018880Y010468D01*
X018960Y010468D01*
X018960Y010715D01*
X018855Y010820D01*
X018792Y010973D01*
X018792Y011139D01*
X018855Y011292D01*
X018972Y011410D01*
X019125Y011473D01*
X019291Y011473D01*
X019444Y011410D01*
X019561Y011292D01*
X019625Y011139D01*
X019625Y010973D01*
X019561Y010820D01*
X019456Y010715D01*
X019456Y010468D01*
X019537Y010468D01*
X019586Y010418D01*
X019602Y010418D01*
X019602Y010403D01*
X019602Y010402D01*
X019602Y010403D01*
X019602Y010418D01*
X019618Y010418D01*
X019667Y010468D01*
X019930Y010468D01*
X019980Y010418D01*
X019995Y010418D01*
X019995Y010403D01*
X019996Y010402D01*
X019996Y010403D01*
X019996Y010418D01*
X020011Y010418D01*
X020061Y010468D01*
X020258Y010468D01*
X020455Y010468D01*
X020627Y010468D01*
X020402Y010692D01*
X020275Y010640D01*
X020110Y010640D01*
X019956Y010703D01*
X019839Y010820D01*
X019776Y010973D01*
X019776Y011139D01*
X019839Y011292D01*
X019956Y011410D01*
X020110Y011473D01*
X020275Y011473D01*
X020428Y011410D01*
X020546Y011292D01*
X020575Y011221D01*
X020600Y011197D01*
X020600Y011197D01*
X021120Y010676D01*
X021120Y010676D01*
X021190Y010606D01*
X021228Y010515D01*
X021228Y010454D01*
X021242Y010468D01*
X021322Y010468D01*
X021322Y010757D01*
X020618Y011461D01*
X020547Y011491D01*
X020430Y011608D01*
X020366Y011761D01*
X020366Y011927D01*
X020430Y012080D01*
X020547Y012197D01*
X020700Y012260D01*
X020866Y012260D01*
X021019Y012197D01*
X021136Y012080D01*
X021200Y011927D01*
X021200Y011761D01*
X021147Y011634D01*
X021711Y011070D01*
X021781Y011000D01*
X021818Y010909D01*
X021818Y010468D01*
X021833Y010468D01*
X022096Y010468D01*
X022226Y010468D01*
X022423Y010468D01*
X022620Y010468D01*
X022883Y010468D01*
X022933Y010418D01*
X022948Y010418D01*
X022948Y010403D01*
X022949Y010402D01*
X022949Y010418D01*
X023017Y010418D01*
X023055Y010408D01*
X023089Y010388D01*
X023117Y010361D01*
X023137Y010327D01*
X023147Y010289D01*
X023147Y010072D01*
X022999Y010072D01*
X022999Y010072D01*
X023147Y010072D01*
X023147Y009856D01*
X023137Y009818D01*
X023117Y009784D01*
X023089Y009756D01*
X023055Y009736D01*
X023047Y009734D01*
X023079Y009701D01*
X023228Y009701D01*
X023381Y009638D01*
X023498Y009521D01*
X023562Y009368D01*
X023562Y009202D01*
X023498Y009049D01*
X023381Y008932D01*
X023228Y008868D01*
X023125Y008868D01*
X027223Y004771D01*
X027292Y004701D01*
X027330Y004610D01*
X027330Y004508D01*
X027435Y004403D01*
X027499Y004249D01*
X027499Y004084D01*
X027435Y003931D01*
X027318Y003813D01*
X027165Y003750D01*
X027016Y003750D01*
X026543Y003276D01*
X026543Y003027D01*
X026672Y003027D01*
X026789Y002910D01*
X026789Y002234D01*
X026753Y002198D01*
X026789Y002162D01*
X026789Y001598D01*
X028375Y003184D01*
X028375Y005049D01*
X028448Y005225D01*
X028583Y005360D01*
X028759Y005433D01*
X028949Y005433D01*
X029125Y005360D01*
X029260Y005225D01*
X029333Y005049D01*
X029333Y002890D01*
X029260Y002714D01*
X029125Y002580D01*
X029125Y002580D01*
X027291Y000746D01*
X027291Y000746D01*
X027221Y000676D01*
X030770Y000676D01*
X030770Y018941D01*
X030763Y018939D01*
X030281Y018939D01*
X030281Y019472D01*
X030183Y019472D01*
X030183Y018939D01*
X029700Y018939D01*
X029662Y018949D01*
X029628Y018968D01*
X029601Y018996D01*
X029581Y019030D01*
X029571Y019068D01*
X029571Y019472D01*
X030182Y019472D01*
X030182Y019570D01*
X029571Y019570D01*
X029571Y019974D01*
X029581Y020012D01*
X029601Y020046D01*
X029628Y020073D01*
X029662Y020093D01*
X029700Y020103D01*
X030183Y020103D01*
X030183Y019570D01*
X030281Y019570D01*
X030281Y020103D01*
X030763Y020103D01*
X030770Y020101D01*
X030770Y029705D01*
X026785Y029705D01*
X026872Y029618D01*
X026872Y029618D01*
X027297Y029193D01*
X027297Y029193D01*
X027423Y029066D01*
X027492Y028902D01*
X027492Y026965D01*
X027519Y026899D01*
X027519Y026710D01*
X027446Y026535D01*
X027312Y026401D01*
X027138Y026328D01*
X026948Y026328D01*
X026773Y026401D01*
X026639Y026535D01*
X026629Y026559D01*
X026620Y026535D01*
X026486Y026401D01*
X026311Y026328D01*
X026121Y026328D01*
X025946Y026401D01*
X025813Y026535D01*
X025740Y026710D01*
X025740Y026899D01*
X025813Y027074D01*
X025946Y027208D01*
X026121Y027280D01*
X026311Y027280D01*
X026486Y027208D01*
X026594Y027100D01*
X026594Y028626D01*
X026306Y028915D01*
X008961Y028915D01*
X008633Y028587D01*
X008633Y026933D01*
X008633Y026754D01*
X014075Y026754D01*
X014075Y026725D02*
X014148Y026551D01*
X014281Y026417D01*
X014456Y026344D01*
X014646Y026344D01*
X014821Y026417D01*
X014955Y026551D01*
X015001Y026663D01*
X015048Y026551D01*
X015181Y026417D01*
X015356Y026344D01*
X015546Y026344D01*
X015721Y026417D01*
X015855Y026551D01*
X015901Y026663D01*
X015948Y026551D01*
X016081Y026417D01*
X016256Y026344D01*
X016446Y026344D01*
X016621Y026417D01*
X016755Y026551D01*
X016801Y026663D01*
X016848Y026551D01*
X016981Y026417D01*
X017156Y026344D01*
X017346Y026344D01*
X017521Y026417D01*
X017655Y026551D01*
X017701Y026663D01*
X017748Y026551D01*
X017881Y026417D01*
X018056Y026344D01*
X018246Y026344D01*
X018421Y026417D01*
X018536Y026532D01*
X018536Y025371D01*
X018578Y025269D01*
X018657Y025190D01*
X019954Y023893D01*
X019618Y023893D01*
X019602Y023877D01*
X019586Y023893D01*
X018831Y023893D01*
X018814Y023877D01*
X018798Y023893D01*
X018700Y023893D01*
X018700Y023907D01*
X018657Y024010D01*
X018579Y024088D01*
X018382Y024285D01*
X018279Y024327D01*
X018168Y024327D01*
X017158Y024327D01*
X017131Y024355D01*
X017156Y024344D01*
X017346Y024344D01*
X017521Y024417D01*
X017655Y024551D01*
X017727Y024725D01*
X017727Y024772D01*
X017735Y024720D01*
X017756Y024656D01*
X017786Y024597D01*
X017826Y024542D01*
X017873Y024495D01*
X017928Y024455D01*
X017987Y024425D01*
X018051Y024404D01*
X018112Y024395D01*
X018112Y024781D01*
X018190Y024781D01*
X018190Y024395D01*
X018251Y024404D01*
X018315Y024425D01*
X018375Y024455D01*
X018429Y024495D01*
X018476Y024542D01*
X018516Y024597D01*
X018546Y024656D01*
X018567Y024720D01*
X018576Y024781D01*
X018191Y024781D01*
X018191Y024860D01*
X018576Y024860D01*
X018567Y024920D01*
X018546Y024984D01*
X018516Y025044D01*
X018476Y025098D01*
X018429Y025145D01*
X018375Y025185D01*
X018315Y025215D01*
X018251Y025236D01*
X018190Y025246D01*
X018190Y024860D01*
X018112Y024860D01*
X018112Y025246D01*
X018051Y025236D01*
X017987Y025215D01*
X017928Y025185D01*
X017873Y025145D01*
X017826Y025098D01*
X017786Y025044D01*
X017756Y024984D01*
X017735Y024920D01*
X017727Y024868D01*
X017727Y024915D01*
X017655Y025090D01*
X017521Y025224D01*
X017346Y025296D01*
X017156Y025296D01*
X016981Y025224D01*
X016848Y025090D01*
X016801Y024977D01*
X016755Y025090D01*
X016621Y025224D01*
X016446Y025296D01*
X016256Y025296D01*
X016081Y025224D01*
X015948Y025090D01*
X015901Y024977D01*
X015855Y025090D01*
X015721Y025224D01*
X015546Y025296D01*
X015356Y025296D01*
X015181Y025224D01*
X015048Y025090D01*
X015020Y025024D01*
X014748Y025296D01*
X014354Y025296D01*
X014075Y025017D01*
X014075Y024623D01*
X014272Y024426D01*
X014272Y023893D01*
X014106Y023893D01*
X014090Y023877D01*
X014074Y023893D01*
X013319Y023893D01*
X013202Y023776D01*
X013202Y023100D01*
X013238Y023064D01*
X013202Y023028D01*
X013202Y022352D01*
X013319Y022236D01*
X013448Y022236D01*
X013448Y022227D01*
X013486Y022136D01*
X014274Y021349D01*
X014343Y021279D01*
X014434Y021241D01*
X015956Y021241D01*
X016046Y021151D01*
X010654Y021151D01*
X010489Y021083D01*
X010363Y020956D01*
X010295Y020791D01*
X010295Y020613D01*
X010363Y020448D01*
X010489Y020322D01*
X010654Y020253D01*
X016148Y020253D01*
X016313Y020322D01*
X016439Y020448D01*
X016507Y020613D01*
X016507Y020690D01*
X016598Y020599D01*
X016598Y019726D01*
X016269Y020055D01*
X016199Y020125D01*
X016108Y020163D01*
X010453Y020163D01*
X010007Y020608D01*
X010007Y022329D01*
X010113Y022435D01*
X010176Y022588D01*
X010176Y022753D01*
X010113Y022907D01*
X009995Y023024D01*
X009842Y023087D01*
X009807Y023087D01*
X009860Y023139D01*
X009860Y023816D01*
X009824Y023852D01*
X009860Y023887D01*
X009860Y024564D01*
X009743Y024680D01*
X009644Y024680D01*
X009644Y024694D01*
X009602Y024797D01*
X009208Y025191D01*
X009130Y025269D01*
X009027Y025312D01*
X007906Y025312D01*
X006692Y026526D01*
X006692Y026528D01*
X006698Y026535D01*
X006771Y026710D01*
X006771Y026899D01*
X006698Y027074D01*
X006564Y027208D01*
X006389Y027280D01*
X006200Y027280D01*
X006025Y027208D01*
X005891Y027074D01*
X005854Y026985D01*
X005833Y027028D01*
X005793Y027082D01*
X005746Y027130D01*
X005691Y027169D01*
X005632Y027200D01*
X005568Y027220D01*
X005507Y027230D01*
X005507Y026844D01*
X005429Y026844D01*
X005429Y027230D01*
X005368Y027220D01*
X005304Y027200D01*
X005245Y027169D01*
X005190Y027130D01*
X005143Y027082D01*
X005103Y027028D01*
X005073Y026968D01*
X005052Y026904D01*
X005043Y026844D01*
X005428Y026844D01*
X005428Y026765D01*
X005043Y026765D01*
X005052Y026705D01*
X005073Y026641D01*
X005103Y026581D01*
X005143Y026527D01*
X005190Y026479D01*
X005245Y026440D01*
X005304Y026409D01*
X005368Y026389D01*
X005429Y026379D01*
X005429Y026765D01*
X005507Y026765D01*
X005507Y026379D01*
X005568Y026389D01*
X005632Y026409D01*
X005691Y026440D01*
X005746Y026479D01*
X005793Y026527D01*
X005833Y026581D01*
X005854Y026624D01*
X005891Y026535D01*
X006025Y026401D01*
X006134Y026356D01*
X006134Y026355D01*
X006177Y026253D01*
X006255Y026174D01*
X007633Y024796D01*
X007735Y024754D01*
X007846Y024754D01*
X008856Y024754D01*
X008959Y024651D01*
X008872Y024564D01*
X008872Y023887D01*
X008907Y023852D01*
X008872Y023816D01*
X008872Y023139D01*
X008988Y023023D01*
X009107Y023023D01*
X009107Y022989D01*
X009149Y022887D01*
X009343Y022693D01*
X009343Y022588D01*
X009406Y022435D01*
X009511Y022329D01*
X009511Y021694D01*
X008601Y022605D01*
X008601Y022753D01*
X008538Y022907D01*
X008463Y022981D01*
X008463Y023023D01*
X008562Y023023D01*
X008679Y023139D01*
X008679Y023816D01*
X008643Y023852D01*
X008679Y023887D01*
X008679Y024564D01*
X008562Y024680D01*
X007807Y024680D01*
X007690Y024564D01*
X007690Y024543D01*
X006256Y025978D01*
X006177Y026056D01*
X006075Y026099D01*
X005862Y026099D01*
X005738Y026224D01*
X005563Y026296D01*
X005373Y026296D01*
X005198Y026224D01*
X005064Y026090D01*
X004992Y025915D01*
X004992Y025725D01*
X005064Y025551D01*
X005198Y025417D01*
X005373Y025344D01*
X005563Y025344D01*
X005738Y025417D01*
X005862Y025541D01*
X005904Y025541D01*
X007456Y023989D01*
X007558Y023947D01*
X007669Y023947D01*
X007690Y023947D01*
X007690Y023887D01*
X007726Y023852D01*
X007690Y023816D01*
X007690Y023139D01*
X007807Y023023D01*
X007906Y023023D01*
X007906Y022981D01*
X007831Y022907D01*
X007768Y022753D01*
X007768Y022588D01*
X007831Y022435D01*
X007949Y022317D01*
X008102Y022254D01*
X008250Y022254D01*
X009314Y021190D01*
X009314Y020259D01*
X009352Y020168D01*
X009422Y020098D01*
X010013Y019508D01*
X010104Y019470D01*
X010202Y019470D01*
X015759Y019470D01*
X015854Y019375D01*
X015025Y019375D01*
X014957Y019347D01*
X014795Y019347D01*
X014641Y019284D01*
X014524Y019166D01*
X014461Y019013D01*
X014461Y018847D01*
X014524Y018694D01*
X014641Y018577D01*
X014795Y018514D01*
X014960Y018514D01*
X015113Y018577D01*
X015231Y018694D01*
X015294Y018847D01*
X015294Y018879D01*
X015956Y018879D01*
X015960Y018875D01*
X015952Y018873D01*
X015918Y018853D01*
X015890Y018825D01*
X015870Y018791D01*
X015860Y018753D01*
X015860Y018537D01*
X016007Y018537D01*
X016007Y018536D01*
X015860Y018536D01*
X015860Y018320D01*
X015870Y018282D01*
X015890Y018248D01*
X015918Y018220D01*
X015952Y018201D01*
X015990Y018191D01*
X016058Y018191D01*
X016058Y018207D01*
X016059Y018206D01*
X016059Y018191D01*
X016074Y018191D01*
X016124Y018141D01*
X016387Y018141D01*
X016584Y018141D01*
X016781Y018141D01*
X016911Y018141D01*
X016992Y018141D01*
X016992Y017897D01*
X017029Y017806D01*
X017099Y017736D01*
X016029Y017736D01*
X016126Y017639D02*
X017196Y017639D01*
X017099Y017736D02*
X018004Y016831D01*
X018004Y016682D01*
X018068Y016529D01*
X018185Y016412D01*
X018338Y016348D01*
X018504Y016348D01*
X018657Y016412D01*
X018774Y016529D01*
X018837Y016682D01*
X018837Y016848D01*
X018774Y017001D01*
X018657Y017118D01*
X018504Y017182D01*
X018355Y017182D01*
X017488Y018049D01*
X017488Y018141D01*
X017568Y018141D01*
X017765Y018141D01*
X017962Y018141D01*
X018159Y018141D01*
X018289Y018141D01*
X018552Y018141D01*
X018763Y018141D01*
X018763Y017894D01*
X018658Y017788D01*
X018595Y017635D01*
X018595Y017470D01*
X018658Y017316D01*
X018775Y017199D01*
X018928Y017136D01*
X019094Y017136D01*
X019247Y017199D01*
X019364Y017316D01*
X019428Y017470D01*
X019428Y017635D01*
X019364Y017788D01*
X019259Y017894D01*
X019259Y018141D01*
X019340Y018141D01*
X019537Y018141D01*
X019733Y018141D01*
X019930Y018141D01*
X020127Y018141D01*
X020324Y018141D01*
X020521Y018141D01*
X020718Y018141D01*
X020915Y018141D01*
X021111Y018141D01*
X021126Y018155D01*
X021126Y017894D01*
X021020Y017788D01*
X020957Y017635D01*
X020957Y017470D01*
X021020Y017316D01*
X021138Y017199D01*
X021235Y017159D01*
X021138Y017118D01*
X021020Y017001D01*
X020957Y016848D01*
X020957Y016682D01*
X021020Y016529D01*
X021138Y016412D01*
X021291Y016348D01*
X021456Y016348D01*
X021610Y016412D01*
X021727Y016529D01*
X021790Y016682D01*
X021790Y016831D01*
X022105Y017145D01*
X022174Y017215D01*
X022212Y017306D01*
X022212Y018141D01*
X022292Y018141D01*
X022489Y018141D01*
X022686Y018141D01*
X022883Y018141D01*
X023080Y018141D01*
X023196Y018257D01*
X023196Y018816D01*
X023196Y018828D01*
X023244Y018875D01*
X024121Y017997D01*
X023686Y017997D01*
X023457Y017997D01*
X023340Y017881D01*
X023340Y017618D01*
X023340Y017421D01*
X023340Y017224D01*
X023340Y017027D01*
X023340Y016830D01*
X023340Y016633D01*
X023340Y016437D01*
X023340Y016240D01*
X023340Y016043D01*
X023354Y016029D01*
X023168Y016029D01*
X023168Y016061D01*
X023105Y016214D01*
X022987Y016331D01*
X022834Y016394D01*
X022669Y016394D01*
X022515Y016331D01*
X022398Y016214D01*
X022335Y016061D01*
X022335Y015895D01*
X022398Y015742D01*
X022505Y015635D01*
X022305Y015635D01*
X022200Y015740D01*
X022047Y015804D01*
X021881Y015804D01*
X021728Y015740D01*
X021611Y015623D01*
X021547Y015470D01*
X021547Y015304D01*
X021611Y015151D01*
X021728Y015034D01*
X021881Y014970D01*
X022047Y014970D01*
X022200Y015034D01*
X022305Y015139D01*
X022998Y015139D01*
X023089Y015177D01*
X023159Y015247D01*
X023248Y015336D01*
X023340Y015336D01*
X023340Y015256D01*
X023340Y015059D01*
X023340Y014862D01*
X023354Y014848D01*
X022998Y014848D01*
X022899Y014848D01*
X022831Y014819D01*
X022669Y014819D01*
X022515Y014756D01*
X022398Y014639D01*
X022335Y014486D01*
X022335Y014320D01*
X022398Y014167D01*
X022515Y014050D01*
X022669Y013986D01*
X022834Y013986D01*
X022987Y014050D01*
X023105Y014167D01*
X023168Y014320D01*
X023168Y014352D01*
X023340Y014352D01*
X023340Y014271D01*
X023340Y014074D01*
X023340Y013878D01*
X023340Y013681D01*
X023340Y013484D01*
X023340Y013287D01*
X023340Y013090D01*
X023354Y013076D01*
X023248Y013076D01*
X023168Y013156D01*
X023168Y013305D01*
X023105Y013458D01*
X022987Y013575D01*
X022834Y013638D01*
X022669Y013638D01*
X022515Y013575D01*
X022398Y013458D01*
X022335Y013305D01*
X022335Y013218D01*
X022317Y013261D01*
X022200Y013378D01*
X022047Y013441D01*
X021881Y013441D01*
X021728Y013378D01*
X021611Y013261D01*
X021547Y013108D01*
X021547Y012942D01*
X021611Y012789D01*
X021728Y012672D01*
X021881Y012608D01*
X022030Y012608D01*
X022148Y012491D01*
X022217Y012421D01*
X022308Y012383D01*
X022846Y012383D01*
X023005Y012224D01*
X023096Y012186D01*
X023195Y012186D01*
X023340Y012186D01*
X023340Y012106D01*
X023340Y011909D01*
X023340Y011712D01*
X023354Y011698D01*
X023248Y011698D01*
X023134Y011812D01*
X023105Y011883D01*
X022987Y012000D01*
X022834Y012064D01*
X022669Y012064D01*
X022515Y012000D01*
X022398Y011883D01*
X022381Y011840D01*
X022381Y011927D01*
X022317Y012080D01*
X022200Y012197D01*
X022047Y012260D01*
X021881Y012260D01*
X021728Y012197D01*
X021611Y012080D01*
X021547Y011927D01*
X021547Y011761D01*
X021611Y011608D01*
X021728Y011491D01*
X021799Y011461D01*
X022344Y010916D01*
X022414Y010846D01*
X022505Y010808D01*
X023042Y010808D01*
X023202Y010649D01*
X023293Y010611D01*
X023391Y010611D01*
X023457Y010611D01*
X024015Y010611D01*
X024078Y010675D01*
X024078Y010023D01*
X024116Y009932D01*
X024186Y009862D01*
X025091Y008956D01*
X025182Y008919D01*
X025257Y008919D01*
X025257Y008815D01*
X025209Y008815D01*
X025098Y008815D01*
X024995Y008773D01*
X024939Y008717D01*
X024834Y008717D01*
X024681Y008654D01*
X024564Y008536D01*
X024500Y008383D01*
X024500Y008218D01*
X024564Y008064D01*
X024681Y007947D01*
X024834Y007884D01*
X025000Y007884D01*
X025153Y007947D01*
X025257Y008052D01*
X025257Y007746D01*
X025308Y007695D01*
X025307Y007690D01*
X025307Y007592D01*
X025633Y007592D01*
X025633Y007592D01*
X025307Y007592D01*
X025307Y007493D01*
X025308Y007489D01*
X025257Y007438D01*
X025257Y007116D01*
X025308Y007065D01*
X025307Y007060D01*
X025307Y006962D01*
X025633Y006962D01*
X025633Y006962D01*
X025307Y006962D01*
X025307Y006863D01*
X025317Y006826D01*
X025337Y006791D01*
X025365Y006764D01*
X025399Y006744D01*
X025437Y006734D01*
X025633Y006734D01*
X025633Y006961D01*
X025634Y006961D01*
X025634Y006734D01*
X025830Y006734D01*
X025868Y006744D01*
X025902Y006764D01*
X025930Y006791D01*
X025950Y006826D01*
X025960Y006863D01*
X025960Y006962D01*
X025960Y007029D01*
X026009Y007029D01*
X026108Y007029D01*
X026199Y007067D01*
X026435Y007303D01*
X026505Y007373D01*
X026543Y007464D01*
X026543Y008001D01*
X026899Y008357D01*
X026936Y008448D01*
X026936Y008489D01*
X028289Y007136D01*
X028359Y007067D01*
X028450Y007029D01*
X028568Y007029D01*
X028501Y006962D01*
X028437Y006809D01*
X028437Y006643D01*
X028501Y006490D01*
X028618Y006372D01*
X028771Y006309D01*
X028937Y006309D01*
X029090Y006372D01*
X029207Y006490D01*
X029270Y006643D01*
X029270Y006683D01*
X030161Y006683D01*
X030164Y006684D01*
X030365Y006684D01*
X030482Y006801D01*
X030482Y007116D01*
X030482Y007431D01*
X030482Y007746D01*
X030482Y008061D01*
X030482Y008383D01*
X030431Y008434D01*
X030432Y008438D01*
X030432Y008536D01*
X030106Y008536D01*
X030106Y008537D01*
X030432Y008537D01*
X030432Y008635D01*
X030431Y008640D01*
X030482Y008691D01*
X030482Y009006D01*
X030482Y009320D01*
X030482Y009635D01*
X030482Y009950D01*
X030482Y010273D01*
X030431Y010323D01*
X030432Y010328D01*
X030432Y010426D01*
X030106Y010426D01*
X030106Y010427D01*
X030432Y010427D01*
X030432Y010525D01*
X030431Y010529D01*
X030482Y010580D01*
X030482Y010895D01*
X030482Y011210D01*
X030482Y011525D01*
X030482Y011840D01*
X030482Y012155D01*
X030482Y012477D01*
X030431Y012528D01*
X030432Y012533D01*
X030432Y012631D01*
X030106Y012631D01*
X030106Y012631D01*
X030432Y012631D01*
X030432Y012730D01*
X030431Y012734D01*
X030482Y012785D01*
X030482Y013100D01*
X030482Y013415D01*
X030482Y013730D01*
X030482Y014045D01*
X030482Y014360D01*
X030482Y014675D01*
X030482Y014990D01*
X030482Y015312D01*
X030421Y015373D01*
X030486Y015400D01*
X030612Y015527D01*
X030681Y015691D01*
X030681Y015870D01*
X030612Y016035D01*
X030484Y016164D01*
X030484Y016204D01*
X030529Y016250D01*
X030529Y016926D01*
X030456Y016999D01*
X030469Y017022D01*
X030479Y017060D01*
X030479Y017287D01*
X030084Y017287D01*
X030084Y017385D01*
X029986Y017385D01*
X029986Y017741D01*
X029720Y017741D01*
X029692Y017734D01*
X029692Y018094D01*
X029692Y018192D01*
X029655Y018283D01*
X029261Y018677D01*
X029261Y018677D01*
X029191Y018747D01*
X029100Y018785D01*
X025951Y018785D01*
X026057Y018891D01*
X026121Y019044D01*
X026121Y019210D01*
X026057Y019363D01*
X025940Y019480D01*
X025787Y019544D01*
X025621Y019544D01*
X025468Y019480D01*
X025364Y019376D01*
X025020Y019376D01*
X024270Y020126D01*
X024179Y020163D01*
X024080Y020163D01*
X024078Y020163D01*
X022308Y020163D01*
X022217Y020125D01*
X022148Y020055D01*
X021951Y019858D01*
X021913Y019767D01*
X021913Y019668D01*
X021913Y019332D01*
X021622Y019624D01*
X021622Y020560D01*
X021686Y020405D01*
X021833Y020258D01*
X022025Y020178D01*
X022234Y020178D01*
X022426Y020258D01*
X022573Y020405D01*
X022653Y020598D01*
X022653Y020806D01*
X022573Y020999D01*
X022426Y021146D01*
X022234Y021226D01*
X022051Y021226D01*
X022695Y021870D01*
X022765Y021939D01*
X022769Y021950D01*
X023537Y021950D01*
X023653Y022067D01*
X023653Y022881D01*
X023537Y022997D01*
X022803Y022997D01*
X022803Y023158D01*
X022854Y023210D01*
X024379Y023210D01*
X024484Y023105D01*
X024637Y023041D01*
X024803Y023041D01*
X024956Y023105D01*
X025073Y023222D01*
X025137Y023375D01*
X025137Y023541D01*
X025073Y023694D01*
X025025Y023742D01*
X025034Y023751D01*
X025472Y023751D01*
X025507Y023787D01*
X025543Y023751D01*
X026220Y023751D01*
X026336Y023868D01*
X026336Y024623D01*
X026220Y024739D01*
X026160Y024739D01*
X026160Y024997D01*
X026160Y025108D01*
X026118Y025210D01*
X025589Y025739D01*
X025589Y026528D01*
X025596Y026535D01*
X025668Y026710D01*
X025668Y026899D01*
X025596Y027074D01*
X025462Y027208D01*
X025287Y027280D01*
X025098Y027280D01*
X024923Y027208D01*
X024789Y027074D01*
X024752Y026985D01*
X024730Y027028D01*
X024691Y027082D01*
X024643Y027130D01*
X024589Y027169D01*
X024529Y027200D01*
X024466Y027220D01*
X024405Y027230D01*
X024405Y026844D01*
X024326Y026844D01*
X024326Y026765D01*
X023940Y026765D01*
X023950Y026705D01*
X023971Y026641D01*
X024001Y026581D01*
X024040Y026527D01*
X024088Y026479D01*
X024142Y026440D01*
X024202Y026409D01*
X024266Y026389D01*
X024326Y026379D01*
X024326Y026765D01*
X024405Y026765D01*
X024405Y026379D01*
X024466Y026389D01*
X024529Y026409D01*
X024589Y026440D01*
X024643Y026479D01*
X024691Y026527D01*
X024730Y026581D01*
X024752Y026624D01*
X024789Y026535D01*
X024923Y026401D01*
X025032Y026356D01*
X025032Y025679D01*
X025032Y025568D01*
X025074Y025465D01*
X025603Y024937D01*
X025603Y024739D01*
X025543Y024739D01*
X025507Y024704D01*
X025472Y024739D01*
X024795Y024739D01*
X024679Y024623D01*
X024679Y024185D01*
X024484Y023990D01*
X024441Y023887D01*
X024441Y023776D01*
X024441Y023768D01*
X024379Y023706D01*
X022801Y023706D01*
X022847Y023751D01*
X023503Y023751D01*
X023539Y023787D01*
X023575Y023751D01*
X024251Y023751D01*
X024368Y023868D01*
X024368Y024623D01*
X024251Y024739D01*
X024192Y024739D01*
X024192Y025252D01*
X024284Y025344D01*
X024460Y025344D01*
X024635Y025417D01*
X024769Y025551D01*
X024842Y025725D01*
X024842Y025915D01*
X024769Y026090D01*
X024635Y026224D01*
X024460Y026296D01*
X024271Y026296D01*
X024096Y026224D01*
X023962Y026090D01*
X023890Y025915D01*
X023890Y025738D01*
X023677Y025525D01*
X023634Y025423D01*
X023634Y025312D01*
X023634Y024739D01*
X023575Y024739D01*
X023539Y024704D01*
X023503Y024739D01*
X022827Y024739D01*
X022710Y024623D01*
X022710Y024524D01*
X022696Y024524D01*
X022594Y024482D01*
X022577Y024465D01*
X022472Y024465D01*
X022319Y024402D01*
X022201Y024284D01*
X022138Y024131D01*
X022138Y023966D01*
X022191Y023838D01*
X022148Y023795D01*
X022110Y023704D01*
X022110Y022380D01*
X021228Y021498D01*
X021228Y021584D01*
X021711Y022067D01*
X021781Y022136D01*
X021818Y022227D01*
X021818Y022236D01*
X021948Y022236D01*
X022064Y022352D01*
X022064Y023028D01*
X022029Y023064D01*
X022064Y023100D01*
X022064Y023776D01*
X021948Y023893D01*
X021849Y023893D01*
X021849Y023907D01*
X021807Y024010D01*
X021728Y024088D01*
X021216Y024600D01*
X021138Y024679D01*
X021035Y024721D01*
X020505Y024721D01*
X019487Y025739D01*
X019487Y027143D01*
X019487Y027254D01*
X019445Y027356D01*
X018854Y027947D01*
X018776Y028025D01*
X018673Y028067D01*
X017295Y028067D01*
X017184Y028067D01*
X017082Y028025D01*
X016353Y027296D01*
X016256Y027296D01*
X016081Y027224D01*
X015948Y027090D01*
X015901Y026977D01*
X015855Y027090D01*
X015721Y027224D01*
X015546Y027296D01*
X015356Y027296D01*
X015181Y027224D01*
X015048Y027090D01*
X015001Y026977D01*
X014955Y027090D01*
X014821Y027224D01*
X014646Y027296D01*
X014456Y027296D01*
X014281Y027224D01*
X014148Y027090D01*
X014075Y026915D01*
X014075Y026725D01*
X014103Y026657D02*
X008599Y026657D01*
X008621Y026710D02*
X008621Y026725D01*
X008633Y026754D01*
X008621Y026710D02*
X008549Y026535D01*
X008415Y026401D01*
X008240Y026328D01*
X008050Y026328D01*
X007876Y026401D01*
X007742Y026535D01*
X007732Y026559D01*
X007722Y026535D01*
X007588Y026401D01*
X007413Y026328D01*
X007224Y026328D01*
X007049Y026401D01*
X006915Y026535D01*
X006842Y026710D01*
X006842Y026899D01*
X006915Y027074D01*
X007049Y027208D01*
X007224Y027280D01*
X007413Y027280D01*
X007588Y027208D01*
X007722Y027074D01*
X007732Y027050D01*
X007736Y027060D01*
X007736Y028862D01*
X007804Y029027D01*
X007930Y029153D01*
X007930Y029153D01*
X008482Y029705D01*
X001741Y029705D01*
X001741Y029663D02*
X008440Y029663D01*
X008343Y029566D02*
X001741Y029566D01*
X001741Y029469D02*
X008246Y029469D01*
X008149Y029372D02*
X001741Y029372D01*
X001741Y029275D02*
X008052Y029275D01*
X007955Y029178D02*
X001741Y029178D01*
X001741Y029081D02*
X007858Y029081D01*
X007786Y028984D02*
X001741Y028984D01*
X001741Y028887D02*
X007746Y028887D01*
X007736Y028790D02*
X001741Y028790D01*
X001741Y028693D02*
X007736Y028693D01*
X007736Y028596D02*
X001741Y028596D01*
X001741Y028499D02*
X007736Y028499D01*
X007736Y028403D02*
X001741Y028403D01*
X001741Y028306D02*
X007736Y028306D01*
X007736Y028209D02*
X001741Y028209D01*
X001741Y028112D02*
X007736Y028112D01*
X007736Y028015D02*
X001741Y028015D01*
X001741Y027918D02*
X007736Y027918D01*
X007736Y027821D02*
X001741Y027821D01*
X001741Y027724D02*
X007736Y027724D01*
X007736Y027627D02*
X001741Y027627D01*
X001741Y027530D02*
X007736Y027530D01*
X007736Y027433D02*
X001741Y027433D01*
X001741Y027336D02*
X002435Y027336D01*
X002436Y027336D02*
X002515Y027336D01*
X002515Y026950D01*
X002436Y026950D01*
X002436Y026871D01*
X002050Y026871D01*
X002060Y026811D01*
X002081Y026747D01*
X002111Y026687D01*
X002151Y026633D01*
X002198Y026585D01*
X002252Y026546D01*
X002312Y026516D01*
X002376Y026495D01*
X002436Y026485D01*
X002436Y026871D01*
X002515Y026871D01*
X002515Y026485D01*
X002576Y026495D01*
X002640Y026516D01*
X002699Y026546D01*
X002754Y026585D01*
X002801Y026633D01*
X002841Y026687D01*
X002871Y026747D01*
X002892Y026811D01*
X002901Y026871D01*
X002516Y026871D01*
X002516Y026950D01*
X002901Y026950D01*
X002892Y027011D01*
X002871Y027074D01*
X002841Y027134D01*
X002801Y027188D01*
X002754Y027236D01*
X002699Y027275D01*
X002640Y027306D01*
X002576Y027327D01*
X002515Y027336D01*
X002517Y027336D02*
X007736Y027336D01*
X007736Y027239D02*
X007513Y027239D01*
X007654Y027142D02*
X007736Y027142D01*
X007124Y027239D02*
X006490Y027239D01*
X006630Y027142D02*
X006983Y027142D01*
X006903Y027045D02*
X006710Y027045D01*
X006751Y026948D02*
X006863Y026948D01*
X006842Y026851D02*
X006771Y026851D01*
X006771Y026754D02*
X006842Y026754D01*
X006864Y026657D02*
X006749Y026657D01*
X006709Y026560D02*
X006904Y026560D01*
X006986Y026463D02*
X006755Y026463D01*
X006852Y026366D02*
X007133Y026366D01*
X006949Y026269D02*
X007986Y026269D01*
X008050Y026296D02*
X007876Y026224D01*
X007742Y026090D01*
X007669Y025915D01*
X007669Y025725D01*
X007742Y025551D01*
X007876Y025417D01*
X008050Y025344D01*
X008240Y025344D01*
X008415Y025417D01*
X008549Y025551D01*
X008621Y025725D01*
X008621Y025915D01*
X008549Y026090D01*
X008415Y026224D01*
X008240Y026296D01*
X008050Y026296D01*
X007959Y026366D02*
X007504Y026366D01*
X007650Y026463D02*
X007813Y026463D01*
X007824Y026172D02*
X007046Y026172D01*
X007143Y026075D02*
X007736Y026075D01*
X007696Y025978D02*
X007240Y025978D01*
X007337Y025881D02*
X007669Y025881D01*
X007669Y025784D02*
X007434Y025784D01*
X007530Y025687D02*
X007685Y025687D01*
X007725Y025590D02*
X007627Y025590D01*
X007724Y025493D02*
X007799Y025493D01*
X007821Y025396D02*
X007924Y025396D01*
X008366Y025396D02*
X014050Y025396D01*
X014062Y025396D02*
X014140Y025396D01*
X014140Y025395D02*
X014201Y025404D01*
X014265Y025425D01*
X014325Y025455D01*
X014379Y025495D01*
X014426Y025542D01*
X014466Y025597D01*
X014496Y025656D01*
X014517Y025720D01*
X014526Y025781D01*
X014141Y025781D01*
X014141Y025860D01*
X014526Y025860D01*
X014517Y025920D01*
X014496Y025984D01*
X014466Y026044D01*
X014426Y026098D01*
X014379Y026145D01*
X014325Y026185D01*
X014265Y026215D01*
X014201Y026236D01*
X014140Y026246D01*
X014140Y025860D01*
X014062Y025860D01*
X014062Y026246D01*
X014001Y026236D01*
X013937Y026215D01*
X013878Y026185D01*
X013823Y026145D01*
X013776Y026098D01*
X013736Y026044D01*
X013706Y025984D01*
X013685Y025920D01*
X013676Y025860D01*
X014061Y025860D01*
X014061Y025781D01*
X013676Y025781D01*
X013685Y025720D01*
X013706Y025656D01*
X013736Y025597D01*
X013776Y025542D01*
X013823Y025495D01*
X013878Y025455D01*
X013937Y025425D01*
X014001Y025404D01*
X014062Y025395D01*
X014062Y025781D01*
X014140Y025781D01*
X014140Y025395D01*
X014152Y025396D02*
X014950Y025396D01*
X014962Y025396D02*
X015040Y025396D01*
X015040Y025395D02*
X015101Y025404D01*
X015165Y025425D01*
X015225Y025455D01*
X015279Y025495D01*
X015326Y025542D01*
X015366Y025597D01*
X015396Y025656D01*
X015417Y025720D01*
X015426Y025781D01*
X015041Y025781D01*
X015041Y025860D01*
X015426Y025860D01*
X015417Y025920D01*
X015396Y025984D01*
X015366Y026044D01*
X015326Y026098D01*
X015279Y026145D01*
X015225Y026185D01*
X015165Y026215D01*
X015101Y026236D01*
X015040Y026246D01*
X015040Y025860D01*
X014962Y025860D01*
X014962Y026246D01*
X014901Y026236D01*
X014837Y026215D01*
X014778Y026185D01*
X014723Y026145D01*
X014676Y026098D01*
X014636Y026044D01*
X014606Y025984D01*
X014585Y025920D01*
X014576Y025860D01*
X014961Y025860D01*
X014961Y025781D01*
X014576Y025781D01*
X014585Y025720D01*
X014606Y025656D01*
X014636Y025597D01*
X014676Y025542D01*
X014723Y025495D01*
X014778Y025455D01*
X014837Y025425D01*
X014901Y025404D01*
X014962Y025395D01*
X014962Y025781D01*
X015040Y025781D01*
X015040Y025395D01*
X015052Y025396D02*
X015850Y025396D01*
X015862Y025396D02*
X015940Y025396D01*
X015940Y025395D02*
X016001Y025404D01*
X016065Y025425D01*
X016125Y025455D01*
X016179Y025495D01*
X016226Y025542D01*
X016266Y025597D01*
X016296Y025656D01*
X016317Y025720D01*
X016325Y025772D01*
X016325Y025725D01*
X016398Y025551D01*
X016531Y025417D01*
X016706Y025344D01*
X016896Y025344D01*
X017071Y025417D01*
X017205Y025551D01*
X017277Y025725D01*
X017277Y025772D01*
X017285Y025720D01*
X017306Y025656D01*
X017336Y025597D01*
X017376Y025542D01*
X017423Y025495D01*
X017478Y025455D01*
X017537Y025425D01*
X017601Y025404D01*
X017662Y025395D01*
X017662Y025781D01*
X017740Y025781D01*
X017740Y025395D01*
X017801Y025404D01*
X017865Y025425D01*
X017925Y025455D01*
X017979Y025495D01*
X018026Y025542D01*
X018066Y025597D01*
X018096Y025656D01*
X018117Y025720D01*
X018126Y025781D01*
X017741Y025781D01*
X017741Y025860D01*
X018126Y025860D01*
X018117Y025920D01*
X018096Y025984D01*
X018066Y026044D01*
X018026Y026098D01*
X017979Y026145D01*
X017925Y026185D01*
X017865Y026215D01*
X017801Y026236D01*
X017740Y026246D01*
X017740Y025860D01*
X017662Y025860D01*
X017662Y026246D01*
X017601Y026236D01*
X017537Y026215D01*
X017478Y026185D01*
X017423Y026145D01*
X017376Y026098D01*
X017336Y026044D01*
X017306Y025984D01*
X017285Y025920D01*
X017277Y025868D01*
X017277Y025915D01*
X017205Y026090D01*
X017071Y026224D01*
X016896Y026296D01*
X016706Y026296D01*
X016531Y026224D01*
X016398Y026090D01*
X016325Y025915D01*
X016325Y025868D01*
X016317Y025920D01*
X016296Y025984D01*
X016266Y026044D01*
X016226Y026098D01*
X016179Y026145D01*
X016125Y026185D01*
X016065Y026215D01*
X016001Y026236D01*
X015940Y026246D01*
X015940Y025860D01*
X015862Y025860D01*
X015862Y026246D01*
X015801Y026236D01*
X015737Y026215D01*
X015678Y026185D01*
X015623Y026145D01*
X015576Y026098D01*
X015536Y026044D01*
X015506Y025984D01*
X015485Y025920D01*
X015476Y025860D01*
X015861Y025860D01*
X015861Y025781D01*
X015476Y025781D01*
X015485Y025720D01*
X015506Y025656D01*
X015536Y025597D01*
X015576Y025542D01*
X015623Y025495D01*
X015678Y025455D01*
X015737Y025425D01*
X015801Y025404D01*
X015862Y025395D01*
X015862Y025781D01*
X015940Y025781D01*
X015940Y025395D01*
X015952Y025396D02*
X016580Y025396D01*
X016455Y025493D02*
X016177Y025493D01*
X016261Y025590D02*
X016381Y025590D01*
X016341Y025687D02*
X016306Y025687D01*
X016323Y025881D02*
X016325Y025881D01*
X016298Y025978D02*
X016351Y025978D01*
X016392Y026075D02*
X016243Y026075D01*
X016142Y026172D02*
X016480Y026172D01*
X016641Y026269D02*
X008305Y026269D01*
X008331Y026366D02*
X014403Y026366D01*
X014235Y026463D02*
X008477Y026463D01*
X008559Y026560D02*
X014144Y026560D01*
X014075Y026851D02*
X008633Y026851D01*
X008633Y026948D02*
X014089Y026948D01*
X014129Y027045D02*
X008633Y027045D01*
X008633Y027142D02*
X014200Y027142D01*
X014318Y027239D02*
X008633Y027239D01*
X008633Y027336D02*
X016393Y027336D01*
X016490Y027433D02*
X008633Y027433D01*
X008633Y027530D02*
X016587Y027530D01*
X016684Y027627D02*
X008633Y027627D01*
X008633Y027724D02*
X016780Y027724D01*
X016877Y027821D02*
X008633Y027821D01*
X008633Y027918D02*
X016974Y027918D01*
X017071Y028015D02*
X008633Y028015D01*
X008633Y028112D02*
X026594Y028112D01*
X026594Y028209D02*
X008633Y028209D01*
X008633Y028306D02*
X026594Y028306D01*
X026594Y028403D02*
X008633Y028403D01*
X008633Y028499D02*
X026594Y028499D01*
X026594Y028596D02*
X008643Y028596D01*
X008740Y028693D02*
X026527Y028693D01*
X026430Y028790D02*
X008837Y028790D01*
X008934Y028887D02*
X026333Y028887D01*
X026924Y029566D02*
X030770Y029566D01*
X030770Y029469D02*
X027021Y029469D01*
X027118Y029372D02*
X030770Y029372D01*
X030770Y029275D02*
X027215Y029275D01*
X027312Y029178D02*
X030770Y029178D01*
X030770Y029081D02*
X027409Y029081D01*
X027457Y028984D02*
X030770Y028984D01*
X030770Y028887D02*
X027492Y028887D01*
X027492Y028790D02*
X030770Y028790D01*
X030770Y028693D02*
X027492Y028693D01*
X027492Y028596D02*
X030770Y028596D01*
X030770Y028499D02*
X027492Y028499D01*
X027492Y028403D02*
X030770Y028403D01*
X030770Y028306D02*
X027492Y028306D01*
X027492Y028209D02*
X030770Y028209D01*
X030770Y028112D02*
X027492Y028112D01*
X027492Y028015D02*
X030770Y028015D01*
X030770Y027918D02*
X027492Y027918D01*
X027492Y027821D02*
X030770Y027821D01*
X030770Y027724D02*
X027492Y027724D01*
X027492Y027627D02*
X030770Y027627D01*
X030770Y027530D02*
X027492Y027530D01*
X027492Y027433D02*
X030770Y027433D01*
X030770Y027336D02*
X027492Y027336D01*
X027492Y027239D02*
X030770Y027239D01*
X030770Y027142D02*
X027492Y027142D01*
X027492Y027045D02*
X030770Y027045D01*
X030770Y026948D02*
X027499Y026948D01*
X027519Y026851D02*
X030770Y026851D01*
X030770Y026754D02*
X027519Y026754D01*
X027497Y026657D02*
X030770Y026657D01*
X030770Y026560D02*
X027457Y026560D01*
X027375Y026463D02*
X030770Y026463D01*
X030770Y026366D02*
X027229Y026366D01*
X027202Y026269D02*
X030770Y026269D01*
X030770Y026172D02*
X027364Y026172D01*
X027312Y026224D02*
X027138Y026296D01*
X026948Y026296D01*
X026773Y026224D01*
X026639Y026090D01*
X026567Y025915D01*
X026567Y025725D01*
X026639Y025551D01*
X026773Y025417D01*
X026948Y025344D01*
X027138Y025344D01*
X027312Y025417D01*
X027446Y025551D01*
X027519Y025725D01*
X027519Y025915D01*
X027446Y026090D01*
X027312Y026224D01*
X027452Y026075D02*
X030770Y026075D01*
X030770Y025978D02*
X027493Y025978D01*
X027519Y025881D02*
X030770Y025881D01*
X030770Y025784D02*
X027519Y025784D01*
X027503Y025687D02*
X030770Y025687D01*
X030770Y025590D02*
X027463Y025590D01*
X027389Y025493D02*
X030770Y025493D01*
X030770Y025396D02*
X027264Y025396D01*
X026822Y025396D02*
X025932Y025396D01*
X026029Y025300D02*
X030770Y025300D01*
X030770Y025203D02*
X026121Y025203D01*
X026160Y025106D02*
X030770Y025106D01*
X030770Y025009D02*
X026160Y025009D01*
X026160Y024912D02*
X030770Y024912D01*
X030770Y024815D02*
X026160Y024815D01*
X026241Y024718D02*
X030770Y024718D01*
X030770Y024621D02*
X026336Y024621D01*
X026336Y024524D02*
X030770Y024524D01*
X030770Y024427D02*
X026336Y024427D01*
X026336Y024330D02*
X030770Y024330D01*
X030770Y024233D02*
X026336Y024233D01*
X026336Y024136D02*
X030770Y024136D01*
X030770Y024039D02*
X026336Y024039D01*
X026336Y023942D02*
X030770Y023942D01*
X030770Y023845D02*
X026313Y023845D01*
X026409Y023284D02*
X026256Y023221D01*
X026138Y023103D01*
X026075Y022950D01*
X026075Y022784D01*
X026138Y022631D01*
X026256Y022514D01*
X026409Y022451D01*
X026514Y022451D01*
X026727Y022237D01*
X026830Y022195D01*
X026941Y022195D01*
X027061Y022195D01*
X027061Y022123D01*
X026841Y022123D01*
X026728Y022236D01*
X026575Y022300D01*
X026409Y022300D01*
X026256Y022236D01*
X026138Y022119D01*
X026075Y021966D01*
X026075Y021800D01*
X026138Y021647D01*
X026256Y021530D01*
X026409Y021467D01*
X026575Y021467D01*
X026728Y021530D01*
X026763Y021565D01*
X027159Y021565D01*
X027177Y021547D01*
X028562Y021547D01*
X028624Y021609D01*
X028624Y021523D01*
X028689Y021366D01*
X028809Y021246D01*
X028966Y021181D01*
X029136Y021181D01*
X029292Y021246D01*
X029412Y021366D01*
X029477Y021523D01*
X029477Y021692D01*
X029412Y021849D01*
X029380Y021881D01*
X029484Y021924D01*
X029601Y022041D01*
X029664Y022194D01*
X029664Y022360D01*
X029601Y022513D01*
X029484Y022630D01*
X029330Y022693D01*
X029165Y022693D01*
X029012Y022630D01*
X028894Y022513D01*
X028863Y022438D01*
X028679Y022438D01*
X028679Y022654D01*
X028629Y022704D01*
X028629Y022788D01*
X027870Y022788D01*
X027870Y022789D01*
X028629Y022789D01*
X028629Y022873D01*
X028679Y022923D01*
X028679Y023124D01*
X028689Y023098D01*
X028809Y022978D01*
X028966Y022913D01*
X029136Y022913D01*
X029292Y022978D01*
X029412Y023098D01*
X029477Y023255D01*
X029477Y023425D01*
X029412Y023581D01*
X029292Y023701D01*
X029136Y023766D01*
X028966Y023766D01*
X028809Y023701D01*
X028689Y023581D01*
X028624Y023425D01*
X028624Y023339D01*
X028562Y023401D01*
X027177Y023401D01*
X027061Y023284D01*
X027061Y022923D01*
X027110Y022873D01*
X027110Y022789D01*
X027869Y022789D01*
X027869Y022788D01*
X027110Y022788D01*
X027110Y022752D01*
X027001Y022752D01*
X026908Y022845D01*
X026908Y022950D01*
X026845Y023103D01*
X026728Y023221D01*
X026575Y023284D01*
X026409Y023284D01*
X026359Y023263D02*
X025090Y023263D01*
X025130Y023360D02*
X027136Y023360D01*
X027061Y023263D02*
X026625Y023263D01*
X026782Y023166D02*
X027061Y023166D01*
X027061Y023069D02*
X026859Y023069D01*
X026899Y022972D02*
X027061Y022972D01*
X027108Y022875D02*
X026908Y022875D01*
X026975Y022778D02*
X027110Y022778D01*
X026826Y022197D02*
X026767Y022197D01*
X026671Y022294D02*
X026590Y022294D01*
X026574Y022390D02*
X025653Y022390D01*
X025653Y022370D02*
X025573Y022177D01*
X025426Y022030D01*
X025234Y021950D01*
X025025Y021950D01*
X024833Y022030D01*
X024686Y022177D01*
X024606Y022370D01*
X024606Y022578D01*
X024686Y022770D01*
X024833Y022918D01*
X025025Y022997D01*
X025234Y022997D01*
X025426Y022918D01*
X025573Y022770D01*
X025653Y022578D01*
X025653Y022370D01*
X025622Y022294D02*
X026394Y022294D01*
X026216Y022197D02*
X025581Y022197D01*
X025496Y022100D02*
X026130Y022100D01*
X026090Y022003D02*
X025360Y022003D01*
X024898Y022003D02*
X024185Y022003D01*
X024179Y022003D02*
X024080Y022003D01*
X024080Y022002D02*
X024080Y022424D01*
X024179Y022424D01*
X024179Y022523D01*
X024602Y022523D01*
X024592Y022585D01*
X024569Y022656D01*
X024535Y022722D01*
X024491Y022782D01*
X024438Y022835D01*
X024378Y022879D01*
X024311Y022913D01*
X024240Y022936D01*
X024179Y022946D01*
X024179Y022523D01*
X024080Y022523D01*
X024080Y022424D01*
X023657Y022424D01*
X023667Y022363D01*
X023690Y022292D01*
X023724Y022225D01*
X023768Y022165D01*
X023821Y022112D01*
X023881Y022068D01*
X023947Y022034D01*
X024018Y022011D01*
X024080Y022002D01*
X024074Y022003D02*
X023589Y022003D01*
X023653Y022100D02*
X023838Y022100D01*
X023745Y022197D02*
X023653Y022197D01*
X023653Y022294D02*
X023690Y022294D01*
X023663Y022390D02*
X023653Y022390D01*
X023653Y022487D02*
X024080Y022487D01*
X024080Y022523D02*
X023657Y022523D01*
X023667Y022585D01*
X023690Y022656D01*
X023724Y022722D01*
X023768Y022782D01*
X023821Y022835D01*
X023881Y022879D01*
X023947Y022913D01*
X024018Y022936D01*
X024080Y022946D01*
X024080Y022523D01*
X024080Y022584D02*
X024179Y022584D01*
X024179Y022487D02*
X024606Y022487D01*
X024602Y022424D02*
X024179Y022424D01*
X024179Y022002D01*
X024240Y022011D01*
X024311Y022034D01*
X024378Y022068D01*
X024438Y022112D01*
X024491Y022165D01*
X024535Y022225D01*
X024569Y022292D01*
X024592Y022363D01*
X024602Y022424D01*
X024596Y022390D02*
X024606Y022390D01*
X024637Y022294D02*
X024569Y022294D01*
X024514Y022197D02*
X024677Y022197D01*
X024763Y022100D02*
X024421Y022100D01*
X024179Y022100D02*
X024080Y022100D01*
X024080Y022197D02*
X024179Y022197D01*
X024179Y022294D02*
X024080Y022294D01*
X024080Y022390D02*
X024179Y022390D01*
X024179Y022681D02*
X024080Y022681D01*
X024080Y022778D02*
X024179Y022778D01*
X024179Y022875D02*
X024080Y022875D01*
X023876Y022875D02*
X023653Y022875D01*
X023653Y022778D02*
X023765Y022778D01*
X023703Y022681D02*
X023653Y022681D01*
X023653Y022584D02*
X023667Y022584D01*
X023562Y022972D02*
X024965Y022972D01*
X024870Y023069D02*
X026124Y023069D01*
X026084Y022972D02*
X025294Y022972D01*
X025468Y022875D02*
X026075Y022875D01*
X026078Y022778D02*
X025565Y022778D01*
X025610Y022681D02*
X026118Y022681D01*
X026185Y022584D02*
X025650Y022584D01*
X025653Y022487D02*
X026320Y022487D01*
X026075Y021906D02*
X022731Y021906D01*
X022634Y021809D02*
X026075Y021809D01*
X026112Y021712D02*
X022537Y021712D01*
X022440Y021615D02*
X026171Y021615D01*
X026285Y021518D02*
X022343Y021518D01*
X022246Y021421D02*
X028667Y021421D01*
X028626Y021518D02*
X026698Y021518D01*
X026537Y021226D02*
X025722Y021226D01*
X025606Y021109D01*
X025606Y020920D01*
X025573Y020999D01*
X025426Y021146D01*
X025234Y021226D01*
X025025Y021226D01*
X024833Y021146D01*
X024686Y020999D01*
X024629Y020863D01*
X024573Y020999D01*
X024426Y021146D01*
X024234Y021226D01*
X024025Y021226D01*
X023833Y021146D01*
X023686Y020999D01*
X023606Y020806D01*
X023606Y020598D01*
X023686Y020405D01*
X023833Y020258D01*
X024025Y020178D01*
X024234Y020178D01*
X024426Y020258D01*
X024573Y020405D01*
X024629Y020541D01*
X024686Y020405D01*
X024833Y020258D01*
X025025Y020178D01*
X025234Y020178D01*
X025426Y020258D01*
X025573Y020405D01*
X025606Y020484D01*
X025606Y020295D01*
X025722Y020178D01*
X026537Y020178D01*
X026653Y020295D01*
X026653Y021109D01*
X026537Y021226D01*
X026632Y021130D02*
X030770Y021130D01*
X030770Y021227D02*
X029246Y021227D01*
X029370Y021324D02*
X030770Y021324D01*
X030770Y021421D02*
X029435Y021421D01*
X029475Y021518D02*
X030770Y021518D01*
X030770Y021615D02*
X029477Y021615D01*
X029469Y021712D02*
X030770Y021712D01*
X030770Y021809D02*
X029429Y021809D01*
X029440Y021906D02*
X030770Y021906D01*
X030770Y022003D02*
X029562Y022003D01*
X029625Y022100D02*
X030770Y022100D01*
X030770Y022197D02*
X029664Y022197D01*
X029664Y022294D02*
X030770Y022294D01*
X030770Y022390D02*
X029651Y022390D01*
X029611Y022487D02*
X030770Y022487D01*
X030770Y022584D02*
X029529Y022584D01*
X029360Y022681D02*
X030770Y022681D01*
X030770Y022778D02*
X028629Y022778D01*
X028631Y022875D02*
X030770Y022875D01*
X030770Y022972D02*
X029277Y022972D01*
X029383Y023069D02*
X030770Y023069D01*
X030770Y023166D02*
X029440Y023166D01*
X029477Y023263D02*
X030770Y023263D01*
X030770Y023360D02*
X029477Y023360D01*
X029464Y023457D02*
X030770Y023457D01*
X030770Y023554D02*
X029423Y023554D01*
X029342Y023651D02*
X030770Y023651D01*
X030770Y023748D02*
X029179Y023748D01*
X028922Y023748D02*
X025030Y023748D01*
X025091Y023651D02*
X028759Y023651D01*
X028678Y023554D02*
X025131Y023554D01*
X025137Y023457D02*
X028638Y023457D01*
X028624Y023360D02*
X028603Y023360D01*
X028679Y023069D02*
X028718Y023069D01*
X028679Y022972D02*
X028824Y022972D01*
X028652Y022681D02*
X029136Y022681D01*
X028966Y022584D02*
X028679Y022584D01*
X028679Y022487D02*
X028884Y022487D01*
X028731Y021324D02*
X022149Y021324D01*
X022052Y021227D02*
X028856Y021227D01*
X028857Y020153D02*
X027669Y020153D01*
X027633Y020117D01*
X027405Y020117D01*
X027362Y020134D01*
X027196Y020134D01*
X027043Y020071D01*
X026926Y019954D01*
X026862Y019801D01*
X026862Y019635D01*
X026926Y019482D01*
X027043Y019365D01*
X027196Y019301D01*
X027362Y019301D01*
X027405Y019319D01*
X027553Y019319D01*
X027553Y019006D01*
X027669Y018889D01*
X028857Y018889D01*
X028974Y019006D01*
X028974Y020036D01*
X028857Y020153D01*
X028947Y020063D02*
X029618Y020063D01*
X029571Y019966D02*
X028974Y019966D01*
X028974Y019869D02*
X029571Y019869D01*
X029571Y019772D02*
X028974Y019772D01*
X028974Y019675D02*
X029571Y019675D01*
X029571Y019578D02*
X028974Y019578D01*
X028974Y019481D02*
X030182Y019481D01*
X030183Y019384D02*
X030281Y019384D01*
X030281Y019287D02*
X030183Y019287D01*
X030183Y019191D02*
X030281Y019191D01*
X030281Y019094D02*
X030183Y019094D01*
X030183Y018997D02*
X030281Y018997D01*
X030770Y018900D02*
X028868Y018900D01*
X028965Y018997D02*
X029600Y018997D01*
X029571Y019094D02*
X028974Y019094D01*
X028974Y019191D02*
X029571Y019191D01*
X029571Y019287D02*
X028974Y019287D01*
X028974Y019384D02*
X029571Y019384D01*
X030183Y019578D02*
X030281Y019578D01*
X030281Y019675D02*
X030183Y019675D01*
X030183Y019772D02*
X030281Y019772D01*
X030281Y019869D02*
X030183Y019869D01*
X030183Y019966D02*
X030281Y019966D01*
X030281Y020063D02*
X030183Y020063D01*
X030770Y020160D02*
X024187Y020160D01*
X024333Y020063D02*
X027035Y020063D01*
X026938Y019966D02*
X024430Y019966D01*
X024527Y019869D02*
X026891Y019869D01*
X026862Y019772D02*
X024624Y019772D01*
X024721Y019675D02*
X026862Y019675D01*
X026886Y019578D02*
X024818Y019578D01*
X024914Y019481D02*
X025471Y019481D01*
X025372Y019384D02*
X025011Y019384D01*
X025114Y018537D02*
X029051Y018537D01*
X029444Y018143D01*
X029444Y014993D01*
X029602Y014836D01*
X030106Y014836D01*
X030106Y015151D02*
X030035Y015151D01*
X030482Y015118D02*
X030770Y015118D01*
X030770Y015215D02*
X030482Y015215D01*
X030482Y015312D02*
X030770Y015312D01*
X030770Y015409D02*
X030494Y015409D01*
X030591Y015506D02*
X030770Y015506D01*
X030770Y015603D02*
X030644Y015603D01*
X030681Y015700D02*
X030770Y015700D01*
X030770Y015797D02*
X030681Y015797D01*
X030671Y015894D02*
X030770Y015894D01*
X030770Y015991D02*
X030631Y015991D01*
X030560Y016088D02*
X030770Y016088D01*
X030770Y016184D02*
X030484Y016184D01*
X030529Y016281D02*
X030770Y016281D01*
X030770Y016378D02*
X030529Y016378D01*
X030529Y016475D02*
X030770Y016475D01*
X030770Y016572D02*
X030529Y016572D01*
X030529Y016669D02*
X030770Y016669D01*
X030770Y016766D02*
X030529Y016766D01*
X030529Y016863D02*
X030770Y016863D01*
X030770Y016960D02*
X030495Y016960D01*
X030479Y017057D02*
X030770Y017057D01*
X030770Y017154D02*
X030479Y017154D01*
X030479Y017251D02*
X030770Y017251D01*
X030770Y017348D02*
X030084Y017348D01*
X030084Y017385D02*
X030479Y017385D01*
X030479Y017611D01*
X030469Y017649D01*
X030450Y017683D01*
X030422Y017711D01*
X030388Y017731D01*
X030350Y017741D01*
X030084Y017741D01*
X030084Y017385D01*
X030084Y017445D02*
X029986Y017445D01*
X029986Y017542D02*
X030084Y017542D01*
X030084Y017639D02*
X029986Y017639D01*
X029986Y017736D02*
X030084Y017736D01*
X030369Y017736D02*
X030770Y017736D01*
X030770Y017639D02*
X030472Y017639D01*
X030479Y017542D02*
X030770Y017542D01*
X030770Y017445D02*
X030479Y017445D01*
X030770Y017833D02*
X029692Y017833D01*
X029692Y017930D02*
X030770Y017930D01*
X030770Y018027D02*
X029692Y018027D01*
X029692Y018124D02*
X030770Y018124D01*
X030770Y018221D02*
X029681Y018221D01*
X029620Y018318D02*
X030770Y018318D01*
X030770Y018415D02*
X029523Y018415D01*
X029426Y018512D02*
X030770Y018512D01*
X030770Y018609D02*
X029329Y018609D01*
X029232Y018706D02*
X030770Y018706D01*
X030770Y018803D02*
X025969Y018803D01*
X026061Y018900D02*
X027659Y018900D01*
X027562Y018997D02*
X026101Y018997D01*
X026121Y019094D02*
X027553Y019094D01*
X027553Y019191D02*
X026121Y019191D01*
X026089Y019287D02*
X027553Y019287D01*
X027023Y019384D02*
X026036Y019384D01*
X025938Y019481D02*
X026926Y019481D01*
X026615Y020257D02*
X030770Y020257D01*
X030770Y020354D02*
X026653Y020354D01*
X026653Y020451D02*
X030770Y020451D01*
X030770Y020548D02*
X026653Y020548D01*
X026653Y020645D02*
X030770Y020645D01*
X030770Y020742D02*
X026653Y020742D01*
X026653Y020839D02*
X030770Y020839D01*
X030770Y020936D02*
X026653Y020936D01*
X026653Y021033D02*
X030770Y021033D01*
X028854Y018340D02*
X024917Y018340D01*
X023736Y019521D01*
X022751Y019521D01*
X022555Y019324D01*
X022555Y018537D01*
X022751Y018537D02*
X022751Y019127D01*
X022948Y019324D01*
X023539Y019324D01*
X024720Y018143D01*
X028657Y018143D01*
X029051Y017749D01*
X029051Y014600D01*
X029444Y014206D01*
X030106Y014206D01*
X030106Y013891D02*
X029366Y013891D01*
X028854Y014403D01*
X028854Y017552D01*
X028460Y017946D01*
X024523Y017946D01*
X023342Y019127D01*
X023145Y019127D01*
X022948Y018930D01*
X022948Y018537D01*
X023196Y018512D02*
X023607Y018512D01*
X023510Y018609D02*
X023196Y018609D01*
X023196Y018706D02*
X023413Y018706D01*
X023316Y018803D02*
X023196Y018803D01*
X023196Y018415D02*
X023704Y018415D01*
X023801Y018318D02*
X023196Y018318D01*
X023160Y018221D02*
X023898Y018221D01*
X023995Y018124D02*
X022212Y018124D01*
X022212Y018027D02*
X024092Y018027D01*
X023736Y017749D02*
X028263Y017749D01*
X028657Y017356D01*
X028657Y014206D01*
X029287Y013576D01*
X030106Y013576D01*
X030106Y013261D02*
X029208Y013261D01*
X028460Y014009D01*
X028460Y017159D01*
X028066Y017552D01*
X023736Y017552D01*
X023736Y017356D02*
X027870Y017356D01*
X028263Y016962D01*
X028263Y013812D01*
X029129Y012946D01*
X030106Y012946D01*
X030105Y012631D02*
X029779Y012631D01*
X029779Y012564D01*
X029468Y012564D01*
X029334Y012698D01*
X029779Y012698D01*
X029779Y012631D01*
X030105Y012631D01*
X030105Y012631D01*
X030106Y012316D02*
X029366Y012316D01*
X028066Y013615D01*
X028066Y016765D01*
X027673Y017159D01*
X023736Y017159D01*
X023736Y016962D02*
X027476Y016962D01*
X027870Y016568D01*
X027870Y013419D01*
X029287Y012001D01*
X030106Y012001D01*
X030106Y011686D02*
X029208Y011686D01*
X027673Y013222D01*
X027673Y016371D01*
X027279Y016765D01*
X023736Y016765D01*
X023736Y016568D02*
X027082Y016568D01*
X027476Y016174D01*
X027476Y010663D01*
X028027Y010111D01*
X030106Y010111D01*
X030105Y010426D02*
X029779Y010426D01*
X029779Y010359D01*
X028130Y010359D01*
X027724Y010765D01*
X027724Y012820D01*
X028998Y011546D01*
X029068Y011476D01*
X029159Y011438D01*
X029730Y011438D01*
X029730Y011335D01*
X029164Y011335D01*
X029090Y011410D01*
X028937Y011473D01*
X028771Y011473D01*
X028618Y011410D01*
X028501Y011292D01*
X028437Y011139D01*
X028437Y010973D01*
X028501Y010820D01*
X028618Y010703D01*
X028771Y010640D01*
X028937Y010640D01*
X029090Y010703D01*
X029164Y010778D01*
X029730Y010778D01*
X029730Y010580D01*
X029781Y010529D01*
X029779Y010525D01*
X029779Y010427D01*
X030105Y010427D01*
X030105Y010426D01*
X029779Y010463D02*
X028026Y010463D01*
X028123Y010366D02*
X029779Y010366D01*
X029750Y010560D02*
X027929Y010560D01*
X027832Y010657D02*
X028729Y010657D01*
X028567Y010754D02*
X027735Y010754D01*
X027724Y010851D02*
X028488Y010851D01*
X028448Y010948D02*
X027724Y010948D01*
X027724Y011045D02*
X028437Y011045D01*
X028438Y011142D02*
X027724Y011142D01*
X027724Y011239D02*
X028479Y011239D01*
X028544Y011336D02*
X027724Y011336D01*
X027724Y011433D02*
X028675Y011433D01*
X028917Y011627D02*
X027724Y011627D01*
X027724Y011724D02*
X028820Y011724D01*
X028723Y011821D02*
X027724Y011821D01*
X027724Y011918D02*
X028626Y011918D01*
X028529Y012015D02*
X027724Y012015D01*
X027724Y012112D02*
X028432Y012112D01*
X028335Y012209D02*
X027724Y012209D01*
X027724Y012306D02*
X028238Y012306D01*
X028141Y012403D02*
X027724Y012403D01*
X027724Y012500D02*
X028044Y012500D01*
X027947Y012597D02*
X027724Y012597D01*
X027724Y012694D02*
X027850Y012694D01*
X027753Y012791D02*
X027724Y012791D01*
X027724Y011530D02*
X029014Y011530D01*
X029033Y011433D02*
X029730Y011433D01*
X029730Y011336D02*
X029163Y011336D01*
X029141Y010754D02*
X029730Y010754D01*
X029730Y010657D02*
X028979Y010657D01*
X027900Y009494D02*
X027330Y009494D01*
X027330Y009591D02*
X027803Y009591D01*
X027706Y009688D02*
X027330Y009688D01*
X027330Y009785D02*
X027610Y009785D01*
X027513Y009882D02*
X027330Y009882D01*
X027330Y009979D02*
X027416Y009979D01*
X027330Y010064D02*
X028368Y009026D01*
X028438Y008956D01*
X028529Y008919D01*
X029730Y008919D01*
X029730Y008691D01*
X029781Y008640D01*
X029779Y008635D01*
X029779Y008537D01*
X030105Y008537D01*
X030105Y008536D01*
X029779Y008536D01*
X029779Y008470D01*
X028051Y008470D01*
X027330Y009191D01*
X027330Y010064D01*
X027279Y010466D02*
X027279Y015978D01*
X026885Y016371D01*
X023736Y016371D01*
X023736Y016174D02*
X026689Y016174D01*
X027082Y015781D01*
X027082Y009088D01*
X027948Y008222D01*
X030106Y008222D01*
X030482Y008233D02*
X030770Y008233D01*
X030770Y008136D02*
X030482Y008136D01*
X030482Y008039D02*
X030770Y008039D01*
X030770Y007942D02*
X030482Y007942D01*
X030482Y007845D02*
X030770Y007845D01*
X030770Y007748D02*
X030482Y007748D01*
X030482Y007651D02*
X030770Y007651D01*
X030770Y007554D02*
X030482Y007554D01*
X030482Y007457D02*
X030770Y007457D01*
X030770Y007360D02*
X030482Y007360D01*
X030482Y007263D02*
X030770Y007263D01*
X030770Y007166D02*
X030482Y007166D01*
X030482Y007069D02*
X030770Y007069D01*
X030770Y006972D02*
X030482Y006972D01*
X030482Y006876D02*
X030770Y006876D01*
X030770Y006779D02*
X030460Y006779D01*
X030770Y006682D02*
X029270Y006682D01*
X029246Y006585D02*
X030770Y006585D01*
X030770Y006488D02*
X029205Y006488D01*
X029108Y006391D02*
X030770Y006391D01*
X030770Y006294D02*
X025700Y006294D01*
X025796Y006197D02*
X030770Y006197D01*
X030770Y006100D02*
X025893Y006100D01*
X025990Y006003D02*
X030770Y006003D01*
X030770Y005906D02*
X026087Y005906D01*
X026184Y005809D02*
X030770Y005809D01*
X030770Y005712D02*
X026281Y005712D01*
X026378Y005615D02*
X030770Y005615D01*
X030770Y005518D02*
X026475Y005518D01*
X026572Y005421D02*
X028730Y005421D01*
X028547Y005324D02*
X026669Y005324D01*
X026766Y005227D02*
X028450Y005227D01*
X028409Y005130D02*
X026863Y005130D01*
X026960Y005033D02*
X028375Y005033D01*
X028375Y004936D02*
X027057Y004936D01*
X027154Y004839D02*
X028375Y004839D01*
X028375Y004742D02*
X027251Y004742D01*
X027315Y004645D02*
X028375Y004645D01*
X028375Y004548D02*
X027330Y004548D01*
X027387Y004451D02*
X028375Y004451D01*
X028375Y004354D02*
X027455Y004354D01*
X027496Y004257D02*
X028375Y004257D01*
X028375Y004160D02*
X027499Y004160D01*
X027490Y004063D02*
X028375Y004063D01*
X028375Y003966D02*
X027450Y003966D01*
X027374Y003869D02*
X028375Y003869D01*
X028375Y003773D02*
X027219Y003773D01*
X026942Y003676D02*
X028375Y003676D01*
X028375Y003579D02*
X026845Y003579D01*
X026748Y003482D02*
X028375Y003482D01*
X028375Y003385D02*
X027560Y003385D01*
X027570Y003380D02*
X027399Y003451D01*
X027214Y003451D01*
X027043Y003380D01*
X026912Y003249D01*
X026841Y003078D01*
X026841Y002893D01*
X026912Y002722D01*
X027043Y002591D01*
X027214Y002520D01*
X027399Y002520D01*
X027570Y002591D01*
X027701Y002722D01*
X027772Y002893D01*
X027772Y003078D01*
X027701Y003249D01*
X027570Y003380D01*
X027663Y003288D02*
X028375Y003288D01*
X028375Y003191D02*
X027726Y003191D01*
X027766Y003094D02*
X028285Y003094D01*
X028188Y002997D02*
X027772Y002997D01*
X027772Y002900D02*
X028091Y002900D01*
X027994Y002803D02*
X027735Y002803D01*
X027686Y002706D02*
X027897Y002706D01*
X027800Y002609D02*
X027589Y002609D01*
X027703Y002512D02*
X026789Y002512D01*
X026789Y002609D02*
X027025Y002609D01*
X026928Y002706D02*
X026789Y002706D01*
X026789Y002803D02*
X026878Y002803D01*
X026841Y002900D02*
X026789Y002900D01*
X026841Y002997D02*
X026702Y002997D01*
X026847Y003094D02*
X026543Y003094D01*
X026543Y003191D02*
X026888Y003191D01*
X026950Y003288D02*
X026554Y003288D01*
X026651Y003385D02*
X027053Y003385D01*
X026295Y003379D02*
X027082Y004167D01*
X027082Y004560D01*
X022555Y009088D01*
X022555Y010072D01*
X022751Y010072D02*
X022751Y009678D01*
X023145Y009285D01*
X023428Y009591D02*
X024457Y009591D01*
X024360Y009688D02*
X023261Y009688D01*
X023117Y009785D02*
X024263Y009785D01*
X024166Y009882D02*
X023147Y009882D01*
X023147Y009979D02*
X024097Y009979D01*
X024078Y010075D02*
X023147Y010075D01*
X023147Y010172D02*
X024078Y010172D01*
X024078Y010269D02*
X023147Y010269D01*
X023111Y010366D02*
X024078Y010366D01*
X024078Y010463D02*
X022887Y010463D01*
X022948Y010643D02*
X022948Y010072D01*
X022358Y010072D02*
X022358Y008891D01*
X026295Y004954D01*
X026295Y004560D01*
X025507Y003773D01*
X025507Y002572D01*
X024720Y002572D02*
X024720Y005348D01*
X024720Y005741D01*
X021964Y008497D01*
X021964Y010072D01*
X021767Y010072D02*
X021767Y008300D01*
X023933Y006135D01*
X023933Y005741D01*
X023933Y002572D01*
X023145Y002572D02*
X023145Y006135D01*
X023145Y006529D01*
X021570Y008104D01*
X021570Y009482D01*
X021374Y009678D01*
X021374Y010072D01*
X021570Y010072D02*
X021570Y010860D01*
X020783Y011647D01*
X020783Y011844D01*
X020403Y012015D02*
X018407Y012015D01*
X018444Y011918D02*
X020366Y011918D01*
X020366Y011821D02*
X018444Y011821D01*
X018428Y011724D02*
X020382Y011724D01*
X020422Y011627D02*
X018388Y011627D01*
X018302Y011530D02*
X020508Y011530D01*
X020372Y011433D02*
X020646Y011433D01*
X020743Y011336D02*
X020502Y011336D01*
X020568Y011239D02*
X020840Y011239D01*
X020937Y011142D02*
X020654Y011142D01*
X020751Y011045D02*
X021034Y011045D01*
X021131Y010948D02*
X020848Y010948D01*
X020945Y010851D02*
X021228Y010851D01*
X021322Y010754D02*
X021042Y010754D01*
X021139Y010657D02*
X021322Y010657D01*
X021322Y010560D02*
X021209Y010560D01*
X021228Y010463D02*
X021238Y010463D01*
X021177Y010663D02*
X021177Y010072D01*
X021177Y009285D01*
X021119Y009300D02*
X021322Y009300D01*
X021322Y009379D02*
X021322Y009096D01*
X021031Y009387D01*
X021031Y009676D01*
X021111Y009676D01*
X021126Y009691D01*
X021126Y009629D01*
X021163Y009538D01*
X021322Y009379D01*
X021304Y009397D02*
X021031Y009397D01*
X021031Y009494D02*
X021208Y009494D01*
X021141Y009591D02*
X021031Y009591D01*
X021122Y009688D02*
X021126Y009688D01*
X020980Y010072D02*
X020980Y010466D01*
X020389Y011056D01*
X020192Y011056D01*
X019905Y010754D02*
X019495Y010754D01*
X019456Y010657D02*
X020067Y010657D01*
X020056Y010463D02*
X019935Y010463D01*
X019996Y010466D02*
X019996Y010072D01*
X020192Y010072D02*
X020192Y007119D01*
X020673Y006639D01*
X020673Y006186D01*
X021167Y006197D02*
X022119Y006197D01*
X022119Y006235D02*
X022119Y006137D01*
X021724Y006137D01*
X021724Y005852D01*
X021734Y005814D01*
X021754Y005780D01*
X021782Y005752D01*
X021816Y005732D01*
X021854Y005722D01*
X022120Y005722D01*
X022120Y006137D01*
X022218Y006137D01*
X022218Y005722D01*
X022484Y005722D01*
X022522Y005732D01*
X022556Y005752D01*
X022583Y005780D01*
X022603Y005814D01*
X022613Y005852D01*
X022613Y006137D01*
X022218Y006137D01*
X022218Y006235D01*
X022613Y006235D01*
X022613Y006521D01*
X022603Y006559D01*
X022583Y006593D01*
X022556Y006621D01*
X022522Y006640D01*
X022484Y006650D01*
X022218Y006650D01*
X022218Y006236D01*
X022120Y006236D01*
X022120Y006650D01*
X021854Y006650D01*
X021816Y006640D01*
X021782Y006621D01*
X021754Y006593D01*
X021734Y006559D01*
X021724Y006521D01*
X021724Y006235D01*
X022119Y006235D01*
X022120Y006294D02*
X022218Y006294D01*
X022218Y006391D02*
X022120Y006391D01*
X022120Y006488D02*
X022218Y006488D01*
X022218Y006585D02*
X022120Y006585D01*
X021749Y006585D02*
X021166Y006585D01*
X021167Y006584D02*
X021050Y006700D01*
X020916Y006700D01*
X020883Y006780D01*
X020763Y006900D01*
X020866Y006900D01*
X021019Y006963D01*
X021136Y007080D01*
X021177Y007178D01*
X021217Y007080D01*
X021334Y006963D01*
X021487Y006900D01*
X021653Y006900D01*
X021806Y006963D01*
X021924Y007080D01*
X021987Y007233D01*
X021987Y007336D01*
X022872Y006451D01*
X022792Y006371D01*
X022729Y006218D01*
X022729Y006052D01*
X022792Y005899D01*
X022897Y005794D01*
X022897Y003027D01*
X022768Y003027D01*
X022651Y002910D01*
X022651Y002234D01*
X022687Y002198D01*
X022651Y002162D01*
X022651Y002100D01*
X022594Y002158D01*
X022454Y002215D01*
X022364Y002305D01*
X022232Y002360D01*
X022202Y002360D01*
X022202Y002379D01*
X022086Y002495D01*
X021409Y002495D01*
X021374Y002460D01*
X021358Y002475D01*
X021358Y002512D01*
X022651Y002512D01*
X022651Y002609D02*
X022129Y002609D01*
X022123Y002599D02*
X022142Y002633D01*
X022153Y002671D01*
X022153Y002936D01*
X021797Y002936D01*
X021797Y003035D01*
X021698Y003035D01*
X021698Y003430D01*
X021472Y003430D01*
X021434Y003420D01*
X021411Y003406D01*
X021358Y003459D01*
X021358Y003820D01*
X021675Y003820D01*
X021675Y003781D01*
X021791Y003665D01*
X022546Y003665D01*
X022663Y003781D01*
X022663Y004576D01*
X022546Y004692D01*
X021791Y004692D01*
X021675Y004576D01*
X021675Y004537D01*
X021167Y004537D01*
X021167Y004576D01*
X021050Y004692D01*
X020295Y004692D01*
X020179Y004576D01*
X020179Y003781D01*
X020295Y003665D01*
X020641Y003665D01*
X020641Y003459D01*
X020545Y003363D01*
X020545Y002608D01*
X020641Y002512D01*
X020490Y002512D01*
X020490Y002609D02*
X020545Y002609D01*
X020545Y002706D02*
X020490Y002706D01*
X020490Y002803D02*
X020545Y002803D01*
X020545Y002900D02*
X020490Y002900D01*
X020490Y002910D02*
X020373Y003027D01*
X020244Y003027D01*
X020244Y003035D01*
X020206Y003126D01*
X020136Y003196D01*
X020047Y003285D01*
X020047Y006873D01*
X020047Y006914D01*
X020052Y006909D01*
X020278Y006683D01*
X020179Y006584D01*
X020179Y005789D01*
X020295Y005673D01*
X021050Y005673D01*
X021167Y005789D01*
X021167Y006584D01*
X021167Y006488D02*
X021724Y006488D01*
X021724Y006391D02*
X021167Y006391D01*
X021167Y006294D02*
X021724Y006294D01*
X021724Y006100D02*
X021167Y006100D01*
X021167Y006003D02*
X021724Y006003D01*
X021724Y005906D02*
X021167Y005906D01*
X021167Y005809D02*
X021737Y005809D01*
X022120Y005809D02*
X022218Y005809D01*
X022218Y005906D02*
X022120Y005906D01*
X022120Y006003D02*
X022218Y006003D01*
X022218Y006100D02*
X022120Y006100D01*
X022218Y006197D02*
X022729Y006197D01*
X022729Y006100D02*
X022613Y006100D01*
X022613Y006003D02*
X022749Y006003D01*
X022789Y005906D02*
X022613Y005906D01*
X022600Y005809D02*
X022882Y005809D01*
X022897Y005712D02*
X021090Y005712D01*
X020256Y005712D02*
X020047Y005712D01*
X020047Y005809D02*
X020179Y005809D01*
X020179Y005906D02*
X020047Y005906D01*
X020047Y006003D02*
X020179Y006003D01*
X020179Y006100D02*
X020047Y006100D01*
X020047Y006197D02*
X020179Y006197D01*
X020179Y006294D02*
X020047Y006294D01*
X020047Y006391D02*
X020179Y006391D01*
X020179Y006488D02*
X020047Y006488D01*
X020047Y006585D02*
X020180Y006585D01*
X020277Y006682D02*
X020047Y006682D01*
X020047Y006779D02*
X020182Y006779D01*
X020086Y006876D02*
X020047Y006876D01*
X019799Y006923D02*
X019602Y007119D01*
X019208Y007513D01*
X019208Y009088D01*
X019405Y009285D01*
X019405Y010072D01*
X019208Y010072D02*
X019208Y011056D01*
X018921Y010754D02*
X017288Y010754D01*
X017191Y010657D02*
X018960Y010657D01*
X018960Y010560D02*
X017094Y010560D01*
X016846Y010663D02*
X018027Y011844D01*
X017647Y012015D02*
X016636Y012015D01*
X016672Y011918D02*
X017610Y011918D01*
X017610Y011821D02*
X016672Y011821D01*
X016657Y011724D02*
X017556Y011724D01*
X017460Y011627D02*
X016617Y011627D01*
X016531Y011530D02*
X017363Y011530D01*
X017266Y011433D02*
X016352Y011433D01*
X016158Y011433D02*
X015667Y011433D01*
X015667Y011336D02*
X017169Y011336D01*
X017072Y011239D02*
X015667Y011239D01*
X015667Y011142D02*
X016975Y011142D01*
X016878Y011045D02*
X015667Y011045D01*
X015667Y010948D02*
X016781Y010948D01*
X016684Y010851D02*
X015667Y010851D01*
X015667Y010754D02*
X016615Y010754D01*
X016598Y010657D02*
X015596Y010657D01*
X015826Y010366D02*
X014735Y010366D01*
X014638Y010269D02*
X015811Y010269D01*
X015811Y010172D02*
X014541Y010172D01*
X014535Y010075D02*
X015811Y010075D01*
X015811Y009979D02*
X014535Y009979D01*
X014535Y009882D02*
X015811Y009882D01*
X015811Y009785D02*
X014535Y009785D01*
X014535Y009688D02*
X015717Y009688D01*
X015620Y009591D02*
X014535Y009591D01*
X014535Y009494D02*
X015523Y009494D01*
X015426Y009397D02*
X014520Y009397D01*
X014456Y009300D02*
X015329Y009300D01*
X015232Y009203D02*
X014359Y009203D01*
X014262Y009106D02*
X015135Y009106D01*
X015038Y009009D02*
X014165Y009009D01*
X014068Y008912D02*
X014941Y008912D01*
X015035Y008655D02*
X016059Y009678D01*
X016059Y010072D01*
X016255Y010072D02*
X016255Y009482D01*
X015114Y008340D01*
X012565Y008340D01*
X012565Y008655D02*
X015035Y008655D01*
X015192Y008025D02*
X016452Y009285D01*
X016452Y010072D01*
X016649Y010072D02*
X016649Y009088D01*
X015271Y007710D01*
X012565Y007710D01*
X012565Y008025D02*
X015192Y008025D01*
X015468Y007513D02*
X013893Y007513D01*
X013500Y007119D01*
X013696Y006923D01*
X013696Y006332D01*
X013931Y006098D01*
X014423Y006098D01*
X014423Y005598D02*
X013643Y005598D01*
X013106Y006135D01*
X012721Y006294D02*
X001741Y006294D01*
X001741Y006391D02*
X012772Y006391D01*
X012689Y006197D02*
X001741Y006197D01*
X001741Y006100D02*
X006386Y006100D01*
X006374Y006095D02*
X006257Y005977D01*
X006193Y005824D01*
X006193Y005659D01*
X006257Y005505D01*
X006374Y005388D01*
X006527Y005325D01*
X006632Y005325D01*
X006846Y005111D01*
X006948Y005069D01*
X006962Y005069D01*
X006962Y004754D01*
X007079Y004637D01*
X008109Y004637D01*
X008226Y004754D01*
X008226Y005942D01*
X008109Y006058D01*
X007079Y006058D01*
X006973Y005953D01*
X006963Y005977D01*
X006846Y006095D01*
X006693Y006158D01*
X006527Y006158D01*
X006374Y006095D01*
X006282Y006003D02*
X001741Y006003D01*
X001741Y005906D02*
X006227Y005906D01*
X006193Y005809D02*
X001741Y005809D01*
X001741Y005712D02*
X002356Y005712D01*
X002364Y005715D02*
X002156Y005629D01*
X001998Y005470D01*
X001912Y005263D01*
X001912Y005039D01*
X001998Y004831D01*
X002156Y004673D01*
X002364Y004587D01*
X002588Y004587D01*
X002795Y004673D01*
X002954Y004831D01*
X003040Y005039D01*
X003040Y005263D01*
X002954Y005470D01*
X002795Y005629D01*
X002588Y005715D01*
X002364Y005715D01*
X002596Y005712D02*
X006193Y005712D01*
X006211Y005615D02*
X002810Y005615D01*
X002907Y005518D02*
X006251Y005518D01*
X006341Y005421D02*
X002975Y005421D01*
X003015Y005324D02*
X006633Y005324D01*
X006730Y005227D02*
X003040Y005227D01*
X003040Y005130D02*
X006827Y005130D01*
X006962Y005033D02*
X003038Y005033D01*
X002998Y004936D02*
X006962Y004936D01*
X006962Y004839D02*
X002957Y004839D01*
X002865Y004742D02*
X005655Y004742D01*
X005639Y004736D02*
X005450Y004547D01*
X005348Y004300D01*
X005348Y004033D01*
X005450Y003786D01*
X005639Y003598D01*
X005886Y003495D01*
X006153Y003495D01*
X006393Y003595D01*
X006767Y003221D01*
X006846Y003143D01*
X006948Y003100D01*
X006962Y003100D01*
X006962Y002785D01*
X007079Y002669D01*
X008109Y002669D01*
X008226Y002785D01*
X008226Y003973D01*
X008109Y004090D01*
X007079Y004090D01*
X006962Y003973D01*
X006962Y003815D01*
X006690Y004086D01*
X006690Y004300D01*
X006588Y004547D01*
X006399Y004736D01*
X006153Y004838D01*
X005886Y004838D01*
X005639Y004736D01*
X005549Y004645D02*
X002729Y004645D01*
X002222Y004645D02*
X001741Y004645D01*
X001741Y004548D02*
X005452Y004548D01*
X005411Y004451D02*
X001741Y004451D01*
X001741Y004354D02*
X005370Y004354D01*
X005348Y004257D02*
X001741Y004257D01*
X001741Y004160D02*
X005348Y004160D01*
X005348Y004063D02*
X001741Y004063D01*
X001741Y003966D02*
X005376Y003966D01*
X005416Y003869D02*
X001741Y003869D01*
X001741Y003773D02*
X005464Y003773D01*
X005561Y003676D02*
X002759Y003676D01*
X002795Y003661D02*
X002588Y003746D01*
X002364Y003746D01*
X002156Y003661D01*
X001998Y003502D01*
X001912Y003295D01*
X001912Y003070D01*
X001998Y002863D01*
X002156Y002704D01*
X002364Y002618D01*
X002588Y002618D01*
X002795Y002704D01*
X002954Y002863D01*
X003040Y003070D01*
X003040Y003295D01*
X002954Y003502D01*
X002795Y003661D01*
X002878Y003579D02*
X004910Y003579D01*
X004852Y003555D02*
X004663Y003366D01*
X004561Y003119D01*
X004561Y002852D01*
X004663Y002605D01*
X004852Y002416D01*
X005098Y002314D01*
X005365Y002314D01*
X005612Y002416D01*
X005801Y002605D01*
X005843Y002707D01*
X006101Y002707D01*
X006883Y001924D01*
X006883Y001092D01*
X007000Y000976D01*
X008188Y000976D01*
X008305Y001092D01*
X008305Y002123D01*
X008188Y002239D01*
X007356Y002239D01*
X006374Y003222D01*
X006271Y003264D01*
X006161Y003264D01*
X005843Y003264D01*
X005801Y003366D01*
X005612Y003555D01*
X005365Y003657D01*
X005098Y003657D01*
X004852Y003555D01*
X004779Y003482D02*
X002963Y003482D01*
X003003Y003385D02*
X004682Y003385D01*
X004630Y003288D02*
X003040Y003288D01*
X003040Y003191D02*
X004590Y003191D01*
X004561Y003094D02*
X003040Y003094D01*
X003010Y002997D02*
X004561Y002997D01*
X004561Y002900D02*
X002969Y002900D01*
X002894Y002803D02*
X004581Y002803D01*
X004621Y002706D02*
X002797Y002706D01*
X002154Y002706D02*
X001741Y002706D01*
X001741Y002803D02*
X002058Y002803D01*
X001982Y002900D02*
X001741Y002900D01*
X001741Y002997D02*
X001942Y002997D01*
X001912Y003094D02*
X001741Y003094D01*
X001741Y003191D02*
X001912Y003191D01*
X001912Y003288D02*
X001741Y003288D01*
X001741Y003385D02*
X001949Y003385D01*
X001989Y003482D02*
X001741Y003482D01*
X001741Y003579D02*
X002074Y003579D01*
X002192Y003676D02*
X001741Y003676D01*
X001741Y004742D02*
X002087Y004742D01*
X001994Y004839D02*
X001741Y004839D01*
X001741Y004936D02*
X001954Y004936D01*
X001914Y005033D02*
X001741Y005033D01*
X001741Y005130D02*
X001912Y005130D01*
X001912Y005227D02*
X001741Y005227D01*
X001741Y005324D02*
X001937Y005324D01*
X001977Y005421D02*
X001741Y005421D01*
X001741Y005518D02*
X002045Y005518D01*
X002142Y005615D02*
X001741Y005615D01*
X001741Y006488D02*
X007796Y006488D01*
X007699Y006585D02*
X001741Y006585D01*
X001741Y006682D02*
X007699Y006682D01*
X007699Y006779D02*
X006856Y006779D01*
X006885Y006791D02*
X007019Y006925D01*
X007091Y007099D01*
X007091Y007289D01*
X007019Y007464D01*
X006885Y007598D01*
X006710Y007670D01*
X005966Y007670D01*
X005791Y007598D01*
X005657Y007464D01*
X005585Y007289D01*
X005585Y007099D01*
X005657Y006925D01*
X005791Y006791D01*
X005966Y006718D01*
X006710Y006718D01*
X006885Y006791D01*
X006970Y006876D02*
X007699Y006876D01*
X007699Y006972D02*
X007039Y006972D01*
X007079Y007069D02*
X007699Y007069D01*
X007699Y007166D02*
X007091Y007166D01*
X007091Y007263D02*
X007699Y007263D01*
X007699Y007360D02*
X007062Y007360D01*
X007021Y007457D02*
X007699Y007457D01*
X007699Y007554D02*
X006928Y007554D01*
X006756Y007651D02*
X007699Y007651D01*
X007699Y007748D02*
X006782Y007748D01*
X006710Y007718D02*
X006885Y007791D01*
X007019Y007925D01*
X007091Y008099D01*
X007091Y008289D01*
X007019Y008464D01*
X006885Y008598D01*
X006710Y008670D01*
X005966Y008670D01*
X005791Y008598D01*
X005657Y008464D01*
X005585Y008289D01*
X005585Y008099D01*
X005657Y007925D01*
X005791Y007791D01*
X005966Y007718D01*
X006710Y007718D01*
X006939Y007845D02*
X007699Y007845D01*
X007699Y007942D02*
X007026Y007942D01*
X007066Y008039D02*
X007699Y008039D01*
X007699Y008136D02*
X007091Y008136D01*
X007091Y008233D02*
X007699Y008233D01*
X007699Y008330D02*
X007074Y008330D01*
X007034Y008427D02*
X007699Y008427D01*
X007699Y008524D02*
X006959Y008524D01*
X006829Y008621D02*
X007699Y008621D01*
X007699Y008718D02*
X001741Y008718D01*
X001741Y008815D02*
X002767Y008815D01*
X002791Y008791D02*
X002966Y008718D01*
X003710Y008718D01*
X003885Y008791D01*
X004019Y008925D01*
X004091Y009099D01*
X004091Y009289D01*
X004019Y009464D01*
X003885Y009598D01*
X003710Y009670D01*
X002966Y009670D01*
X002791Y009598D01*
X002657Y009464D01*
X002585Y009289D01*
X002585Y009099D01*
X002657Y008925D01*
X002791Y008791D01*
X002670Y008912D02*
X001741Y008912D01*
X001741Y009009D02*
X002622Y009009D01*
X002585Y009106D02*
X001741Y009106D01*
X001741Y009203D02*
X002585Y009203D01*
X002589Y009300D02*
X001741Y009300D01*
X001741Y009397D02*
X002630Y009397D01*
X002687Y009494D02*
X001741Y009494D01*
X001741Y009591D02*
X002784Y009591D01*
X002806Y009785D02*
X001741Y009785D01*
X001741Y009882D02*
X002700Y009882D01*
X002657Y009925D02*
X002791Y009791D01*
X002966Y009718D01*
X003710Y009718D01*
X003885Y009791D01*
X004019Y009925D01*
X004091Y010099D01*
X004091Y010289D01*
X004019Y010464D01*
X003885Y010598D01*
X003710Y010670D01*
X002966Y010670D01*
X002791Y010598D01*
X002657Y010464D01*
X002585Y010289D01*
X002585Y010099D01*
X002657Y009925D01*
X002635Y009979D02*
X001741Y009979D01*
X001741Y010075D02*
X002595Y010075D01*
X002585Y010172D02*
X001741Y010172D01*
X001741Y010269D02*
X002585Y010269D01*
X002617Y010366D02*
X001741Y010366D01*
X001741Y010463D02*
X002657Y010463D01*
X002754Y010560D02*
X001741Y010560D01*
X001741Y010657D02*
X002935Y010657D01*
X003741Y010657D02*
X007699Y010657D01*
X007699Y010560D02*
X006836Y010560D01*
X006839Y010559D02*
X006779Y010589D01*
X006715Y010610D01*
X006649Y010621D01*
X006377Y010621D01*
X006377Y010234D01*
X006299Y010234D01*
X006299Y010621D01*
X006027Y010621D01*
X005961Y010610D01*
X005897Y010589D01*
X005837Y010559D01*
X005783Y010519D01*
X005736Y010472D01*
X005696Y010418D01*
X005666Y010358D01*
X005645Y010294D01*
X005635Y010234D01*
X006298Y010234D01*
X006298Y010155D01*
X005635Y010155D01*
X005645Y010094D01*
X005666Y010030D01*
X005696Y009971D01*
X005736Y009916D01*
X005783Y009869D01*
X005837Y009829D01*
X005897Y009799D01*
X005961Y009778D01*
X006027Y009768D01*
X006299Y009768D01*
X006299Y010155D01*
X006377Y010155D01*
X006377Y009768D01*
X006649Y009768D01*
X006715Y009778D01*
X006779Y009799D01*
X006839Y009829D01*
X006893Y009869D01*
X006940Y009916D01*
X006980Y009971D01*
X007010Y010030D01*
X007031Y010094D01*
X007041Y010155D01*
X006378Y010155D01*
X006378Y010234D01*
X007041Y010234D01*
X007031Y010294D01*
X007010Y010358D01*
X006980Y010418D01*
X006940Y010472D01*
X006893Y010519D01*
X006839Y010559D01*
X006947Y010463D02*
X007699Y010463D01*
X007699Y010366D02*
X007006Y010366D01*
X007035Y010269D02*
X007699Y010269D01*
X007699Y010172D02*
X006378Y010172D01*
X006298Y010172D02*
X004091Y010172D01*
X004081Y010075D02*
X005651Y010075D01*
X005692Y009979D02*
X004041Y009979D01*
X003976Y009882D02*
X005771Y009882D01*
X005942Y009785D02*
X003870Y009785D01*
X003892Y009591D02*
X005784Y009591D01*
X005791Y009598D02*
X005657Y009464D01*
X005585Y009289D01*
X005585Y009099D01*
X005657Y008925D01*
X005791Y008791D01*
X005966Y008718D01*
X006710Y008718D01*
X006885Y008791D01*
X007019Y008925D01*
X007091Y009099D01*
X007091Y009289D01*
X007019Y009464D01*
X006885Y009598D01*
X006710Y009670D01*
X005966Y009670D01*
X005791Y009598D01*
X005687Y009494D02*
X003989Y009494D01*
X004047Y009397D02*
X005630Y009397D01*
X005589Y009300D02*
X004087Y009300D01*
X004091Y009203D02*
X005585Y009203D01*
X005585Y009106D02*
X004091Y009106D01*
X004054Y009009D02*
X005622Y009009D01*
X005670Y008912D02*
X004006Y008912D01*
X003909Y008815D02*
X005767Y008815D01*
X005848Y008621D02*
X003829Y008621D01*
X003885Y008598D02*
X003710Y008670D01*
X002966Y008670D01*
X002791Y008598D01*
X002657Y008464D01*
X002585Y008289D01*
X002585Y008099D01*
X002657Y007925D01*
X002791Y007791D01*
X002966Y007718D01*
X003710Y007718D01*
X003885Y007791D01*
X004019Y007925D01*
X004091Y008099D01*
X004091Y008289D01*
X004019Y008464D01*
X003885Y008598D01*
X003959Y008524D02*
X005718Y008524D01*
X005642Y008427D02*
X004034Y008427D01*
X004074Y008330D02*
X005602Y008330D01*
X005585Y008233D02*
X004091Y008233D01*
X004091Y008136D02*
X005585Y008136D01*
X005610Y008039D02*
X004066Y008039D01*
X004026Y007942D02*
X005650Y007942D01*
X005737Y007845D02*
X003939Y007845D01*
X003782Y007748D02*
X005894Y007748D01*
X005921Y007651D02*
X003756Y007651D01*
X003710Y007670D02*
X002966Y007670D01*
X002791Y007598D01*
X002657Y007464D01*
X002585Y007289D01*
X002585Y007099D01*
X002657Y006925D01*
X002791Y006791D01*
X002966Y006718D01*
X003710Y006718D01*
X003885Y006791D01*
X004019Y006925D01*
X004091Y007099D01*
X004091Y007289D01*
X004019Y007464D01*
X003885Y007598D01*
X003710Y007670D01*
X003928Y007554D02*
X005748Y007554D01*
X005655Y007457D02*
X004021Y007457D01*
X004062Y007360D02*
X005615Y007360D01*
X005585Y007263D02*
X004091Y007263D01*
X004091Y007166D02*
X005585Y007166D01*
X005597Y007069D02*
X004079Y007069D01*
X004039Y006972D02*
X005638Y006972D01*
X005706Y006876D02*
X003970Y006876D01*
X003856Y006779D02*
X005820Y006779D01*
X006833Y006100D02*
X012689Y006100D01*
X012710Y006003D02*
X008165Y006003D01*
X008226Y005906D02*
X012750Y005906D01*
X012843Y005809D02*
X008226Y005809D01*
X008226Y005712D02*
X011750Y005712D01*
X011680Y005615D02*
X008226Y005615D01*
X008226Y005518D02*
X011677Y005518D01*
X011677Y005421D02*
X008226Y005421D01*
X008226Y005324D02*
X012072Y005324D01*
X012072Y005421D02*
X012171Y005421D01*
X012171Y005518D02*
X012072Y005518D01*
X012072Y005615D02*
X012171Y005615D01*
X012171Y005712D02*
X012072Y005712D01*
X011677Y005227D02*
X008226Y005227D01*
X008226Y005130D02*
X011677Y005130D01*
X011682Y005033D02*
X008226Y005033D01*
X008226Y004936D02*
X011645Y004936D01*
X011627Y004839D02*
X008226Y004839D01*
X008215Y004742D02*
X011627Y004742D01*
X011627Y004645D02*
X008118Y004645D01*
X008136Y004063D02*
X015133Y004063D01*
X015044Y004160D02*
X013322Y004160D01*
X013403Y004257D02*
X015004Y004257D01*
X015230Y003966D02*
X008226Y003966D01*
X008226Y003869D02*
X015327Y003869D01*
X015424Y003773D02*
X008226Y003773D01*
X008226Y003676D02*
X015521Y003676D01*
X015618Y003579D02*
X008226Y003579D01*
X008226Y003482D02*
X015715Y003482D01*
X015812Y003385D02*
X008226Y003385D01*
X008226Y003288D02*
X010492Y003288D01*
X010350Y003191D02*
X008226Y003191D01*
X008226Y003094D02*
X010262Y003094D01*
X010222Y002997D02*
X008226Y002997D01*
X008226Y002900D02*
X010189Y002900D01*
X010189Y002803D02*
X008226Y002803D01*
X008147Y002706D02*
X010189Y002706D01*
X010230Y002609D02*
X006987Y002609D01*
X007041Y002706D02*
X006890Y002706D01*
X006962Y002803D02*
X006793Y002803D01*
X006696Y002900D02*
X006962Y002900D01*
X006962Y002997D02*
X006599Y002997D01*
X006502Y003094D02*
X006962Y003094D01*
X006798Y003191D02*
X006405Y003191D01*
X006604Y003385D02*
X005782Y003385D01*
X005833Y003288D02*
X006701Y003288D01*
X006507Y003482D02*
X005685Y003482D01*
X005685Y003579D02*
X005554Y003579D01*
X005842Y002706D02*
X006101Y002706D01*
X006198Y002609D02*
X005802Y002609D01*
X005707Y002512D02*
X006295Y002512D01*
X006392Y002415D02*
X005608Y002415D01*
X005374Y002318D02*
X006489Y002318D01*
X006586Y002221D02*
X006238Y002221D01*
X006220Y002239D02*
X005031Y002239D01*
X004915Y002123D01*
X004915Y001923D01*
X004877Y001961D01*
X004724Y002024D01*
X004558Y002024D01*
X004405Y001961D01*
X004288Y001844D01*
X004225Y001690D01*
X004225Y001525D01*
X004288Y001372D01*
X004405Y001254D01*
X004558Y001191D01*
X004724Y001191D01*
X004877Y001254D01*
X004915Y001292D01*
X004915Y001092D01*
X005031Y000976D01*
X006220Y000976D01*
X006336Y001092D01*
X006336Y002123D01*
X006220Y002239D01*
X006335Y002124D02*
X006683Y002124D01*
X006780Y002027D02*
X006336Y002027D01*
X006336Y001930D02*
X006877Y001930D01*
X006883Y001833D02*
X006336Y001833D01*
X006336Y001736D02*
X006883Y001736D01*
X006883Y001639D02*
X006336Y001639D01*
X006336Y001542D02*
X006883Y001542D01*
X006883Y001445D02*
X006336Y001445D01*
X006336Y001348D02*
X006883Y001348D01*
X006883Y001251D02*
X006336Y001251D01*
X006336Y001154D02*
X006883Y001154D01*
X006918Y001057D02*
X006301Y001057D01*
X004950Y001057D02*
X001741Y001057D01*
X001741Y000960D02*
X013666Y000960D01*
X013763Y000863D02*
X001741Y000863D01*
X001741Y000766D02*
X013860Y000766D01*
X013569Y001057D02*
X008270Y001057D01*
X008305Y001154D02*
X013472Y001154D01*
X013375Y001251D02*
X008305Y001251D01*
X008305Y001348D02*
X010611Y001348D01*
X010601Y001350D02*
X010663Y001340D01*
X010663Y001763D01*
X010761Y001763D01*
X010761Y001340D01*
X010823Y001350D01*
X010894Y001373D01*
X010961Y001407D01*
X011021Y001451D01*
X011074Y001503D01*
X011118Y001564D01*
X011151Y001630D01*
X011174Y001701D01*
X011184Y001763D01*
X010761Y001763D01*
X010761Y001861D01*
X011184Y001861D01*
X011174Y001923D01*
X011151Y001994D01*
X011118Y002061D01*
X011074Y002121D01*
X011021Y002174D01*
X010961Y002218D01*
X010894Y002252D01*
X010823Y002275D01*
X010761Y002284D01*
X010761Y001862D01*
X010663Y001862D01*
X010663Y002284D01*
X010601Y002275D01*
X010530Y002252D01*
X010464Y002218D01*
X010403Y002174D01*
X010351Y002121D01*
X010307Y002061D01*
X010273Y001994D01*
X010250Y001923D01*
X010240Y001861D01*
X010663Y001861D01*
X010663Y001763D01*
X010240Y001763D01*
X010250Y001701D01*
X010273Y001630D01*
X010307Y001564D01*
X010351Y001503D01*
X010403Y001451D01*
X010464Y001407D01*
X010530Y001373D01*
X010601Y001350D01*
X010663Y001348D02*
X010761Y001348D01*
X010813Y001348D02*
X011464Y001348D01*
X011339Y001445D02*
X011013Y001445D01*
X011102Y001542D02*
X011257Y001542D01*
X011217Y001639D02*
X011154Y001639D01*
X011180Y001736D02*
X011189Y001736D01*
X011189Y001833D02*
X010761Y001833D01*
X010761Y001736D02*
X010663Y001736D01*
X010663Y001639D02*
X010761Y001639D01*
X010761Y001542D02*
X010663Y001542D01*
X010663Y001445D02*
X010761Y001445D01*
X010663Y001833D02*
X008305Y001833D01*
X008305Y001736D02*
X010244Y001736D01*
X010270Y001639D02*
X008305Y001639D01*
X008305Y001542D02*
X010322Y001542D01*
X010411Y001445D02*
X008305Y001445D01*
X008305Y001930D02*
X010252Y001930D01*
X010290Y002027D02*
X008305Y002027D01*
X008304Y002124D02*
X010354Y002124D01*
X010470Y002221D02*
X008207Y002221D01*
X007278Y002318D02*
X010537Y002318D01*
X010663Y002221D02*
X010761Y002221D01*
X010761Y002124D02*
X010663Y002124D01*
X010663Y002027D02*
X010761Y002027D01*
X010761Y001930D02*
X010663Y001930D01*
X010954Y002221D02*
X011380Y002221D01*
X011283Y002124D02*
X011071Y002124D01*
X011135Y002027D02*
X011234Y002027D01*
X011194Y001930D02*
X011172Y001930D01*
X010887Y002318D02*
X011537Y002318D01*
X011369Y002415D02*
X011055Y002415D01*
X011152Y002512D02*
X011272Y002512D01*
X011230Y002609D02*
X011195Y002609D01*
X011202Y002997D02*
X011222Y002997D01*
X011262Y003094D02*
X011162Y003094D01*
X011074Y003191D02*
X011350Y003191D01*
X011492Y003288D02*
X010933Y003288D01*
X010272Y002512D02*
X007084Y002512D01*
X007181Y002415D02*
X010369Y002415D01*
X011933Y003288D02*
X012492Y003288D01*
X012350Y003191D02*
X012074Y003191D01*
X012162Y003094D02*
X012262Y003094D01*
X012222Y002997D02*
X012202Y002997D01*
X012933Y003288D02*
X013492Y003288D01*
X013350Y003191D02*
X013074Y003191D01*
X013162Y003094D02*
X013262Y003094D01*
X013222Y002997D02*
X013202Y002997D01*
X013887Y002318D02*
X014276Y002318D01*
X014189Y002415D02*
X014055Y002415D01*
X014152Y002512D02*
X014189Y002512D01*
X014044Y002221D02*
X014470Y002221D01*
X014354Y002124D02*
X014141Y002124D01*
X014190Y002027D02*
X014290Y002027D01*
X014252Y001930D02*
X014230Y001930D01*
X014236Y001833D02*
X014663Y001833D01*
X014663Y001930D02*
X014761Y001930D01*
X014761Y001833D02*
X016003Y001833D01*
X016003Y001736D02*
X015180Y001736D01*
X015154Y001639D02*
X016003Y001639D01*
X016003Y001542D02*
X015102Y001542D01*
X015172Y001930D02*
X016003Y001930D01*
X016003Y002027D02*
X015135Y002027D01*
X015071Y002124D02*
X016003Y002124D01*
X016003Y002221D02*
X014954Y002221D01*
X014761Y002221D02*
X014663Y002221D01*
X014663Y002124D02*
X014761Y002124D01*
X014761Y002027D02*
X014663Y002027D01*
X015149Y002318D02*
X016003Y002318D01*
X016003Y002415D02*
X015236Y002415D01*
X015236Y002512D02*
X016003Y002512D01*
X016003Y002609D02*
X015236Y002609D01*
X015236Y002706D02*
X016003Y002706D01*
X016003Y002803D02*
X015236Y002803D01*
X015236Y002900D02*
X016003Y002900D01*
X016003Y002997D02*
X015236Y002997D01*
X015236Y003094D02*
X016003Y003094D01*
X016003Y003191D02*
X015236Y003191D01*
X015167Y003288D02*
X015909Y003288D01*
X016218Y004598D02*
X016059Y004757D01*
X016059Y004954D01*
X016218Y004598D02*
X016907Y004598D01*
X016907Y005094D02*
X017494Y005094D01*
X017811Y004777D01*
X018039Y004777D01*
X018039Y005525D02*
X018027Y005537D01*
X018027Y005545D01*
X018421Y005938D01*
X018421Y010072D01*
X018618Y010072D02*
X018618Y003182D01*
X018421Y002986D01*
X018421Y002572D01*
X019208Y002572D02*
X019208Y002986D01*
X019011Y003182D01*
X019011Y006332D01*
X018814Y006529D01*
X018814Y010072D01*
X019011Y010072D02*
X019011Y007119D01*
X019405Y006726D01*
X019405Y005151D01*
X020047Y005130D02*
X022897Y005130D01*
X022897Y005033D02*
X020047Y005033D01*
X020047Y004936D02*
X022897Y004936D01*
X022897Y004839D02*
X020047Y004839D01*
X020047Y004742D02*
X022897Y004742D01*
X022897Y004645D02*
X022593Y004645D01*
X022663Y004548D02*
X022897Y004548D01*
X022897Y004451D02*
X022663Y004451D01*
X022663Y004354D02*
X022897Y004354D01*
X022897Y004257D02*
X022663Y004257D01*
X022663Y004160D02*
X022897Y004160D01*
X022897Y004063D02*
X022663Y004063D01*
X022663Y003966D02*
X022897Y003966D01*
X022897Y003869D02*
X022663Y003869D01*
X022654Y003773D02*
X022897Y003773D01*
X022897Y003676D02*
X022557Y003676D01*
X022897Y003579D02*
X021358Y003579D01*
X021358Y003676D02*
X021780Y003676D01*
X021683Y003773D02*
X021358Y003773D01*
X021358Y003482D02*
X022897Y003482D01*
X022897Y003385D02*
X022111Y003385D01*
X022123Y003372D02*
X022095Y003400D01*
X022061Y003420D01*
X022023Y003430D01*
X021797Y003430D01*
X021797Y003035D01*
X022153Y003035D01*
X022153Y003300D01*
X022142Y003338D01*
X022123Y003372D01*
X022153Y003288D02*
X022897Y003288D01*
X022897Y003191D02*
X022153Y003191D01*
X022153Y003094D02*
X022897Y003094D01*
X022738Y002997D02*
X021797Y002997D01*
X021797Y002936D02*
X021797Y002541D01*
X022023Y002541D01*
X022061Y002551D01*
X022095Y002571D01*
X022123Y002599D01*
X022153Y002706D02*
X022651Y002706D01*
X022651Y002803D02*
X022153Y002803D01*
X022153Y002900D02*
X022651Y002900D01*
X022651Y002415D02*
X022166Y002415D01*
X022334Y002318D02*
X022651Y002318D01*
X022664Y002221D02*
X022449Y002221D01*
X022627Y002124D02*
X022651Y002124D01*
X021797Y002609D02*
X021698Y002609D01*
X021698Y002541D02*
X021698Y002936D01*
X021797Y002936D01*
X021797Y002900D02*
X021698Y002900D01*
X021698Y002803D02*
X021797Y002803D01*
X021797Y002706D02*
X021698Y002706D01*
X021698Y002541D02*
X021472Y002541D01*
X021434Y002551D01*
X021411Y002565D01*
X021358Y002512D01*
X021698Y003094D02*
X021797Y003094D01*
X021797Y003191D02*
X021698Y003191D01*
X021698Y003288D02*
X021797Y003288D01*
X021797Y003385D02*
X021698Y003385D01*
X020641Y003482D02*
X020047Y003482D01*
X020047Y003579D02*
X020641Y003579D01*
X020566Y003385D02*
X020047Y003385D01*
X020047Y003288D02*
X020545Y003288D01*
X020545Y003191D02*
X020141Y003191D01*
X020219Y003094D02*
X020545Y003094D01*
X020545Y002997D02*
X020403Y002997D01*
X020490Y002910D02*
X020490Y002234D01*
X020454Y002198D01*
X020490Y002162D01*
X020490Y001496D01*
X020641Y001496D01*
X020641Y001528D01*
X020545Y001624D01*
X020545Y002379D01*
X020641Y002475D01*
X020641Y002512D01*
X020581Y002415D02*
X020490Y002415D01*
X020490Y002318D02*
X020545Y002318D01*
X020545Y002221D02*
X020477Y002221D01*
X020490Y002124D02*
X020545Y002124D01*
X020545Y002027D02*
X020490Y002027D01*
X020490Y001930D02*
X020545Y001930D01*
X020545Y001833D02*
X020490Y001833D01*
X020490Y001736D02*
X020545Y001736D01*
X020545Y001639D02*
X020490Y001639D01*
X020490Y001542D02*
X020626Y001542D01*
X019996Y002572D02*
X019996Y002986D01*
X019799Y003182D01*
X019799Y006923D01*
X020787Y006876D02*
X022448Y006876D01*
X022351Y006972D02*
X021816Y006972D01*
X021913Y007069D02*
X022254Y007069D01*
X022157Y007166D02*
X021959Y007166D01*
X021987Y007263D02*
X022060Y007263D01*
X021570Y007316D02*
X021570Y007513D01*
X021374Y007710D01*
X021374Y008694D01*
X020783Y009285D01*
X020783Y010072D01*
X020586Y010072D02*
X020586Y009088D01*
X021177Y008497D01*
X021177Y007907D01*
X020783Y007513D01*
X020783Y007316D01*
X021172Y007166D02*
X021181Y007166D01*
X021228Y007069D02*
X021125Y007069D01*
X021028Y006972D02*
X021325Y006972D01*
X021069Y006682D02*
X022642Y006682D01*
X022588Y006585D02*
X022739Y006585D01*
X022836Y006488D02*
X022613Y006488D01*
X022613Y006391D02*
X022812Y006391D01*
X022760Y006294D02*
X022613Y006294D01*
X022545Y006779D02*
X020883Y006779D01*
X020047Y005615D02*
X022897Y005615D01*
X022897Y005518D02*
X020047Y005518D01*
X020047Y005421D02*
X022897Y005421D01*
X022897Y005324D02*
X020047Y005324D01*
X020047Y005227D02*
X022897Y005227D01*
X021744Y004645D02*
X021097Y004645D01*
X021167Y004548D02*
X021675Y004548D01*
X020284Y003676D02*
X020047Y003676D01*
X020047Y003773D02*
X020187Y003773D01*
X020179Y003869D02*
X020047Y003869D01*
X020047Y003966D02*
X020179Y003966D01*
X020179Y004063D02*
X020047Y004063D01*
X020047Y004160D02*
X020179Y004160D01*
X020179Y004257D02*
X020047Y004257D01*
X020047Y004354D02*
X020179Y004354D01*
X020179Y004451D02*
X020047Y004451D01*
X020047Y004548D02*
X020179Y004548D01*
X020248Y004645D02*
X020047Y004645D01*
X018173Y006041D02*
X018111Y005980D01*
X017661Y005980D01*
X017545Y005863D01*
X017545Y005341D01*
X017543Y005342D01*
X017471Y005342D01*
X017469Y005344D01*
X017538Y005413D01*
X017538Y005775D01*
X017434Y005879D01*
X017459Y005904D01*
X017479Y005938D01*
X017489Y005976D01*
X017489Y006094D01*
X017489Y006212D01*
X017479Y006250D01*
X017459Y006284D01*
X017431Y006312D01*
X017397Y006331D01*
X017394Y006332D01*
X017450Y006388D01*
X018173Y007111D01*
X018173Y006041D01*
X018135Y006003D02*
X017489Y006003D01*
X017489Y006094D02*
X016907Y006094D01*
X017489Y006094D01*
X017489Y006100D02*
X018173Y006100D01*
X018173Y006197D02*
X017489Y006197D01*
X017449Y006294D02*
X018173Y006294D01*
X018173Y006391D02*
X017452Y006391D01*
X017549Y006488D02*
X018173Y006488D01*
X018173Y006585D02*
X017646Y006585D01*
X017743Y006682D02*
X018173Y006682D01*
X018173Y006779D02*
X017840Y006779D01*
X017937Y006876D02*
X018173Y006876D01*
X018173Y006972D02*
X018034Y006972D01*
X018131Y007069D02*
X018173Y007069D01*
X018224Y007513D02*
X017240Y006529D01*
X016059Y006529D01*
X015127Y005598D01*
X014423Y005598D01*
X014287Y006726D02*
X014877Y007316D01*
X015665Y007316D01*
X017240Y008891D01*
X017240Y010072D01*
X017437Y010072D02*
X017437Y008694D01*
X015271Y006529D01*
X015883Y006003D02*
X016324Y006003D01*
X016324Y005976D02*
X016334Y005938D01*
X016354Y005904D01*
X016379Y005879D01*
X016373Y005873D01*
X015770Y005873D01*
X015753Y005873D01*
X016161Y006281D01*
X016352Y006281D01*
X016334Y006250D01*
X016324Y006212D01*
X016324Y006094D01*
X016906Y006094D01*
X016906Y006094D01*
X016324Y006094D01*
X016324Y005976D01*
X016353Y005906D02*
X015786Y005906D01*
X015980Y006100D02*
X016324Y006100D01*
X016324Y006197D02*
X016077Y006197D01*
X016907Y006094D02*
X016907Y006094D01*
X017460Y005906D02*
X017588Y005906D01*
X017545Y005809D02*
X017504Y005809D01*
X017538Y005712D02*
X017545Y005712D01*
X017538Y005615D02*
X017545Y005615D01*
X017538Y005518D02*
X017545Y005518D01*
X017538Y005421D02*
X017545Y005421D01*
X017437Y007119D02*
X017240Y007119D01*
X017437Y007119D02*
X018027Y007710D01*
X018027Y010072D01*
X017830Y010072D02*
X017830Y007907D01*
X017633Y007710D01*
X017043Y007710D01*
X016452Y007119D01*
X015468Y007513D02*
X017043Y009088D01*
X017043Y010072D01*
X016846Y010072D02*
X016846Y010663D01*
X016598Y010560D02*
X014929Y010560D01*
X014832Y010463D02*
X015923Y010463D01*
X015271Y010860D02*
X014877Y010860D01*
X014287Y010269D01*
X014287Y009482D01*
X013775Y008970D01*
X012565Y008970D01*
X012565Y009285D02*
X013696Y009285D01*
X014090Y009678D01*
X014090Y010466D01*
X014681Y011056D01*
X015271Y011056D01*
X015271Y011253D02*
X014484Y011253D01*
X013893Y010663D01*
X013893Y009875D01*
X013618Y009600D01*
X012565Y009600D01*
X012130Y009591D02*
X011779Y009591D01*
X011779Y009688D02*
X012130Y009688D01*
X012130Y009785D02*
X011779Y009785D01*
X011779Y009882D02*
X012130Y009882D01*
X012130Y009979D02*
X011779Y009979D01*
X011779Y010075D02*
X012130Y010075D01*
X012180Y010172D02*
X011779Y010172D01*
X011779Y010269D02*
X012180Y010269D01*
X012130Y010366D02*
X011779Y010366D01*
X011779Y010463D02*
X012130Y010463D01*
X012130Y010560D02*
X011779Y010560D01*
X011779Y010657D02*
X012130Y010657D01*
X012130Y010754D02*
X011779Y010754D01*
X011779Y010851D02*
X012130Y010851D01*
X012130Y010948D02*
X011779Y010948D01*
X011779Y011045D02*
X012130Y011045D01*
X012130Y011142D02*
X011779Y011142D01*
X011779Y011239D02*
X012130Y011239D01*
X012130Y011336D02*
X011779Y011336D01*
X011779Y011433D02*
X012130Y011433D01*
X012130Y011530D02*
X011779Y011530D01*
X011779Y011627D02*
X012130Y011627D01*
X012130Y011724D02*
X011779Y011724D01*
X011779Y011821D02*
X012130Y011821D01*
X012130Y011918D02*
X011779Y011918D01*
X011779Y012015D02*
X012130Y012015D01*
X012130Y012112D02*
X011779Y012112D01*
X011779Y012209D02*
X012130Y012209D01*
X012130Y012306D02*
X011779Y012306D01*
X011779Y012403D02*
X012130Y012403D01*
X012130Y012500D02*
X011779Y012500D01*
X011779Y012597D02*
X012130Y012597D01*
X012130Y012694D02*
X011779Y012694D01*
X011779Y012791D02*
X012130Y012791D01*
X012130Y012888D02*
X011779Y012888D01*
X011779Y012985D02*
X012130Y012985D01*
X012130Y013081D02*
X011779Y013081D01*
X011838Y013178D02*
X012130Y013178D01*
X012130Y013275D02*
X011935Y013275D01*
X012032Y013372D02*
X012130Y013372D01*
X012129Y013469D02*
X012130Y013469D01*
X012122Y013812D02*
X015271Y013812D01*
X015271Y013615D02*
X016059Y013615D01*
X016255Y013812D01*
X015863Y013954D02*
X015667Y013954D01*
X015667Y014051D02*
X015905Y014051D01*
X016002Y014148D02*
X015667Y014148D01*
X015667Y014245D02*
X018517Y014245D01*
X018517Y014148D02*
X016509Y014148D01*
X016606Y014051D02*
X018517Y014051D01*
X018517Y013954D02*
X016648Y013954D01*
X016672Y013857D02*
X018517Y013857D01*
X018517Y013760D02*
X016672Y013760D01*
X016645Y013663D02*
X018517Y013663D01*
X018517Y013566D02*
X016599Y013566D01*
X016502Y013469D02*
X018517Y013469D01*
X018517Y013435D02*
X018634Y013318D01*
X020373Y013318D01*
X020490Y013435D01*
X020490Y015174D01*
X020373Y015291D01*
X018634Y015291D01*
X018517Y015174D01*
X018517Y013435D01*
X018579Y013372D02*
X016120Y013372D01*
X015862Y013222D02*
X016649Y013222D01*
X016846Y013419D01*
X016804Y013178D02*
X015667Y013178D01*
X015667Y013081D02*
X016707Y013081D01*
X017043Y012828D02*
X015271Y012828D01*
X015271Y012631D02*
X013893Y012631D01*
X013066Y011804D01*
X012565Y011804D01*
X012565Y011489D02*
X013145Y011489D01*
X014090Y012434D01*
X015271Y012434D01*
X015271Y012237D02*
X014287Y012237D01*
X013224Y011174D01*
X012565Y011174D01*
X012565Y010860D02*
X013303Y010860D01*
X014484Y012041D01*
X015271Y012041D01*
X015271Y011844D02*
X016255Y011844D01*
X015980Y011530D02*
X015667Y011530D01*
X015665Y011647D02*
X015862Y011450D01*
X015665Y011647D02*
X015271Y011647D01*
X015271Y011450D02*
X014287Y011450D01*
X013381Y010545D01*
X012565Y010545D01*
X012130Y009494D02*
X011779Y009494D01*
X011779Y009397D02*
X012130Y009397D01*
X012130Y009300D02*
X011779Y009300D01*
X011779Y009203D02*
X012130Y009203D01*
X012130Y009106D02*
X011779Y009106D01*
X011779Y009009D02*
X012130Y009009D01*
X012130Y008912D02*
X011779Y008912D01*
X011768Y008815D02*
X012130Y008815D01*
X012130Y008718D02*
X011709Y008718D01*
X011612Y008621D02*
X012130Y008621D01*
X012130Y008524D02*
X011515Y008524D01*
X011418Y008427D02*
X012130Y008427D01*
X012130Y008330D02*
X011321Y008330D01*
X011224Y008233D02*
X012130Y008233D01*
X012130Y008136D02*
X011127Y008136D01*
X011030Y008039D02*
X012130Y008039D01*
X012130Y007942D02*
X010933Y007942D01*
X010836Y007845D02*
X012130Y007845D01*
X012130Y007748D02*
X010739Y007748D01*
X010642Y007651D02*
X012130Y007651D01*
X012130Y007554D02*
X010545Y007554D01*
X010448Y007457D02*
X012130Y007457D01*
X012130Y007360D02*
X010351Y007360D01*
X010254Y007263D02*
X012130Y007263D01*
X012130Y007166D02*
X010131Y007166D01*
X010035Y007395D02*
X011531Y008891D01*
X011531Y013222D01*
X012122Y013812D01*
X011925Y014009D02*
X015271Y014009D01*
X015271Y014206D02*
X011728Y014206D01*
X011137Y013615D01*
X011137Y009285D01*
X009877Y008025D01*
X008134Y008025D01*
X008134Y008340D02*
X009799Y008340D01*
X010940Y009482D01*
X010940Y013812D01*
X011531Y014403D01*
X015271Y014403D01*
X015271Y014600D02*
X011334Y014600D01*
X010744Y014009D01*
X010744Y009678D01*
X009720Y008655D01*
X008134Y008655D01*
X008134Y008970D02*
X009641Y008970D01*
X010547Y009875D01*
X010547Y014206D01*
X011137Y014797D01*
X015271Y014797D01*
X015271Y014993D02*
X015665Y014993D01*
X015677Y014932D01*
X015667Y014924D02*
X015839Y014924D01*
X015873Y014827D02*
X015667Y014827D01*
X015667Y014730D02*
X015930Y014730D01*
X016037Y014633D02*
X015667Y014633D01*
X015667Y014536D02*
X018517Y014536D01*
X018517Y014439D02*
X015667Y014439D01*
X015667Y014342D02*
X018517Y014342D01*
X018517Y014633D02*
X016474Y014633D01*
X016581Y014730D02*
X018517Y014730D01*
X018517Y014827D02*
X016637Y014827D01*
X016672Y014924D02*
X018517Y014924D01*
X018517Y015021D02*
X016672Y015021D01*
X016655Y015118D02*
X018517Y015118D01*
X018558Y015215D02*
X016615Y015215D01*
X016526Y015312D02*
X021547Y015312D01*
X021547Y015409D02*
X016341Y015409D01*
X016435Y015700D02*
X021687Y015700D01*
X021602Y015603D02*
X015667Y015603D01*
X015667Y015700D02*
X016075Y015700D01*
X015946Y015797D02*
X015667Y015797D01*
X015665Y015781D02*
X015665Y015978D01*
X015271Y015978D01*
X015271Y016174D02*
X016157Y016174D01*
X016255Y016076D01*
X015880Y015894D02*
X015667Y015894D01*
X015665Y015781D02*
X015743Y015781D01*
X015667Y015506D02*
X021562Y015506D01*
X021584Y015215D02*
X020449Y015215D01*
X020490Y015118D02*
X021644Y015118D01*
X021760Y015021D02*
X020490Y015021D01*
X020490Y014924D02*
X023340Y014924D01*
X023340Y015021D02*
X022169Y015021D01*
X022284Y015118D02*
X023340Y015118D01*
X023340Y015215D02*
X023127Y015215D01*
X023159Y015247D02*
X023159Y015247D01*
X023224Y015312D02*
X023340Y015312D01*
X023145Y015584D02*
X022948Y015387D01*
X021964Y015387D01*
X022241Y015700D02*
X022440Y015700D01*
X022376Y015797D02*
X022064Y015797D01*
X021864Y015797D02*
X016565Y015797D01*
X016631Y015894D02*
X022335Y015894D01*
X022335Y015991D02*
X017212Y015991D01*
X017348Y016088D02*
X022346Y016088D01*
X022386Y016184D02*
X017416Y016184D01*
X017456Y016281D02*
X022466Y016281D01*
X022630Y016378D02*
X021529Y016378D01*
X021673Y016475D02*
X023340Y016475D01*
X023340Y016378D02*
X022873Y016378D01*
X023037Y016281D02*
X023340Y016281D01*
X023340Y016184D02*
X023117Y016184D01*
X023145Y016174D02*
X023342Y015978D01*
X023330Y016039D01*
X023340Y016088D02*
X023157Y016088D01*
X023342Y015978D02*
X023736Y015978D01*
X023736Y015781D02*
X022948Y015781D01*
X022751Y015978D01*
X023145Y015584D02*
X023736Y015584D01*
X023736Y015387D02*
X024129Y015387D01*
X024720Y015978D01*
X026492Y015978D01*
X026885Y015584D01*
X026885Y008891D01*
X028500Y007277D01*
X030106Y007277D01*
X030482Y008330D02*
X030770Y008330D01*
X030770Y008427D02*
X030438Y008427D01*
X030432Y008524D02*
X030770Y008524D01*
X030770Y008621D02*
X030432Y008621D01*
X030482Y008718D02*
X030770Y008718D01*
X030770Y008815D02*
X030482Y008815D01*
X030482Y008912D02*
X030770Y008912D01*
X030770Y009009D02*
X030482Y009009D01*
X030482Y009106D02*
X030770Y009106D01*
X030770Y009203D02*
X030482Y009203D01*
X030482Y009300D02*
X030770Y009300D01*
X030770Y009397D02*
X030482Y009397D01*
X030482Y009494D02*
X030770Y009494D01*
X030770Y009591D02*
X030482Y009591D01*
X030482Y009688D02*
X030770Y009688D01*
X030770Y009785D02*
X030482Y009785D01*
X030482Y009882D02*
X030770Y009882D01*
X030770Y009979D02*
X030482Y009979D01*
X030482Y010075D02*
X030770Y010075D01*
X030770Y010172D02*
X030482Y010172D01*
X030482Y010269D02*
X030770Y010269D01*
X030770Y010366D02*
X030432Y010366D01*
X030432Y010463D02*
X030770Y010463D01*
X030770Y010560D02*
X030462Y010560D01*
X030482Y010657D02*
X030770Y010657D01*
X030770Y010754D02*
X030482Y010754D01*
X030482Y010851D02*
X030770Y010851D01*
X030770Y010948D02*
X030482Y010948D01*
X030482Y011045D02*
X030770Y011045D01*
X030770Y011142D02*
X030482Y011142D01*
X030482Y011239D02*
X030770Y011239D01*
X030770Y011336D02*
X030482Y011336D01*
X030482Y011433D02*
X030770Y011433D01*
X030770Y011530D02*
X030482Y011530D01*
X030482Y011627D02*
X030770Y011627D01*
X030770Y011724D02*
X030482Y011724D01*
X030482Y011821D02*
X030770Y011821D01*
X030770Y011918D02*
X030482Y011918D01*
X030482Y012015D02*
X030770Y012015D01*
X030770Y012112D02*
X030482Y012112D01*
X030482Y012209D02*
X030770Y012209D01*
X030770Y012306D02*
X030482Y012306D01*
X030482Y012403D02*
X030770Y012403D01*
X030770Y012500D02*
X030459Y012500D01*
X030432Y012597D02*
X030770Y012597D01*
X030770Y012694D02*
X030432Y012694D01*
X030482Y012791D02*
X030770Y012791D01*
X030770Y012888D02*
X030482Y012888D01*
X030482Y012985D02*
X030770Y012985D01*
X030770Y013081D02*
X030482Y013081D01*
X030482Y013178D02*
X030770Y013178D01*
X030770Y013275D02*
X030482Y013275D01*
X030482Y013372D02*
X030770Y013372D01*
X030770Y013469D02*
X030482Y013469D01*
X030482Y013566D02*
X030770Y013566D01*
X030770Y013663D02*
X030482Y013663D01*
X030482Y013760D02*
X030770Y013760D01*
X030770Y013857D02*
X030482Y013857D01*
X030482Y013954D02*
X030770Y013954D01*
X030770Y014051D02*
X030482Y014051D01*
X030482Y014148D02*
X030770Y014148D01*
X030770Y014245D02*
X030482Y014245D01*
X030482Y014342D02*
X030770Y014342D01*
X030770Y014439D02*
X030482Y014439D01*
X030482Y014536D02*
X030770Y014536D01*
X030770Y014633D02*
X030482Y014633D01*
X030482Y014730D02*
X030770Y014730D01*
X030770Y014827D02*
X030482Y014827D01*
X030482Y014924D02*
X030770Y014924D01*
X030770Y015021D02*
X030482Y015021D01*
X030106Y014521D02*
X029523Y014521D01*
X029248Y014797D01*
X029248Y017946D01*
X028854Y018340D01*
X029692Y017736D02*
X029701Y017736D01*
X026689Y015387D02*
X026689Y008497D01*
X026295Y008104D01*
X026295Y007513D01*
X026059Y007277D01*
X025633Y007277D01*
X025634Y007592D02*
X025634Y007592D01*
X025960Y007592D01*
X025960Y007690D01*
X025958Y007695D01*
X026009Y007746D01*
X026009Y007974D01*
X026047Y007974D01*
X026047Y007616D01*
X025960Y007529D01*
X025960Y007592D01*
X025634Y007592D01*
X025960Y007554D02*
X025985Y007554D01*
X025960Y007651D02*
X026047Y007651D01*
X026047Y007748D02*
X026009Y007748D01*
X026009Y007845D02*
X026047Y007845D01*
X026047Y007942D02*
X026009Y007942D01*
X026019Y008222D02*
X025633Y008222D01*
X026019Y008222D02*
X026492Y008694D01*
X026492Y015190D01*
X026098Y015584D01*
X025114Y015584D01*
X024523Y014993D01*
X023736Y014993D01*
X023736Y014797D02*
X024720Y014797D01*
X024707Y014827D02*
X024793Y014827D01*
X024804Y014924D02*
X024890Y014924D01*
X024943Y014976D02*
X024617Y014651D01*
X024131Y014651D01*
X024131Y014731D01*
X024117Y014745D01*
X024474Y014745D01*
X024572Y014745D01*
X024664Y014783D01*
X025216Y015336D01*
X025352Y015336D01*
X025337Y015321D01*
X025317Y015287D01*
X025307Y015249D01*
X025307Y015151D01*
X025633Y015151D01*
X025633Y015151D01*
X025307Y015151D01*
X025307Y015084D01*
X025104Y015084D01*
X025013Y015046D01*
X024943Y014976D01*
X024901Y015021D02*
X024987Y015021D01*
X024998Y015118D02*
X025307Y015118D01*
X025307Y015215D02*
X025095Y015215D01*
X025192Y015312D02*
X025331Y015312D01*
X025634Y015151D02*
X025960Y015151D01*
X025960Y015249D01*
X025950Y015287D01*
X025930Y015321D01*
X025915Y015336D01*
X025995Y015336D01*
X026244Y015088D01*
X026244Y008797D01*
X026009Y008563D01*
X026009Y008698D01*
X026009Y009013D01*
X026009Y009328D01*
X025958Y009379D01*
X025960Y009383D01*
X025960Y009481D01*
X025634Y009481D01*
X025634Y009482D01*
X025960Y009482D01*
X025960Y009580D01*
X025958Y009585D01*
X026009Y009635D01*
X026009Y009958D01*
X026009Y010273D01*
X026009Y010588D01*
X026009Y010902D01*
X025958Y010953D01*
X025960Y010958D01*
X025960Y011056D01*
X025634Y011056D01*
X025634Y011057D01*
X025960Y011057D01*
X025960Y011155D01*
X025958Y011159D01*
X026009Y011210D01*
X026009Y011532D01*
X026009Y011840D01*
X026009Y012162D01*
X026009Y012477D01*
X026009Y012792D01*
X026009Y013107D01*
X026009Y013422D01*
X026009Y013737D01*
X026009Y014052D01*
X026009Y014367D01*
X026009Y014682D01*
X026009Y014997D01*
X025958Y015048D01*
X025960Y015052D01*
X025960Y015151D01*
X025634Y015151D01*
X025634Y015151D01*
X025633Y014836D02*
X025153Y014836D01*
X024720Y014403D01*
X023736Y014403D01*
X023736Y014600D02*
X022948Y014600D01*
X022751Y014403D01*
X022366Y014245D02*
X020490Y014245D01*
X020490Y014148D02*
X022417Y014148D01*
X022514Y014051D02*
X020490Y014051D01*
X020490Y013954D02*
X023340Y013954D01*
X023340Y013857D02*
X020490Y013857D01*
X020490Y013760D02*
X023340Y013760D01*
X023340Y013663D02*
X020490Y013663D01*
X020490Y013566D02*
X022507Y013566D01*
X022410Y013469D02*
X020490Y013469D01*
X020427Y013372D02*
X021722Y013372D01*
X021625Y013275D02*
X015667Y013275D01*
X015665Y013419D02*
X015862Y013222D01*
X015665Y013419D02*
X015271Y013419D01*
X013500Y013419D01*
X013496Y013372D02*
X013000Y013372D01*
X013000Y013275D02*
X013399Y013275D01*
X013486Y013362D02*
X013000Y012876D01*
X013000Y012883D01*
X013000Y013198D01*
X013000Y013560D01*
X012996Y013564D01*
X014876Y013564D01*
X014876Y013484D01*
X014890Y013470D01*
X013647Y013470D01*
X013556Y013432D01*
X013486Y013362D01*
X013646Y013469D02*
X013000Y013469D01*
X013000Y013178D02*
X013302Y013178D01*
X013205Y013081D02*
X013000Y013081D01*
X013000Y012985D02*
X013108Y012985D01*
X013011Y012888D02*
X013000Y012888D01*
X012909Y012434D02*
X012565Y012434D01*
X012565Y012119D02*
X012988Y012119D01*
X013893Y013025D01*
X015271Y013025D01*
X015271Y013222D02*
X013696Y013222D01*
X012909Y012434D01*
X011925Y014009D02*
X011334Y013419D01*
X011334Y009088D01*
X009956Y007710D01*
X008134Y007710D01*
X008134Y007395D02*
X010035Y007395D01*
X008569Y007069D02*
X012130Y007069D01*
X012130Y006972D02*
X008569Y006972D01*
X008569Y006876D02*
X012130Y006876D01*
X012130Y006779D02*
X008569Y006779D01*
X008569Y006682D02*
X012130Y006682D01*
X012130Y006585D02*
X008569Y006585D01*
X008473Y006488D02*
X012227Y006488D01*
X011627Y004548D02*
X006587Y004548D01*
X006628Y004451D02*
X011627Y004451D01*
X011627Y004354D02*
X006668Y004354D01*
X006690Y004257D02*
X011627Y004257D01*
X011709Y004160D02*
X006690Y004160D01*
X006713Y004063D02*
X007052Y004063D01*
X006962Y003966D02*
X006810Y003966D01*
X006907Y003869D02*
X006962Y003869D01*
X006410Y003579D02*
X006354Y003579D01*
X006490Y004645D02*
X007070Y004645D01*
X006973Y004742D02*
X006384Y004742D01*
X006938Y006003D02*
X007023Y006003D01*
X006909Y008815D02*
X007699Y008815D01*
X007699Y008912D02*
X007006Y008912D01*
X007054Y009009D02*
X007699Y009009D01*
X007699Y009106D02*
X007091Y009106D01*
X007091Y009203D02*
X007699Y009203D01*
X007699Y009300D02*
X007087Y009300D01*
X007047Y009397D02*
X007699Y009397D01*
X007699Y009494D02*
X006989Y009494D01*
X006892Y009591D02*
X007699Y009591D01*
X007699Y009688D02*
X001741Y009688D01*
X001741Y010754D02*
X007699Y010754D01*
X007699Y010851D02*
X007611Y010851D01*
X008134Y010860D02*
X008578Y010860D01*
X009759Y012041D01*
X009759Y014993D01*
X010350Y015584D01*
X013893Y015584D01*
X014877Y016568D01*
X015271Y016568D01*
X015271Y016371D02*
X015862Y016371D01*
X016059Y016568D01*
X016059Y017356D01*
X015665Y017749D01*
X015271Y017749D01*
X015271Y017552D02*
X013893Y017552D01*
X012909Y016568D01*
X009366Y016568D01*
X008775Y015978D01*
X008775Y013025D01*
X008500Y012749D01*
X008134Y012749D01*
X008134Y012434D02*
X008578Y012434D01*
X008972Y012828D01*
X008972Y015781D01*
X009563Y016371D01*
X013106Y016371D01*
X014090Y017356D01*
X015271Y017356D01*
X015271Y017159D02*
X014287Y017159D01*
X013303Y016174D01*
X009759Y016174D01*
X009169Y015584D01*
X009169Y012631D01*
X008657Y012119D01*
X008134Y012119D01*
X008134Y011804D02*
X008736Y011804D01*
X009366Y012434D01*
X009366Y015387D01*
X009956Y015978D01*
X013500Y015978D01*
X014484Y016962D01*
X015271Y016962D01*
X015271Y016765D02*
X014681Y016765D01*
X013696Y015781D01*
X010153Y015781D01*
X009563Y015190D01*
X009563Y012237D01*
X008814Y011489D01*
X008134Y011489D01*
X007699Y011530D02*
X007635Y011530D01*
X007635Y011627D02*
X007699Y011627D01*
X007699Y011724D02*
X007542Y011724D01*
X007699Y011821D02*
X001741Y011821D01*
X001741Y011918D02*
X002896Y011918D01*
X002897Y011917D02*
X002961Y011896D01*
X003027Y011886D01*
X003299Y011886D01*
X003299Y012273D01*
X003377Y012273D01*
X003377Y011886D01*
X003649Y011886D01*
X003715Y011896D01*
X003779Y011917D01*
X003839Y011948D01*
X003893Y011987D01*
X003940Y012034D01*
X003980Y012089D01*
X004010Y012149D01*
X004031Y012212D01*
X004041Y012273D01*
X003378Y012273D01*
X003378Y012352D01*
X004041Y012352D01*
X004031Y012412D01*
X004010Y012476D01*
X003980Y012536D01*
X003940Y012590D01*
X003893Y012637D01*
X003839Y012677D01*
X003779Y012707D01*
X003715Y012728D01*
X003649Y012739D01*
X003377Y012739D01*
X003377Y012352D01*
X003299Y012352D01*
X003299Y012739D01*
X003027Y012739D01*
X002961Y012728D01*
X002897Y012707D01*
X002837Y012677D01*
X002783Y012637D01*
X002736Y012590D01*
X002696Y012536D01*
X002666Y012476D01*
X002645Y012412D01*
X002635Y012352D01*
X003298Y012352D01*
X003298Y012273D01*
X002635Y012273D01*
X002645Y012212D01*
X002666Y012149D01*
X002696Y012089D01*
X002736Y012034D01*
X002783Y011987D01*
X002837Y011948D01*
X002897Y011917D01*
X002755Y012015D02*
X001741Y012015D01*
X001741Y012112D02*
X002684Y012112D01*
X002646Y012209D02*
X001741Y012209D01*
X001741Y012306D02*
X003298Y012306D01*
X003378Y012306D02*
X005585Y012306D01*
X005585Y012218D02*
X005657Y012043D01*
X005791Y011909D01*
X005966Y011836D01*
X006710Y011836D01*
X006885Y011909D01*
X007019Y012043D01*
X007091Y012218D01*
X007091Y012407D01*
X007019Y012582D01*
X006885Y012716D01*
X006710Y012788D01*
X005966Y012788D01*
X005791Y012716D01*
X005657Y012582D01*
X005585Y012407D01*
X005585Y012218D01*
X005589Y012209D02*
X004030Y012209D01*
X003992Y012112D02*
X005629Y012112D01*
X005685Y012015D02*
X003921Y012015D01*
X003780Y011918D02*
X005782Y011918D01*
X006050Y011627D02*
X001741Y011627D01*
X001741Y011724D02*
X006819Y011724D01*
X006894Y011918D02*
X007699Y011918D01*
X007699Y012015D02*
X006991Y012015D01*
X007047Y012112D02*
X007699Y012112D01*
X007699Y012209D02*
X007088Y012209D01*
X007091Y012306D02*
X007699Y012306D01*
X007699Y012403D02*
X007091Y012403D01*
X007053Y012500D02*
X007699Y012500D01*
X007699Y012597D02*
X007004Y012597D01*
X006907Y012694D02*
X007699Y012694D01*
X007699Y012791D02*
X001741Y012791D01*
X001741Y012888D02*
X003017Y012888D01*
X003027Y012886D02*
X003299Y012886D01*
X003299Y013273D01*
X003377Y013273D01*
X003377Y012886D01*
X003649Y012886D01*
X003715Y012896D01*
X003779Y012917D01*
X003839Y012948D01*
X003893Y012987D01*
X003940Y013034D01*
X003980Y013089D01*
X004010Y013149D01*
X004031Y013212D01*
X004041Y013273D01*
X003378Y013273D01*
X003378Y013352D01*
X004041Y013352D01*
X004031Y013412D01*
X004010Y013476D01*
X003980Y013536D01*
X003940Y013590D01*
X003893Y013637D01*
X003839Y013677D01*
X003779Y013707D01*
X003715Y013728D01*
X003649Y013739D01*
X003377Y013739D01*
X003377Y013352D01*
X003299Y013352D01*
X003299Y013739D01*
X003027Y013739D01*
X002961Y013728D01*
X002897Y013707D01*
X002837Y013677D01*
X002783Y013637D01*
X002736Y013590D01*
X002696Y013536D01*
X002666Y013476D01*
X002645Y013412D01*
X002635Y013352D01*
X003298Y013352D01*
X003298Y013273D01*
X002635Y013273D01*
X002645Y013212D01*
X002666Y013149D01*
X002696Y013089D01*
X002736Y013034D01*
X002783Y012987D01*
X002837Y012948D01*
X002897Y012917D01*
X002961Y012896D01*
X003027Y012886D01*
X002870Y012694D02*
X001741Y012694D01*
X001741Y012597D02*
X002742Y012597D01*
X002678Y012500D02*
X001741Y012500D01*
X001741Y012403D02*
X002644Y012403D01*
X002787Y012985D02*
X001741Y012985D01*
X001741Y013081D02*
X002702Y013081D01*
X002656Y013178D02*
X001741Y013178D01*
X001741Y013275D02*
X003298Y013275D01*
X003378Y013275D02*
X005585Y013275D01*
X005585Y013218D02*
X005657Y013043D01*
X005791Y012909D01*
X005966Y012836D01*
X006710Y012836D01*
X006885Y012909D01*
X007019Y013043D01*
X007091Y013218D01*
X007091Y013407D01*
X007019Y013582D01*
X006885Y013716D01*
X006710Y013788D01*
X005966Y013788D01*
X005791Y013716D01*
X005657Y013582D01*
X005585Y013407D01*
X005585Y013218D01*
X005601Y013178D02*
X004020Y013178D01*
X003975Y013081D02*
X005641Y013081D01*
X005716Y012985D02*
X003890Y012985D01*
X003659Y012888D02*
X005842Y012888D01*
X005769Y012694D02*
X003806Y012694D01*
X003934Y012597D02*
X005672Y012597D01*
X005623Y012500D02*
X003998Y012500D01*
X004033Y012403D02*
X005585Y012403D01*
X006027Y011530D02*
X001741Y011530D01*
X001741Y011433D02*
X006027Y011433D01*
X006027Y011336D02*
X001741Y011336D01*
X001741Y011239D02*
X006383Y011239D01*
X006383Y011142D02*
X006482Y011142D01*
X006482Y011045D02*
X006383Y011045D01*
X006383Y010948D02*
X006482Y010948D01*
X006482Y010851D02*
X006383Y010851D01*
X006377Y010560D02*
X006299Y010560D01*
X006299Y010463D02*
X006377Y010463D01*
X006377Y010366D02*
X006299Y010366D01*
X006299Y010269D02*
X006377Y010269D01*
X006377Y010075D02*
X006299Y010075D01*
X006299Y009979D02*
X006377Y009979D01*
X006377Y009882D02*
X006299Y009882D01*
X006299Y009785D02*
X006377Y009785D01*
X006734Y009785D02*
X007704Y009785D01*
X007749Y009882D02*
X006906Y009882D01*
X006984Y009979D02*
X007749Y009979D01*
X007699Y010075D02*
X007025Y010075D01*
X008135Y009915D02*
X008520Y009915D01*
X008520Y009951D01*
X008898Y009951D01*
X008933Y009916D01*
X009086Y009852D01*
X009252Y009852D01*
X009405Y009916D01*
X009522Y010033D01*
X009585Y010186D01*
X009585Y010352D01*
X009522Y010505D01*
X009405Y010622D01*
X009252Y010686D01*
X009149Y010686D01*
X009905Y011442D01*
X009905Y010372D01*
X009381Y009848D01*
X008520Y009848D01*
X008520Y009914D01*
X008135Y009914D01*
X008135Y009915D01*
X008134Y009600D02*
X009484Y009600D01*
X010153Y010269D01*
X010153Y014600D01*
X010744Y015190D01*
X014287Y015190D01*
X014681Y015584D01*
X015271Y015584D01*
X015271Y015781D02*
X014484Y015781D01*
X014090Y015387D01*
X010547Y015387D01*
X009956Y014797D01*
X009956Y011844D01*
X008657Y010545D01*
X008134Y010545D01*
X008520Y009882D02*
X009015Y009882D01*
X009322Y009882D02*
X009415Y009882D01*
X009468Y009979D02*
X009512Y009979D01*
X009540Y010075D02*
X009609Y010075D01*
X009580Y010172D02*
X009706Y010172D01*
X009803Y010269D02*
X009585Y010269D01*
X009579Y010366D02*
X009900Y010366D01*
X009905Y010463D02*
X009539Y010463D01*
X009467Y010560D02*
X009905Y010560D01*
X009905Y010657D02*
X009320Y010657D01*
X009217Y010754D02*
X009905Y010754D01*
X009905Y010851D02*
X009314Y010851D01*
X009411Y010948D02*
X009905Y010948D01*
X009905Y011045D02*
X009508Y011045D01*
X009605Y011142D02*
X009905Y011142D01*
X009905Y011239D02*
X009702Y011239D01*
X009799Y011336D02*
X009905Y011336D01*
X009896Y011433D02*
X009905Y011433D01*
X010350Y010072D02*
X010350Y014403D01*
X010940Y014993D01*
X014484Y014993D01*
X014877Y015387D01*
X015271Y015387D01*
X015271Y015190D02*
X016059Y015190D01*
X016255Y014993D01*
X016671Y015991D02*
X016873Y015991D01*
X016737Y016088D02*
X016672Y016088D01*
X016661Y016184D02*
X016669Y016184D01*
X016629Y016281D02*
X016621Y016281D01*
X016846Y016568D02*
X016059Y016568D01*
X016307Y016863D02*
X017972Y016863D01*
X018004Y016766D02*
X017178Y016766D01*
X017334Y016669D02*
X018009Y016669D01*
X018050Y016572D02*
X017410Y016572D01*
X017451Y016475D02*
X018121Y016475D01*
X018265Y016378D02*
X017459Y016378D01*
X017043Y016371D02*
X016846Y016568D01*
X016307Y016960D02*
X017875Y016960D01*
X017778Y017057D02*
X016307Y017057D01*
X016307Y017154D02*
X017681Y017154D01*
X017584Y017251D02*
X016307Y017251D01*
X016307Y017348D02*
X017487Y017348D01*
X017390Y017445D02*
X016290Y017445D01*
X016223Y017542D02*
X017293Y017542D01*
X017018Y017833D02*
X015932Y017833D01*
X015835Y017930D02*
X016992Y017930D01*
X016992Y018027D02*
X013884Y018027D01*
X013911Y018048D02*
X013971Y018108D01*
X014023Y018175D01*
X014065Y018249D01*
X014098Y018328D01*
X014120Y018410D01*
X014130Y018487D01*
X013531Y018487D01*
X013531Y017888D01*
X013609Y017899D01*
X013691Y017921D01*
X013770Y017953D01*
X013843Y017996D01*
X013911Y018048D01*
X013983Y018124D02*
X016992Y018124D01*
X017240Y017946D02*
X018421Y016765D01*
X018837Y016766D02*
X020957Y016766D01*
X020962Y016669D02*
X018832Y016669D01*
X018792Y016572D02*
X021002Y016572D01*
X021074Y016475D02*
X018720Y016475D01*
X018576Y016378D02*
X021218Y016378D01*
X021374Y016765D02*
X021964Y017356D01*
X021964Y018537D01*
X021767Y018537D02*
X021767Y019127D01*
X021374Y019521D01*
X021374Y020899D01*
X022555Y022080D01*
X022555Y023261D01*
X022751Y023458D01*
X024720Y023458D01*
X024421Y023748D02*
X022843Y023748D01*
X022555Y023852D02*
X022555Y024049D01*
X022555Y023852D02*
X022358Y023655D01*
X022358Y022277D01*
X021177Y021096D01*
X021177Y019324D01*
X021570Y018930D01*
X021570Y018537D01*
X021374Y018537D02*
X021374Y017552D01*
X021086Y017251D02*
X019299Y017251D01*
X019378Y017348D02*
X021007Y017348D01*
X020967Y017445D02*
X019418Y017445D01*
X019428Y017542D02*
X020957Y017542D01*
X020958Y017639D02*
X019426Y017639D01*
X019386Y017736D02*
X020999Y017736D01*
X021065Y017833D02*
X019320Y017833D01*
X019259Y017930D02*
X021126Y017930D01*
X021126Y018027D02*
X019259Y018027D01*
X019259Y018124D02*
X021126Y018124D01*
X021177Y018143D02*
X020980Y017946D01*
X021177Y018143D02*
X021177Y018537D01*
X020980Y018537D02*
X020980Y021686D01*
X021570Y022277D01*
X021570Y022690D01*
X022064Y022681D02*
X022110Y022681D01*
X022110Y022584D02*
X022064Y022584D01*
X022064Y022487D02*
X022110Y022487D01*
X022110Y022390D02*
X022064Y022390D01*
X022024Y022294D02*
X022006Y022294D01*
X021927Y022197D02*
X021806Y022197D01*
X021830Y022100D02*
X021744Y022100D01*
X021733Y022003D02*
X021647Y022003D01*
X021636Y021906D02*
X021550Y021906D01*
X021539Y021809D02*
X021453Y021809D01*
X021442Y021712D02*
X021356Y021712D01*
X021345Y021615D02*
X021259Y021615D01*
X021248Y021518D02*
X021228Y021518D01*
X020586Y021096D02*
X019996Y021686D01*
X019996Y022690D01*
X020783Y022690D02*
X020783Y018537D01*
X020586Y018537D02*
X020586Y021096D01*
X020389Y020899D02*
X019208Y022080D01*
X019208Y022690D01*
X018421Y022690D02*
X018421Y022474D01*
X020192Y020702D01*
X020192Y018537D01*
X019996Y018537D02*
X019996Y020505D01*
X018618Y021883D01*
X018224Y021883D01*
X017830Y021686D02*
X017633Y021883D01*
X017633Y022690D01*
X016846Y022690D02*
X016846Y022277D01*
X017633Y021489D01*
X017633Y019521D01*
X017830Y019324D01*
X017830Y018537D01*
X017633Y018537D02*
X017633Y019127D01*
X017437Y019324D01*
X017437Y021293D01*
X016649Y022080D01*
X016255Y022080D01*
X016059Y022277D01*
X016059Y022690D01*
X015271Y022690D02*
X015271Y022277D01*
X015665Y021883D01*
X016452Y021883D01*
X017240Y021096D01*
X017240Y019127D01*
X017437Y018930D01*
X017437Y018537D01*
X017240Y018537D02*
X017240Y017946D01*
X017510Y018027D02*
X018763Y018027D01*
X018763Y018124D02*
X017488Y018124D01*
X017607Y017930D02*
X018763Y017930D01*
X018703Y017833D02*
X017704Y017833D01*
X017801Y017736D02*
X018636Y017736D01*
X018596Y017639D02*
X017898Y017639D01*
X017994Y017542D02*
X018595Y017542D01*
X018605Y017445D02*
X018091Y017445D01*
X018188Y017348D02*
X018645Y017348D01*
X018723Y017251D02*
X018285Y017251D01*
X018421Y017356D02*
X018421Y017946D01*
X018618Y017946D01*
X018618Y018537D01*
X018814Y018537D02*
X018814Y018143D01*
X018618Y017946D01*
X018421Y017946D02*
X018224Y017946D01*
X018224Y018537D01*
X018421Y018537D02*
X018421Y019127D01*
X018618Y019324D01*
X019208Y019324D02*
X018618Y019915D01*
X018224Y019915D01*
X017830Y019718D02*
X017830Y021686D01*
X018421Y021096D02*
X019011Y021096D01*
X019799Y020308D01*
X019799Y018537D01*
X019602Y018537D02*
X019602Y020111D01*
X019208Y020505D01*
X018814Y020505D01*
X019208Y019915D02*
X019405Y019718D01*
X019405Y018537D01*
X019208Y018537D02*
X019208Y019324D01*
X019011Y018537D02*
X019011Y017552D01*
X018884Y017154D02*
X018570Y017154D01*
X018718Y017057D02*
X021077Y017057D01*
X021003Y016960D02*
X018791Y016960D01*
X018831Y016863D02*
X020963Y016863D01*
X021224Y017154D02*
X019138Y017154D01*
X018027Y018537D02*
X018027Y019521D01*
X017830Y019718D01*
X016846Y020702D02*
X016846Y018537D01*
X017043Y018537D02*
X017043Y020899D01*
X016255Y021686D01*
X015074Y021686D01*
X014484Y022277D01*
X014484Y022690D01*
X013696Y022690D02*
X013696Y022277D01*
X014484Y021489D01*
X016059Y021489D01*
X016846Y020702D01*
X016598Y020548D02*
X016481Y020548D01*
X016507Y020645D02*
X016552Y020645D01*
X016598Y020451D02*
X016440Y020451D01*
X016345Y020354D02*
X016598Y020354D01*
X016598Y020257D02*
X016157Y020257D01*
X016114Y020160D02*
X016598Y020160D01*
X016598Y020063D02*
X016261Y020063D01*
X016358Y019966D02*
X016598Y019966D01*
X016598Y019869D02*
X016455Y019869D01*
X016552Y019772D02*
X016598Y019772D01*
X016649Y019324D02*
X016649Y018537D01*
X016452Y018537D02*
X016452Y019127D01*
X015862Y019718D01*
X010153Y019718D01*
X009563Y020308D01*
X009563Y021293D01*
X008185Y022671D01*
X008472Y022972D02*
X009113Y022972D01*
X009160Y022875D02*
X008551Y022875D01*
X008591Y022778D02*
X009257Y022778D01*
X009343Y022681D02*
X008601Y022681D01*
X008621Y022584D02*
X009344Y022584D01*
X009384Y022487D02*
X008718Y022487D01*
X008815Y022390D02*
X009450Y022390D01*
X009511Y022294D02*
X008912Y022294D01*
X009009Y022197D02*
X009511Y022197D01*
X009511Y022100D02*
X009106Y022100D01*
X009203Y022003D02*
X009511Y022003D01*
X009511Y021906D02*
X009300Y021906D01*
X009397Y021809D02*
X009511Y021809D01*
X009511Y021712D02*
X009494Y021712D01*
X010007Y021712D02*
X013911Y021712D01*
X013814Y021809D02*
X010007Y021809D01*
X010007Y021906D02*
X013717Y021906D01*
X013620Y022003D02*
X010007Y022003D01*
X010007Y022100D02*
X013523Y022100D01*
X013461Y022197D02*
X010007Y022197D01*
X010007Y022294D02*
X013261Y022294D01*
X013202Y022390D02*
X010068Y022390D01*
X010134Y022487D02*
X013202Y022487D01*
X013202Y022584D02*
X010175Y022584D01*
X010176Y022681D02*
X013202Y022681D01*
X013202Y022778D02*
X010166Y022778D01*
X010125Y022875D02*
X013202Y022875D01*
X013202Y022972D02*
X010047Y022972D01*
X009885Y023069D02*
X013233Y023069D01*
X013202Y023166D02*
X009860Y023166D01*
X009860Y023263D02*
X013202Y023263D01*
X013202Y023360D02*
X009860Y023360D01*
X009860Y023457D02*
X013202Y023457D01*
X013202Y023554D02*
X009860Y023554D01*
X009860Y023651D02*
X013202Y023651D01*
X013202Y023748D02*
X009860Y023748D01*
X009831Y023845D02*
X013271Y023845D01*
X014077Y024621D02*
X009803Y024621D01*
X009860Y024524D02*
X014174Y024524D01*
X014271Y024427D02*
X009860Y024427D01*
X009860Y024330D02*
X014272Y024330D01*
X014272Y024233D02*
X009860Y024233D01*
X009860Y024136D02*
X014272Y024136D01*
X014272Y024039D02*
X009860Y024039D01*
X009860Y023942D02*
X014272Y023942D01*
X014075Y024718D02*
X009635Y024718D01*
X009584Y024815D02*
X014075Y024815D01*
X014075Y024912D02*
X009487Y024912D01*
X009390Y025009D02*
X014075Y025009D01*
X014163Y025106D02*
X009293Y025106D01*
X009196Y025203D02*
X014260Y025203D01*
X014377Y025493D02*
X014725Y025493D01*
X014641Y025590D02*
X014461Y025590D01*
X014506Y025687D02*
X014596Y025687D01*
X014579Y025881D02*
X014523Y025881D01*
X014498Y025978D02*
X014604Y025978D01*
X014659Y026075D02*
X014443Y026075D01*
X014342Y026172D02*
X014760Y026172D01*
X014962Y026172D02*
X015040Y026172D01*
X015040Y026075D02*
X014962Y026075D01*
X014962Y025978D02*
X015040Y025978D01*
X015040Y025881D02*
X014962Y025881D01*
X014961Y025784D02*
X014141Y025784D01*
X014061Y025784D02*
X008621Y025784D01*
X008621Y025881D02*
X013679Y025881D01*
X013704Y025978D02*
X008595Y025978D01*
X008555Y026075D02*
X013759Y026075D01*
X013860Y026172D02*
X008466Y026172D01*
X008605Y025687D02*
X013696Y025687D01*
X013741Y025590D02*
X008565Y025590D01*
X008492Y025493D02*
X013825Y025493D01*
X014062Y025493D02*
X014140Y025493D01*
X014140Y025590D02*
X014062Y025590D01*
X014062Y025687D02*
X014140Y025687D01*
X014140Y025881D02*
X014062Y025881D01*
X014062Y025978D02*
X014140Y025978D01*
X014140Y026075D02*
X014062Y026075D01*
X014062Y026172D02*
X014140Y026172D01*
X014699Y026366D02*
X015303Y026366D01*
X015135Y026463D02*
X014867Y026463D01*
X014959Y026560D02*
X015044Y026560D01*
X015003Y026657D02*
X014999Y026657D01*
X014973Y027045D02*
X015029Y027045D01*
X015100Y027142D02*
X014902Y027142D01*
X014784Y027239D02*
X015218Y027239D01*
X015684Y027239D02*
X016118Y027239D01*
X016000Y027142D02*
X015802Y027142D01*
X015873Y027045D02*
X015929Y027045D01*
X015903Y026657D02*
X015899Y026657D01*
X015859Y026560D02*
X015944Y026560D01*
X016035Y026463D02*
X015767Y026463D01*
X015599Y026366D02*
X016203Y026366D01*
X016499Y026366D02*
X017103Y026366D01*
X016961Y026269D02*
X018536Y026269D01*
X018536Y026172D02*
X017942Y026172D01*
X018043Y026075D02*
X018536Y026075D01*
X018536Y025978D02*
X018098Y025978D01*
X018123Y025881D02*
X018536Y025881D01*
X018536Y025784D02*
X017741Y025784D01*
X017740Y025687D02*
X017662Y025687D01*
X017662Y025590D02*
X017740Y025590D01*
X017740Y025493D02*
X017662Y025493D01*
X017662Y025396D02*
X017740Y025396D01*
X017752Y025396D02*
X018536Y025396D01*
X018536Y025493D02*
X017977Y025493D01*
X018061Y025590D02*
X018536Y025590D01*
X018536Y025687D02*
X018106Y025687D01*
X017740Y025881D02*
X017662Y025881D01*
X017662Y025978D02*
X017740Y025978D01*
X017740Y026075D02*
X017662Y026075D01*
X017662Y026172D02*
X017740Y026172D01*
X017460Y026172D02*
X017122Y026172D01*
X017211Y026075D02*
X017359Y026075D01*
X017304Y025978D02*
X017251Y025978D01*
X017277Y025881D02*
X017279Y025881D01*
X017261Y025687D02*
X017296Y025687D01*
X017341Y025590D02*
X017221Y025590D01*
X017148Y025493D02*
X017425Y025493D01*
X017650Y025396D02*
X017022Y025396D01*
X016960Y025203D02*
X016642Y025203D01*
X016739Y025106D02*
X016863Y025106D01*
X016814Y025009D02*
X016788Y025009D01*
X017542Y025203D02*
X017962Y025203D01*
X018112Y025203D02*
X018190Y025203D01*
X018190Y025106D02*
X018112Y025106D01*
X018112Y025009D02*
X018190Y025009D01*
X018190Y024912D02*
X018112Y024912D01*
X018191Y024815D02*
X019032Y024815D01*
X018935Y024912D02*
X018568Y024912D01*
X018534Y025009D02*
X018838Y025009D01*
X018741Y025106D02*
X018469Y025106D01*
X018340Y025203D02*
X018644Y025203D01*
X018565Y025300D02*
X009056Y025300D01*
X008893Y024718D02*
X007516Y024718D01*
X007419Y024815D02*
X007615Y024815D01*
X007518Y024912D02*
X007322Y024912D01*
X007225Y025009D02*
X007421Y025009D01*
X007324Y025106D02*
X007128Y025106D01*
X007031Y025203D02*
X007227Y025203D01*
X007130Y025300D02*
X006934Y025300D01*
X006837Y025396D02*
X007033Y025396D01*
X006936Y025493D02*
X006740Y025493D01*
X006643Y025590D02*
X006839Y025590D01*
X006742Y025687D02*
X006546Y025687D01*
X006449Y025784D02*
X006645Y025784D01*
X006548Y025881D02*
X006352Y025881D01*
X006255Y025978D02*
X006451Y025978D01*
X006354Y026075D02*
X006132Y026075D01*
X006257Y026172D02*
X005789Y026172D01*
X005628Y026269D02*
X006170Y026269D01*
X006109Y026366D02*
X002620Y026366D01*
X002571Y026387D02*
X002381Y026387D01*
X002206Y026314D01*
X002072Y026180D01*
X002000Y026005D01*
X002000Y025816D01*
X002072Y025641D01*
X002206Y025507D01*
X002381Y025435D01*
X002571Y025435D01*
X002746Y025507D01*
X002879Y025641D01*
X002952Y025816D01*
X002952Y026005D01*
X002879Y026180D01*
X002746Y026314D01*
X002571Y026387D01*
X002515Y026560D02*
X002436Y026560D01*
X002436Y026657D02*
X002515Y026657D01*
X002515Y026754D02*
X002436Y026754D01*
X002436Y026851D02*
X002515Y026851D01*
X002516Y026948D02*
X005066Y026948D01*
X005044Y026851D02*
X002898Y026851D01*
X002873Y026754D02*
X005044Y026754D01*
X005068Y026657D02*
X002819Y026657D01*
X002719Y026560D02*
X005118Y026560D01*
X005212Y026463D02*
X001741Y026463D01*
X001741Y026366D02*
X002332Y026366D01*
X002161Y026269D02*
X001741Y026269D01*
X001741Y026172D02*
X002069Y026172D01*
X002029Y026075D02*
X001741Y026075D01*
X001741Y025978D02*
X002000Y025978D01*
X002000Y025881D02*
X001741Y025881D01*
X001741Y025784D02*
X002013Y025784D01*
X002053Y025687D02*
X001741Y025687D01*
X001741Y025590D02*
X002123Y025590D01*
X002239Y025493D02*
X001741Y025493D01*
X001741Y025396D02*
X005247Y025396D01*
X005122Y025493D02*
X002712Y025493D01*
X002829Y025590D02*
X005048Y025590D01*
X005008Y025687D02*
X002899Y025687D01*
X002939Y025784D02*
X004992Y025784D01*
X004992Y025881D02*
X002952Y025881D01*
X002952Y025978D02*
X005018Y025978D01*
X005059Y026075D02*
X002923Y026075D01*
X002883Y026172D02*
X005147Y026172D01*
X005308Y026269D02*
X002791Y026269D01*
X002233Y026560D02*
X001741Y026560D01*
X001741Y026657D02*
X002133Y026657D01*
X002078Y026754D02*
X001741Y026754D01*
X001741Y026851D02*
X002054Y026851D01*
X002050Y026950D02*
X002436Y026950D01*
X002436Y027336D01*
X002376Y027327D01*
X002312Y027306D01*
X002252Y027275D01*
X002198Y027236D01*
X002151Y027188D01*
X002111Y027134D01*
X002081Y027074D01*
X002060Y027011D01*
X002050Y026950D01*
X002071Y027045D02*
X001741Y027045D01*
X001741Y027142D02*
X002117Y027142D01*
X002202Y027239D02*
X001741Y027239D01*
X001741Y026948D02*
X002436Y026948D01*
X002436Y027045D02*
X002515Y027045D01*
X002515Y027142D02*
X002436Y027142D01*
X002436Y027239D02*
X002515Y027239D01*
X002750Y027239D02*
X006100Y027239D01*
X005959Y027142D02*
X005729Y027142D01*
X005820Y027045D02*
X005879Y027045D01*
X005507Y027045D02*
X005429Y027045D01*
X005429Y027142D02*
X005507Y027142D01*
X005507Y026948D02*
X005429Y026948D01*
X005429Y026851D02*
X005507Y026851D01*
X005507Y026754D02*
X005429Y026754D01*
X005429Y026657D02*
X005507Y026657D01*
X005507Y026560D02*
X005429Y026560D01*
X005429Y026463D02*
X005507Y026463D01*
X005724Y026463D02*
X005963Y026463D01*
X005881Y026560D02*
X005818Y026560D01*
X005207Y027142D02*
X002835Y027142D01*
X002881Y027045D02*
X005116Y027045D01*
X005814Y025493D02*
X005952Y025493D01*
X006049Y025396D02*
X005689Y025396D01*
X006146Y025300D02*
X001741Y025300D01*
X001741Y025203D02*
X006242Y025203D01*
X006339Y025106D02*
X001741Y025106D01*
X001741Y025009D02*
X006436Y025009D01*
X006533Y024912D02*
X001741Y024912D01*
X001741Y024815D02*
X006630Y024815D01*
X006727Y024718D02*
X001741Y024718D01*
X001741Y024621D02*
X006824Y024621D01*
X006921Y024524D02*
X001741Y024524D01*
X001741Y024427D02*
X007018Y024427D01*
X007115Y024330D02*
X001741Y024330D01*
X001741Y024233D02*
X007212Y024233D01*
X007309Y024136D02*
X001741Y024136D01*
X001741Y024039D02*
X007406Y024039D01*
X007690Y023942D02*
X001741Y023942D01*
X001741Y023845D02*
X006385Y023845D01*
X006413Y023857D02*
X006049Y023706D01*
X005771Y023428D01*
X005620Y023064D01*
X005620Y022671D01*
X005771Y022307D01*
X006049Y022029D01*
X006413Y021878D01*
X006807Y021878D01*
X007170Y022029D01*
X007448Y022307D01*
X007599Y022671D01*
X007599Y023064D01*
X007448Y023428D01*
X007170Y023706D01*
X006807Y023857D01*
X006413Y023857D01*
X006151Y023748D02*
X001741Y023748D01*
X001741Y023651D02*
X005994Y023651D01*
X005897Y023554D02*
X001741Y023554D01*
X001741Y023457D02*
X005800Y023457D01*
X005743Y023360D02*
X001741Y023360D01*
X001741Y023263D02*
X005703Y023263D01*
X005663Y023166D02*
X001741Y023166D01*
X001741Y023069D02*
X005623Y023069D01*
X005620Y022972D02*
X001741Y022972D01*
X001741Y022875D02*
X005620Y022875D01*
X005620Y022778D02*
X001741Y022778D01*
X001741Y022681D02*
X005620Y022681D01*
X005656Y022584D02*
X001741Y022584D01*
X001741Y022487D02*
X005696Y022487D01*
X005736Y022390D02*
X001741Y022390D01*
X001741Y022294D02*
X005784Y022294D01*
X005881Y022197D02*
X001741Y022197D01*
X001741Y022100D02*
X005978Y022100D01*
X006112Y022003D02*
X001741Y022003D01*
X001741Y021906D02*
X006346Y021906D01*
X006873Y021906D02*
X008599Y021906D01*
X008502Y022003D02*
X007107Y022003D01*
X007241Y022100D02*
X008405Y022100D01*
X008308Y022197D02*
X007338Y022197D01*
X007435Y022294D02*
X008006Y022294D01*
X007875Y022390D02*
X007483Y022390D01*
X007523Y022487D02*
X007809Y022487D01*
X007769Y022584D02*
X007563Y022584D01*
X007599Y022681D02*
X007768Y022681D01*
X007778Y022778D02*
X007599Y022778D01*
X007599Y022875D02*
X007818Y022875D01*
X007897Y022972D02*
X007599Y022972D01*
X007597Y023069D02*
X007761Y023069D01*
X007690Y023166D02*
X007557Y023166D01*
X007517Y023263D02*
X007690Y023263D01*
X007690Y023360D02*
X007476Y023360D01*
X007419Y023457D02*
X007690Y023457D01*
X007690Y023554D02*
X007322Y023554D01*
X007225Y023651D02*
X007690Y023651D01*
X007690Y023748D02*
X007069Y023748D01*
X006835Y023845D02*
X007720Y023845D01*
X007747Y024621D02*
X007613Y024621D01*
X008622Y024621D02*
X008928Y024621D01*
X008872Y024524D02*
X008679Y024524D01*
X008679Y024427D02*
X008872Y024427D01*
X008872Y024330D02*
X008679Y024330D01*
X008679Y024233D02*
X008872Y024233D01*
X008872Y024136D02*
X008679Y024136D01*
X008679Y024039D02*
X008872Y024039D01*
X008872Y023942D02*
X008679Y023942D01*
X008649Y023845D02*
X008901Y023845D01*
X008872Y023748D02*
X008679Y023748D01*
X008679Y023651D02*
X008872Y023651D01*
X008872Y023554D02*
X008679Y023554D01*
X008679Y023457D02*
X008872Y023457D01*
X008872Y023360D02*
X008679Y023360D01*
X008679Y023263D02*
X008872Y023263D01*
X008872Y023166D02*
X008679Y023166D01*
X008609Y023069D02*
X008942Y023069D01*
X009385Y023458D02*
X009366Y023478D01*
X009759Y022671D02*
X009759Y020505D01*
X010350Y019915D01*
X016059Y019915D01*
X016649Y019324D01*
X016255Y018930D02*
X016059Y019127D01*
X015074Y019127D01*
X014877Y018930D01*
X014610Y018609D02*
X014127Y018609D01*
X014130Y018586D02*
X014120Y018664D01*
X014098Y018746D01*
X014065Y018824D01*
X014023Y018898D01*
X013971Y018966D01*
X013911Y019026D01*
X013843Y019078D01*
X013770Y019120D01*
X013691Y019153D01*
X013609Y019175D01*
X013531Y019185D01*
X013531Y018586D01*
X013433Y018586D01*
X013433Y019185D01*
X013355Y019175D01*
X013273Y019153D01*
X013194Y019120D01*
X013120Y019078D01*
X013053Y019026D01*
X012993Y018966D01*
X012941Y018898D01*
X012898Y018824D01*
X012866Y018746D01*
X012844Y018664D01*
X012833Y018586D01*
X013432Y018586D01*
X013432Y018487D01*
X012833Y018487D01*
X012844Y018410D01*
X012866Y018328D01*
X012898Y018249D01*
X012941Y018175D01*
X012993Y018108D01*
X013053Y018048D01*
X013120Y017996D01*
X013194Y017953D01*
X013273Y017921D01*
X013355Y017899D01*
X013433Y017888D01*
X013433Y018487D01*
X013531Y018487D01*
X013531Y018586D01*
X014130Y018586D01*
X014109Y018706D02*
X014520Y018706D01*
X014479Y018803D02*
X014074Y018803D01*
X014022Y018900D02*
X014461Y018900D01*
X014461Y018997D02*
X013940Y018997D01*
X013816Y019094D02*
X014494Y019094D01*
X014548Y019191D02*
X005847Y019191D01*
X005739Y019235D02*
X005461Y019235D01*
X005204Y019129D01*
X005007Y018933D01*
X004901Y018676D01*
X004901Y018398D01*
X005007Y018141D01*
X005204Y017944D01*
X005461Y017838D01*
X005739Y017838D01*
X005996Y017944D01*
X006192Y018141D01*
X006299Y018398D01*
X006299Y018676D01*
X006192Y018933D01*
X005996Y019129D01*
X005739Y019235D01*
X006031Y019094D02*
X013148Y019094D01*
X013024Y018997D02*
X006128Y018997D01*
X006206Y018900D02*
X012942Y018900D01*
X012889Y018803D02*
X006246Y018803D01*
X006286Y018706D02*
X012855Y018706D01*
X012836Y018609D02*
X006299Y018609D01*
X006299Y018512D02*
X013432Y018512D01*
X013433Y018609D02*
X013531Y018609D01*
X013531Y018706D02*
X013433Y018706D01*
X013433Y018803D02*
X013531Y018803D01*
X013531Y018900D02*
X013433Y018900D01*
X013433Y018997D02*
X013531Y018997D01*
X013531Y019094D02*
X013433Y019094D01*
X013531Y018512D02*
X015860Y018512D01*
X015860Y018609D02*
X015145Y018609D01*
X015235Y018706D02*
X015860Y018706D01*
X015877Y018803D02*
X015275Y018803D01*
X015860Y018415D02*
X014121Y018415D01*
X014094Y018318D02*
X015861Y018318D01*
X015917Y018221D02*
X014049Y018221D01*
X013713Y017930D02*
X014925Y017930D01*
X014876Y017833D02*
X001741Y017833D01*
X001741Y017930D02*
X005239Y017930D01*
X005121Y018027D02*
X001741Y018027D01*
X001741Y018124D02*
X005024Y018124D01*
X004974Y018221D02*
X001741Y018221D01*
X001741Y018318D02*
X004934Y018318D01*
X004901Y018415D02*
X001741Y018415D01*
X001741Y018512D02*
X004901Y018512D01*
X004901Y018609D02*
X001741Y018609D01*
X001741Y018706D02*
X002204Y018706D01*
X002217Y018700D02*
X002161Y018723D01*
X002090Y018795D01*
X002090Y018795D01*
X001906Y018978D01*
X001905Y018981D01*
X001868Y019072D01*
X001868Y019072D01*
X001868Y019173D01*
X001884Y019212D01*
X001906Y019266D01*
X001906Y019266D01*
X001978Y019337D01*
X002021Y019380D01*
X002014Y019386D01*
X001998Y019403D01*
X001998Y019403D01*
X001961Y019439D01*
X001906Y019494D01*
X001868Y019588D01*
X001868Y019771D01*
X001868Y019872D01*
X001906Y019965D01*
X002066Y020125D01*
X001998Y020194D01*
X001959Y020287D01*
X001959Y020388D01*
X001998Y020481D01*
X002069Y020553D01*
X002149Y020586D01*
X002181Y020665D01*
X002253Y020736D01*
X002346Y020775D01*
X002447Y020775D01*
X002540Y020736D01*
X002612Y020665D01*
X002645Y020586D01*
X002724Y020553D01*
X002795Y020481D01*
X002834Y020388D01*
X002834Y020287D01*
X002795Y020194D01*
X002755Y020154D01*
X002816Y020129D01*
X002887Y020057D01*
X002926Y019964D01*
X002926Y019863D01*
X002926Y019496D01*
X002897Y019426D01*
X002926Y019356D01*
X002926Y019255D01*
X002887Y019162D01*
X002847Y019122D01*
X002887Y019082D01*
X002926Y018989D01*
X002926Y018888D01*
X002887Y018795D01*
X002816Y018723D01*
X002722Y018685D01*
X002254Y018685D01*
X002254Y018685D01*
X002217Y018700D01*
X002082Y018803D02*
X001741Y018803D01*
X001741Y018900D02*
X001985Y018900D01*
X001899Y018997D02*
X001741Y018997D01*
X001741Y019094D02*
X001868Y019094D01*
X001875Y019191D02*
X001741Y019191D01*
X001741Y019287D02*
X001928Y019287D01*
X002016Y019384D02*
X001741Y019384D01*
X001741Y019481D02*
X001919Y019481D01*
X001871Y019578D02*
X001741Y019578D01*
X001741Y019675D02*
X001868Y019675D01*
X001868Y019772D02*
X001741Y019772D01*
X001741Y019869D02*
X001868Y019869D01*
X001907Y019966D02*
X001741Y019966D01*
X001741Y020063D02*
X002004Y020063D01*
X002032Y020160D02*
X001741Y020160D01*
X001741Y020257D02*
X001972Y020257D01*
X001959Y020354D02*
X001741Y020354D01*
X001741Y020451D02*
X001985Y020451D01*
X002065Y020548D02*
X001741Y020548D01*
X001741Y020645D02*
X002173Y020645D01*
X002267Y020742D02*
X001741Y020742D01*
X001741Y020839D02*
X009314Y020839D01*
X009314Y020936D02*
X001741Y020936D01*
X001741Y021033D02*
X009314Y021033D01*
X009314Y021130D02*
X001741Y021130D01*
X001741Y021227D02*
X009277Y021227D01*
X009181Y021324D02*
X001741Y021324D01*
X001741Y021421D02*
X009084Y021421D01*
X008987Y021518D02*
X001741Y021518D01*
X001741Y021615D02*
X008890Y021615D01*
X008793Y021712D02*
X001741Y021712D01*
X001741Y021809D02*
X008696Y021809D01*
X009314Y020742D02*
X002526Y020742D01*
X002620Y020645D02*
X009314Y020645D01*
X009314Y020548D02*
X002729Y020548D01*
X002808Y020451D02*
X009314Y020451D01*
X009314Y020354D02*
X002834Y020354D01*
X002822Y020257D02*
X009315Y020257D01*
X009360Y020160D02*
X002762Y020160D01*
X002881Y020063D02*
X009457Y020063D01*
X009422Y020098D02*
X009422Y020098D01*
X009554Y019966D02*
X002925Y019966D01*
X002926Y019869D02*
X009651Y019869D01*
X009748Y019772D02*
X002926Y019772D01*
X002926Y019675D02*
X009845Y019675D01*
X009942Y019578D02*
X002926Y019578D01*
X002920Y019481D02*
X010076Y019481D01*
X010358Y020257D02*
X010645Y020257D01*
X010457Y020354D02*
X010261Y020354D01*
X010164Y020451D02*
X010362Y020451D01*
X010322Y020548D02*
X010067Y020548D01*
X010007Y020645D02*
X010295Y020645D01*
X010295Y020742D02*
X010007Y020742D01*
X010007Y020839D02*
X010315Y020839D01*
X010355Y020936D02*
X010007Y020936D01*
X010007Y021033D02*
X010440Y021033D01*
X010604Y021130D02*
X010007Y021130D01*
X010007Y021227D02*
X015970Y021227D01*
X014299Y021324D02*
X010007Y021324D01*
X010007Y021421D02*
X014202Y021421D01*
X014274Y021349D02*
X014274Y021349D01*
X014105Y021518D02*
X010007Y021518D01*
X010007Y021615D02*
X014008Y021615D01*
X014651Y019287D02*
X002926Y019287D01*
X002914Y019384D02*
X015844Y019384D01*
X016255Y018930D02*
X016255Y018537D01*
X016059Y018537D02*
X016059Y017946D01*
X013726Y017736D02*
X001741Y017736D01*
X001741Y017639D02*
X013629Y017639D01*
X013532Y017542D02*
X001741Y017542D01*
X001741Y017445D02*
X013435Y017445D01*
X013338Y017348D02*
X001741Y017348D01*
X001741Y017251D02*
X013241Y017251D01*
X013144Y017154D02*
X001741Y017154D01*
X001741Y017057D02*
X013047Y017057D01*
X012950Y016960D02*
X001741Y016960D01*
X001741Y016863D02*
X003074Y016863D01*
X003102Y016875D02*
X002927Y016802D01*
X002793Y016669D01*
X002720Y016494D01*
X002720Y016304D01*
X002793Y016129D01*
X002927Y015995D01*
X003102Y015923D01*
X003291Y015923D01*
X003466Y015995D01*
X003600Y016129D01*
X003672Y016304D01*
X003672Y016494D01*
X003600Y016669D01*
X003466Y016802D01*
X003291Y016875D01*
X003102Y016875D01*
X003319Y016863D02*
X004074Y016863D01*
X004102Y016875D02*
X003927Y016802D01*
X003793Y016669D01*
X003720Y016494D01*
X003720Y016304D01*
X003793Y016129D01*
X003927Y015995D01*
X004102Y015923D01*
X004196Y015923D01*
X004196Y015096D01*
X003836Y014736D01*
X003710Y014788D01*
X002966Y014788D01*
X002791Y014716D01*
X002657Y014582D01*
X002585Y014407D01*
X002585Y014218D01*
X002657Y014043D01*
X002791Y013909D01*
X002966Y013836D01*
X003710Y013836D01*
X003885Y013909D01*
X004019Y014043D01*
X004091Y014218D01*
X004091Y014289D01*
X004585Y014783D01*
X004655Y014853D01*
X004692Y014944D01*
X004692Y016101D01*
X004692Y016200D01*
X004661Y016276D01*
X004672Y016304D01*
X004672Y016494D01*
X004600Y016669D01*
X004466Y016802D01*
X004291Y016875D01*
X004102Y016875D01*
X004319Y016863D02*
X012853Y016863D01*
X013250Y017930D02*
X005961Y017930D01*
X006078Y018027D02*
X013080Y018027D01*
X012980Y018124D02*
X006175Y018124D01*
X006225Y018221D02*
X012914Y018221D01*
X012870Y018318D02*
X006266Y018318D01*
X006299Y018415D02*
X012843Y018415D01*
X013433Y018415D02*
X013531Y018415D01*
X013531Y018318D02*
X013433Y018318D01*
X013433Y018221D02*
X013531Y018221D01*
X013531Y018124D02*
X013433Y018124D01*
X013433Y018027D02*
X013531Y018027D01*
X013531Y017930D02*
X013433Y017930D01*
X009213Y016766D02*
X004502Y016766D01*
X004599Y016669D02*
X009116Y016669D01*
X009019Y016572D02*
X004640Y016572D01*
X004672Y016475D02*
X008922Y016475D01*
X008825Y016378D02*
X004672Y016378D01*
X004663Y016281D02*
X008728Y016281D01*
X008631Y016184D02*
X004692Y016184D01*
X004692Y016088D02*
X008552Y016088D01*
X008527Y015991D02*
X004692Y015991D01*
X004692Y015894D02*
X008527Y015894D01*
X008527Y015797D02*
X004692Y015797D01*
X004692Y015700D02*
X005775Y015700D01*
X005791Y015716D02*
X005657Y015582D01*
X005585Y015407D01*
X005585Y015218D01*
X005657Y015043D01*
X005791Y014909D01*
X005966Y014836D01*
X006710Y014836D01*
X006885Y014909D01*
X007019Y015043D01*
X007091Y015218D01*
X007091Y015407D01*
X007019Y015582D01*
X006885Y015716D01*
X006710Y015788D01*
X005966Y015788D01*
X005791Y015716D01*
X005678Y015603D02*
X004692Y015603D01*
X004692Y015506D02*
X005626Y015506D01*
X005586Y015409D02*
X004692Y015409D01*
X004692Y015312D02*
X005585Y015312D01*
X005586Y015215D02*
X004692Y015215D01*
X004692Y015118D02*
X005626Y015118D01*
X005679Y015021D02*
X004692Y015021D01*
X004684Y014924D02*
X005776Y014924D01*
X005826Y014730D02*
X004532Y014730D01*
X004629Y014827D02*
X008527Y014827D01*
X008527Y014924D02*
X006900Y014924D01*
X006997Y015021D02*
X008527Y015021D01*
X008527Y015118D02*
X007050Y015118D01*
X007090Y015215D02*
X008527Y015215D01*
X008527Y015312D02*
X007091Y015312D01*
X007091Y015409D02*
X008527Y015409D01*
X008527Y015506D02*
X007050Y015506D01*
X006998Y015603D02*
X008527Y015603D01*
X008527Y015700D02*
X006901Y015700D01*
X006710Y014788D02*
X005966Y014788D01*
X005791Y014716D01*
X005657Y014582D01*
X005585Y014407D01*
X005585Y014218D01*
X005657Y014043D01*
X005791Y013909D01*
X005966Y013836D01*
X006710Y013836D01*
X006885Y013909D01*
X007019Y014043D01*
X007091Y014218D01*
X007091Y014407D01*
X007019Y014582D01*
X006885Y014716D01*
X006710Y014788D01*
X006851Y014730D02*
X008527Y014730D01*
X008527Y014633D02*
X006968Y014633D01*
X007038Y014536D02*
X008527Y014536D01*
X008527Y014439D02*
X007078Y014439D01*
X007091Y014342D02*
X008527Y014342D01*
X008527Y014245D02*
X007091Y014245D01*
X007062Y014148D02*
X008527Y014148D01*
X008527Y014051D02*
X007022Y014051D01*
X006930Y013954D02*
X008527Y013954D01*
X008527Y013857D02*
X006761Y013857D01*
X006777Y013760D02*
X008527Y013760D01*
X008527Y013663D02*
X008466Y013663D01*
X007803Y013663D02*
X006937Y013663D01*
X007025Y013566D02*
X007706Y013566D01*
X007699Y013469D02*
X007065Y013469D01*
X007091Y013372D02*
X007699Y013372D01*
X007699Y013275D02*
X007091Y013275D01*
X007075Y013178D02*
X007699Y013178D01*
X007699Y013081D02*
X007035Y013081D01*
X006961Y012985D02*
X007699Y012985D01*
X007699Y012888D02*
X006834Y012888D01*
X005899Y013760D02*
X001741Y013760D01*
X001741Y013663D02*
X002819Y013663D01*
X002719Y013566D02*
X001741Y013566D01*
X001741Y013469D02*
X002664Y013469D01*
X002639Y013372D02*
X001741Y013372D01*
X001741Y013857D02*
X002916Y013857D01*
X002746Y013954D02*
X001741Y013954D01*
X001741Y014051D02*
X002654Y014051D01*
X002614Y014148D02*
X001741Y014148D01*
X001741Y014245D02*
X002585Y014245D01*
X002585Y014342D02*
X001741Y014342D01*
X001741Y014439D02*
X002598Y014439D01*
X002638Y014536D02*
X001741Y014536D01*
X001741Y014633D02*
X002709Y014633D01*
X002826Y014730D02*
X001741Y014730D01*
X001741Y014827D02*
X003927Y014827D01*
X003885Y014909D02*
X004019Y015043D01*
X004091Y015218D01*
X004091Y015407D01*
X004019Y015582D01*
X003885Y015716D01*
X003710Y015788D01*
X002966Y015788D01*
X002791Y015716D01*
X002657Y015582D01*
X002585Y015407D01*
X002585Y015218D01*
X002657Y015043D01*
X002791Y014909D01*
X002966Y014836D01*
X003710Y014836D01*
X003885Y014909D01*
X003900Y014924D02*
X004024Y014924D01*
X003997Y015021D02*
X004121Y015021D01*
X004050Y015118D02*
X004196Y015118D01*
X004196Y015215D02*
X004090Y015215D01*
X004091Y015312D02*
X004196Y015312D01*
X004196Y015409D02*
X004091Y015409D01*
X004050Y015506D02*
X004196Y015506D01*
X004196Y015603D02*
X003998Y015603D01*
X003901Y015700D02*
X004196Y015700D01*
X004196Y015797D02*
X001741Y015797D01*
X001741Y015894D02*
X004196Y015894D01*
X003938Y015991D02*
X003454Y015991D01*
X003558Y016088D02*
X003835Y016088D01*
X003770Y016184D02*
X003623Y016184D01*
X003663Y016281D02*
X003730Y016281D01*
X003720Y016378D02*
X003672Y016378D01*
X003672Y016475D02*
X003720Y016475D01*
X003753Y016572D02*
X003640Y016572D01*
X003599Y016669D02*
X003794Y016669D01*
X003891Y016766D02*
X003502Y016766D01*
X002891Y016766D02*
X001741Y016766D01*
X001741Y016669D02*
X002794Y016669D01*
X002753Y016572D02*
X001741Y016572D01*
X001741Y016475D02*
X002720Y016475D01*
X002720Y016378D02*
X001741Y016378D01*
X001741Y016281D02*
X002730Y016281D01*
X002770Y016184D02*
X001741Y016184D01*
X001741Y016088D02*
X002835Y016088D01*
X002938Y015991D02*
X001741Y015991D01*
X001741Y015700D02*
X002775Y015700D01*
X002678Y015603D02*
X001741Y015603D01*
X001741Y015506D02*
X002626Y015506D01*
X002586Y015409D02*
X001741Y015409D01*
X001741Y015312D02*
X002585Y015312D01*
X002586Y015215D02*
X001741Y015215D01*
X001741Y015118D02*
X002626Y015118D01*
X002679Y015021D02*
X001741Y015021D01*
X001741Y014924D02*
X002776Y014924D01*
X003338Y014312D02*
X003763Y014312D01*
X004444Y014993D01*
X004444Y016151D01*
X004196Y016399D01*
X004435Y014633D02*
X005709Y014633D01*
X005638Y014536D02*
X004338Y014536D01*
X004241Y014439D02*
X005598Y014439D01*
X005585Y014342D02*
X004144Y014342D01*
X004091Y014245D02*
X005585Y014245D01*
X005614Y014148D02*
X004062Y014148D01*
X004022Y014051D02*
X005654Y014051D01*
X005746Y013954D02*
X003930Y013954D01*
X003761Y013857D02*
X005916Y013857D01*
X005739Y013663D02*
X003858Y013663D01*
X003958Y013566D02*
X005651Y013566D01*
X005611Y013469D02*
X004013Y013469D01*
X004037Y013372D02*
X005585Y013372D01*
X006383Y011627D02*
X006482Y011627D01*
X006482Y011530D02*
X006383Y011530D01*
X006383Y011433D02*
X006482Y011433D01*
X006482Y011336D02*
X006383Y011336D01*
X006027Y011142D02*
X001741Y011142D01*
X001741Y011045D02*
X006027Y011045D01*
X006027Y010948D02*
X001741Y010948D01*
X001741Y010851D02*
X006072Y010851D01*
X005840Y010560D02*
X003922Y010560D01*
X004019Y010463D02*
X005729Y010463D01*
X005670Y010366D02*
X004059Y010366D01*
X004091Y010269D02*
X005641Y010269D01*
X003377Y011918D02*
X003299Y011918D01*
X003299Y012015D02*
X003377Y012015D01*
X003377Y012112D02*
X003299Y012112D01*
X003299Y012209D02*
X003377Y012209D01*
X003377Y012403D02*
X003299Y012403D01*
X003299Y012500D02*
X003377Y012500D01*
X003377Y012597D02*
X003299Y012597D01*
X003299Y012694D02*
X003377Y012694D01*
X003377Y012888D02*
X003299Y012888D01*
X003299Y012985D02*
X003377Y012985D01*
X003377Y013081D02*
X003299Y013081D01*
X003299Y013178D02*
X003377Y013178D01*
X003377Y013372D02*
X003299Y013372D01*
X003299Y013469D02*
X003377Y013469D01*
X003377Y013566D02*
X003299Y013566D01*
X003299Y013663D02*
X003377Y013663D01*
X002848Y008621D02*
X001741Y008621D01*
X001741Y008524D02*
X002718Y008524D01*
X002642Y008427D02*
X001741Y008427D01*
X001741Y008330D02*
X002602Y008330D01*
X002585Y008233D02*
X001741Y008233D01*
X001741Y008136D02*
X002585Y008136D01*
X002610Y008039D02*
X001741Y008039D01*
X001741Y007942D02*
X002650Y007942D01*
X002737Y007845D02*
X001741Y007845D01*
X001741Y007748D02*
X002894Y007748D01*
X002921Y007651D02*
X001741Y007651D01*
X001741Y007554D02*
X002748Y007554D01*
X002655Y007457D02*
X001741Y007457D01*
X001741Y007360D02*
X002615Y007360D01*
X002585Y007263D02*
X001741Y007263D01*
X001741Y007166D02*
X002585Y007166D01*
X002597Y007069D02*
X001741Y007069D01*
X001741Y006972D02*
X002638Y006972D01*
X002706Y006876D02*
X001741Y006876D01*
X001741Y006779D02*
X002820Y006779D01*
X001741Y002609D02*
X004661Y002609D01*
X004756Y002512D02*
X001741Y002512D01*
X001741Y002415D02*
X004855Y002415D01*
X005013Y002221D02*
X001741Y002221D01*
X001741Y002124D02*
X004916Y002124D01*
X004915Y002027D02*
X001741Y002027D01*
X001741Y001930D02*
X004375Y001930D01*
X004284Y001833D02*
X001741Y001833D01*
X001741Y001736D02*
X004244Y001736D01*
X004225Y001639D02*
X001741Y001639D01*
X001741Y001542D02*
X004225Y001542D01*
X004258Y001445D02*
X001741Y001445D01*
X001741Y001348D02*
X004311Y001348D01*
X004413Y001251D02*
X001741Y001251D01*
X001741Y001154D02*
X004915Y001154D01*
X004915Y001251D02*
X004870Y001251D01*
X004908Y001930D02*
X004915Y001930D01*
X005089Y002318D02*
X001741Y002318D01*
X008134Y009285D02*
X009563Y009285D01*
X010350Y010072D01*
X015667Y012112D02*
X015934Y012112D01*
X016048Y012209D02*
X015667Y012209D01*
X015667Y012306D02*
X022923Y012306D01*
X022948Y012237D02*
X022358Y012237D01*
X022161Y012434D01*
X021767Y012434D01*
X021757Y012209D02*
X020990Y012209D01*
X021104Y012112D02*
X021643Y012112D01*
X021584Y012015D02*
X021163Y012015D01*
X021200Y011918D02*
X021547Y011918D01*
X021547Y011821D02*
X021200Y011821D01*
X021184Y011724D02*
X021563Y011724D01*
X021603Y011627D02*
X021154Y011627D01*
X021251Y011530D02*
X021689Y011530D01*
X021827Y011433D02*
X021348Y011433D01*
X021445Y011336D02*
X021924Y011336D01*
X022021Y011239D02*
X021542Y011239D01*
X021639Y011142D02*
X022118Y011142D01*
X022215Y011045D02*
X021735Y011045D01*
X021802Y010948D02*
X022312Y010948D01*
X022409Y010851D02*
X021818Y010851D01*
X021818Y010754D02*
X023097Y010754D01*
X023194Y010657D02*
X021818Y010657D01*
X021818Y010560D02*
X024078Y010560D01*
X024078Y010657D02*
X024061Y010657D01*
X024326Y010860D02*
X024129Y011056D01*
X023736Y011056D01*
X023736Y010860D02*
X023342Y010860D01*
X023145Y011056D01*
X022555Y011056D01*
X021964Y011647D01*
X021964Y011844D01*
X022344Y012015D02*
X022551Y012015D01*
X022433Y011918D02*
X022381Y011918D01*
X022285Y012112D02*
X023340Y012112D01*
X023340Y012015D02*
X022952Y012015D01*
X023070Y011918D02*
X023340Y011918D01*
X023340Y011821D02*
X023130Y011821D01*
X023145Y011844D02*
X023342Y011647D01*
X023736Y011647D01*
X024523Y011647D01*
X024720Y011450D01*
X024594Y011336D02*
X025257Y011336D01*
X025257Y011239D02*
X024691Y011239D01*
X024733Y011197D02*
X024537Y011394D01*
X024467Y011463D01*
X024376Y011501D01*
X024131Y011501D01*
X024131Y011582D01*
X024117Y011596D01*
X024814Y011596D01*
X024864Y011546D01*
X024934Y011476D01*
X025025Y011438D01*
X025257Y011438D01*
X025257Y011210D01*
X025308Y011159D01*
X025307Y011155D01*
X025307Y011057D01*
X025633Y011057D01*
X025633Y011056D01*
X025307Y011056D01*
X025307Y010958D01*
X025308Y010953D01*
X025262Y010907D01*
X025153Y011016D01*
X025000Y011079D01*
X024834Y011079D01*
X024771Y011053D01*
X024771Y011106D01*
X024733Y011197D01*
X024756Y011142D02*
X025307Y011142D01*
X025307Y011045D02*
X025082Y011045D01*
X025220Y010948D02*
X025303Y010948D01*
X025257Y011433D02*
X024497Y011433D01*
X024326Y011253D02*
X024523Y011056D01*
X024523Y010466D01*
X024877Y010111D01*
X025633Y010111D01*
X026009Y010075D02*
X026244Y010075D01*
X026244Y009979D02*
X026009Y009979D01*
X026009Y009882D02*
X026244Y009882D01*
X026244Y009785D02*
X026009Y009785D01*
X026009Y009688D02*
X026244Y009688D01*
X026244Y009591D02*
X025964Y009591D01*
X025960Y009494D02*
X026244Y009494D01*
X026244Y009397D02*
X025960Y009397D01*
X026009Y009300D02*
X026244Y009300D01*
X026244Y009203D02*
X026009Y009203D01*
X026009Y009106D02*
X026244Y009106D01*
X026244Y009009D02*
X026009Y009009D01*
X026009Y008912D02*
X026244Y008912D01*
X026244Y008815D02*
X026009Y008815D01*
X026009Y008718D02*
X026165Y008718D01*
X026068Y008621D02*
X026009Y008621D01*
X025633Y009167D02*
X025232Y009167D01*
X024326Y010072D01*
X024326Y010860D01*
X024326Y011253D02*
X023736Y011253D01*
X023736Y011450D02*
X023145Y011450D01*
X022948Y011647D01*
X022751Y011647D01*
X023145Y011844D02*
X023145Y012041D01*
X022948Y012237D01*
X023042Y012209D02*
X022171Y012209D01*
X022261Y012403D02*
X015667Y012403D01*
X015667Y012500D02*
X016782Y012500D01*
X016463Y012209D02*
X017820Y012209D01*
X017706Y012112D02*
X016577Y012112D01*
X017304Y012500D02*
X022139Y012500D01*
X022042Y012597D02*
X017398Y012597D01*
X017438Y012694D02*
X021706Y012694D01*
X021610Y012791D02*
X017459Y012791D01*
X017459Y012888D02*
X021570Y012888D01*
X021547Y012985D02*
X017429Y012985D01*
X017379Y013081D02*
X021547Y013081D01*
X021577Y013178D02*
X017282Y013178D01*
X018234Y012209D02*
X020576Y012209D01*
X020462Y012112D02*
X018348Y012112D01*
X018124Y011433D02*
X019029Y011433D01*
X018899Y011336D02*
X017870Y011336D01*
X017773Y011239D02*
X018833Y011239D01*
X018793Y011142D02*
X017676Y011142D01*
X017579Y011045D02*
X018792Y011045D01*
X018802Y010948D02*
X017482Y010948D01*
X017385Y010851D02*
X018842Y010851D01*
X019456Y010560D02*
X020535Y010560D01*
X020438Y010657D02*
X020318Y010657D01*
X019826Y010851D02*
X019574Y010851D01*
X019614Y010948D02*
X019786Y010948D01*
X019776Y011045D02*
X019625Y011045D01*
X019624Y011142D02*
X019777Y011142D01*
X019817Y011239D02*
X019583Y011239D01*
X019518Y011336D02*
X019883Y011336D01*
X020013Y011433D02*
X019387Y011433D01*
X019541Y010463D02*
X019663Y010463D01*
X019602Y010466D02*
X019602Y010072D01*
X019799Y010072D02*
X019799Y008104D01*
X019602Y007907D01*
X020389Y008891D02*
X020389Y010072D01*
X020389Y008891D02*
X020586Y008694D01*
X020586Y008300D01*
X021313Y009106D02*
X021322Y009106D01*
X021322Y009203D02*
X021216Y009203D01*
X022161Y008694D02*
X022161Y010072D01*
X023334Y008912D02*
X025257Y008912D01*
X025096Y008815D02*
X023178Y008815D01*
X023275Y008718D02*
X024940Y008718D01*
X025039Y009009D02*
X023458Y009009D01*
X023522Y009106D02*
X024942Y009106D01*
X024845Y009203D02*
X023562Y009203D01*
X023562Y009300D02*
X024748Y009300D01*
X024651Y009397D02*
X023550Y009397D01*
X023510Y009494D02*
X024554Y009494D01*
X024886Y009863D02*
X025257Y009863D01*
X025257Y009635D01*
X025308Y009585D01*
X025307Y009580D01*
X025307Y009482D01*
X025633Y009482D01*
X025633Y009481D01*
X025307Y009481D01*
X025307Y009442D01*
X024886Y009863D01*
X024965Y009785D02*
X025257Y009785D01*
X025257Y009688D02*
X025061Y009688D01*
X025158Y009591D02*
X025302Y009591D01*
X025307Y009494D02*
X025255Y009494D01*
X024648Y008621D02*
X023372Y008621D01*
X023469Y008524D02*
X024559Y008524D01*
X024518Y008427D02*
X023566Y008427D01*
X023663Y008330D02*
X024500Y008330D01*
X024500Y008233D02*
X023760Y008233D01*
X023857Y008136D02*
X024534Y008136D01*
X024589Y008039D02*
X023954Y008039D01*
X024051Y007942D02*
X024693Y007942D01*
X025140Y007942D02*
X025257Y007942D01*
X025257Y007845D02*
X024148Y007845D01*
X024245Y007748D02*
X025257Y007748D01*
X025307Y007651D02*
X024342Y007651D01*
X024439Y007554D02*
X025307Y007554D01*
X025277Y007457D02*
X024536Y007457D01*
X024633Y007360D02*
X025257Y007360D01*
X025257Y007263D02*
X024730Y007263D01*
X024827Y007166D02*
X025257Y007166D01*
X025304Y007069D02*
X024924Y007069D01*
X025021Y006972D02*
X025307Y006972D01*
X025307Y006876D02*
X025118Y006876D01*
X025215Y006779D02*
X025350Y006779D01*
X025312Y006682D02*
X028437Y006682D01*
X028437Y006779D02*
X025917Y006779D01*
X025960Y006876D02*
X028465Y006876D01*
X028512Y006972D02*
X025960Y006972D01*
X025960Y006962D02*
X025634Y006962D01*
X025634Y006962D01*
X025960Y006962D01*
X026202Y007069D02*
X028356Y007069D01*
X028259Y007166D02*
X026299Y007166D01*
X026396Y007263D02*
X028162Y007263D01*
X028065Y007360D02*
X026493Y007360D01*
X026540Y007457D02*
X027968Y007457D01*
X027871Y007554D02*
X026543Y007554D01*
X026543Y007651D02*
X027774Y007651D01*
X027677Y007748D02*
X026543Y007748D01*
X026543Y007845D02*
X027580Y007845D01*
X027483Y007942D02*
X026543Y007942D01*
X026581Y008039D02*
X027386Y008039D01*
X027289Y008136D02*
X026678Y008136D01*
X026775Y008233D02*
X027193Y008233D01*
X027096Y008330D02*
X026872Y008330D01*
X026928Y008427D02*
X026999Y008427D01*
X027512Y009009D02*
X028385Y009009D01*
X028288Y009106D02*
X027415Y009106D01*
X027330Y009203D02*
X028191Y009203D01*
X028094Y009300D02*
X027330Y009300D01*
X027330Y009397D02*
X027997Y009397D01*
X027609Y008912D02*
X029730Y008912D01*
X029730Y008815D02*
X027706Y008815D01*
X027803Y008718D02*
X029730Y008718D01*
X029779Y008621D02*
X027900Y008621D01*
X027997Y008524D02*
X029779Y008524D01*
X030106Y009167D02*
X028578Y009167D01*
X027279Y010466D01*
X026244Y010463D02*
X026009Y010463D01*
X026009Y010366D02*
X026244Y010366D01*
X026244Y010269D02*
X026009Y010269D01*
X026009Y010172D02*
X026244Y010172D01*
X026244Y010560D02*
X026009Y010560D01*
X026009Y010657D02*
X026244Y010657D01*
X026244Y010754D02*
X026009Y010754D01*
X026009Y010851D02*
X026244Y010851D01*
X026244Y010948D02*
X025964Y010948D01*
X025960Y011045D02*
X026244Y011045D01*
X026244Y011142D02*
X025960Y011142D01*
X026009Y011239D02*
X026244Y011239D01*
X026244Y011336D02*
X026009Y011336D01*
X026009Y011433D02*
X026244Y011433D01*
X026244Y011530D02*
X026009Y011530D01*
X026009Y011627D02*
X026244Y011627D01*
X026244Y011724D02*
X026009Y011724D01*
X026009Y011821D02*
X026244Y011821D01*
X026244Y011918D02*
X026009Y011918D01*
X026009Y012015D02*
X026244Y012015D01*
X026244Y012112D02*
X026009Y012112D01*
X026009Y012209D02*
X026244Y012209D01*
X026244Y012306D02*
X026009Y012306D01*
X026009Y012403D02*
X026244Y012403D01*
X026244Y012500D02*
X026009Y012500D01*
X026009Y012597D02*
X026244Y012597D01*
X026244Y012694D02*
X026009Y012694D01*
X026009Y012791D02*
X026244Y012791D01*
X026244Y012888D02*
X026009Y012888D01*
X026009Y012985D02*
X026244Y012985D01*
X026244Y013081D02*
X026009Y013081D01*
X026009Y013178D02*
X026244Y013178D01*
X026244Y013275D02*
X026009Y013275D01*
X026009Y013372D02*
X026244Y013372D01*
X026244Y013469D02*
X026009Y013469D01*
X026009Y013566D02*
X026244Y013566D01*
X026244Y013663D02*
X026009Y013663D01*
X026009Y013760D02*
X026244Y013760D01*
X026244Y013857D02*
X026009Y013857D01*
X026009Y013954D02*
X026244Y013954D01*
X026244Y014051D02*
X026009Y014051D01*
X026009Y014148D02*
X026244Y014148D01*
X026244Y014245D02*
X026009Y014245D01*
X026009Y014342D02*
X026244Y014342D01*
X026244Y014439D02*
X026009Y014439D01*
X026009Y014536D02*
X026244Y014536D01*
X026244Y014633D02*
X026009Y014633D01*
X026009Y014730D02*
X026244Y014730D01*
X026244Y014827D02*
X026009Y014827D01*
X026009Y014924D02*
X026244Y014924D01*
X026244Y015021D02*
X025985Y015021D01*
X025960Y015118D02*
X026213Y015118D01*
X026116Y015215D02*
X025960Y015215D01*
X025935Y015312D02*
X026019Y015312D01*
X026295Y015781D02*
X026689Y015387D01*
X026295Y015781D02*
X024917Y015781D01*
X024326Y015190D01*
X023736Y015190D01*
X023736Y014797D02*
X023342Y014797D01*
X023145Y014993D01*
X022555Y014993D01*
X022489Y014730D02*
X020490Y014730D01*
X020490Y014827D02*
X022849Y014827D01*
X022396Y014633D02*
X020490Y014633D01*
X020490Y014536D02*
X022356Y014536D01*
X022335Y014439D02*
X020490Y014439D01*
X020490Y014342D02*
X022335Y014342D01*
X022989Y014051D02*
X023340Y014051D01*
X023340Y014148D02*
X023086Y014148D01*
X023137Y014245D02*
X023340Y014245D01*
X023340Y014342D02*
X023168Y014342D01*
X023736Y014206D02*
X024917Y014206D01*
X025232Y014521D01*
X025633Y014521D01*
X025633Y014206D02*
X025311Y014206D01*
X025114Y014009D01*
X023736Y014009D01*
X023736Y013812D02*
X025311Y013812D01*
X025350Y013812D01*
X025429Y013891D01*
X025633Y013891D01*
X025633Y013576D02*
X024563Y013576D01*
X024523Y013615D01*
X023736Y013615D01*
X023736Y013419D02*
X024326Y013419D01*
X024484Y013261D01*
X025633Y013261D01*
X025633Y012946D02*
X024405Y012946D01*
X024129Y013222D01*
X023736Y013222D01*
X023736Y013025D02*
X023342Y013025D01*
X023330Y013086D01*
X023349Y013081D02*
X023242Y013081D01*
X023168Y013178D02*
X023340Y013178D01*
X023340Y013275D02*
X023168Y013275D01*
X023140Y013372D02*
X023340Y013372D01*
X023340Y013469D02*
X023093Y013469D01*
X022996Y013566D02*
X023340Y013566D01*
X022751Y013222D02*
X023145Y012828D01*
X023736Y012828D01*
X023736Y012631D02*
X025633Y012631D01*
X025633Y012316D02*
X024208Y012316D01*
X024129Y012237D01*
X023736Y012237D01*
X023736Y012041D02*
X025114Y012041D01*
X025153Y012001D01*
X025633Y012001D01*
X025633Y011686D02*
X025074Y011686D01*
X024917Y011844D01*
X023736Y011844D01*
X024131Y011530D02*
X024880Y011530D01*
X023736Y012434D02*
X023145Y012434D01*
X022948Y012631D01*
X022358Y012631D01*
X021964Y013025D01*
X022303Y013275D02*
X022335Y013275D01*
X022363Y013372D02*
X022206Y013372D01*
X023222Y011724D02*
X023340Y011724D01*
X025311Y013812D02*
X025311Y013812D01*
X024696Y014730D02*
X024131Y014730D01*
X023340Y016572D02*
X021745Y016572D01*
X021785Y016669D02*
X023340Y016669D01*
X023340Y016766D02*
X021790Y016766D01*
X021823Y016863D02*
X023340Y016863D01*
X023340Y016960D02*
X021919Y016960D01*
X022016Y017057D02*
X023340Y017057D01*
X023340Y017154D02*
X022113Y017154D01*
X022189Y017251D02*
X023340Y017251D01*
X023340Y017348D02*
X022212Y017348D01*
X022212Y017445D02*
X023340Y017445D01*
X023340Y017542D02*
X022212Y017542D01*
X022212Y017639D02*
X023340Y017639D01*
X023340Y017736D02*
X022212Y017736D01*
X022212Y017833D02*
X023340Y017833D01*
X023389Y017930D02*
X022212Y017930D01*
X022161Y018537D02*
X022161Y019718D01*
X022358Y019915D01*
X024129Y019915D01*
X023933Y019718D02*
X025114Y018537D01*
X023933Y019718D02*
X022555Y019718D01*
X022358Y019521D01*
X022358Y018537D01*
X021913Y019384D02*
X021861Y019384D01*
X021913Y019481D02*
X021764Y019481D01*
X021667Y019578D02*
X021913Y019578D01*
X021913Y019675D02*
X021622Y019675D01*
X021622Y019772D02*
X021915Y019772D01*
X021962Y019869D02*
X021622Y019869D01*
X021622Y019966D02*
X022059Y019966D01*
X022156Y020063D02*
X021622Y020063D01*
X021622Y020160D02*
X022303Y020160D01*
X022424Y020257D02*
X022965Y020257D01*
X022947Y020263D02*
X023018Y020240D01*
X023080Y020230D01*
X023080Y020653D01*
X022657Y020653D01*
X022667Y020591D01*
X022690Y020520D01*
X022724Y020454D01*
X022768Y020393D01*
X022821Y020340D01*
X022881Y020297D01*
X022947Y020263D01*
X023080Y020257D02*
X023179Y020257D01*
X023179Y020230D02*
X023240Y020240D01*
X023311Y020263D01*
X023378Y020297D01*
X023438Y020340D01*
X023491Y020393D01*
X023535Y020454D01*
X023569Y020520D01*
X023592Y020591D01*
X023602Y020653D01*
X023179Y020653D01*
X023179Y020751D01*
X023602Y020751D01*
X023592Y020813D01*
X023569Y020884D01*
X023535Y020950D01*
X023491Y021011D01*
X023438Y021064D01*
X023378Y021107D01*
X023311Y021141D01*
X023240Y021164D01*
X023179Y021174D01*
X023179Y020751D01*
X023080Y020751D01*
X023080Y020653D01*
X023179Y020653D01*
X023179Y020230D01*
X023294Y020257D02*
X023835Y020257D01*
X023737Y020354D02*
X023452Y020354D01*
X023533Y020451D02*
X023667Y020451D01*
X023626Y020548D02*
X023578Y020548D01*
X023600Y020645D02*
X023606Y020645D01*
X023606Y020742D02*
X023179Y020742D01*
X023179Y020839D02*
X023080Y020839D01*
X023080Y020751D02*
X023080Y021174D01*
X023018Y021164D01*
X022947Y021141D01*
X022881Y021107D01*
X022821Y021064D01*
X022768Y021011D01*
X022724Y020950D01*
X022690Y020884D01*
X022667Y020813D01*
X022657Y020751D01*
X023080Y020751D01*
X023080Y020742D02*
X022653Y020742D01*
X022653Y020645D02*
X022659Y020645D01*
X022681Y020548D02*
X022632Y020548D01*
X022592Y020451D02*
X022726Y020451D01*
X022807Y020354D02*
X022522Y020354D01*
X023080Y020354D02*
X023179Y020354D01*
X023179Y020451D02*
X023080Y020451D01*
X023080Y020548D02*
X023179Y020548D01*
X023179Y020645D02*
X023080Y020645D01*
X023080Y020936D02*
X023179Y020936D01*
X023179Y021033D02*
X023080Y021033D01*
X023080Y021130D02*
X023179Y021130D01*
X023334Y021130D02*
X023817Y021130D01*
X023720Y021033D02*
X023469Y021033D01*
X023542Y020936D02*
X023660Y020936D01*
X023619Y020839D02*
X023583Y020839D01*
X022925Y021130D02*
X022442Y021130D01*
X022539Y021033D02*
X022790Y021033D01*
X022717Y020936D02*
X022599Y020936D01*
X022639Y020839D02*
X022676Y020839D01*
X021835Y020257D02*
X021622Y020257D01*
X021622Y020354D02*
X021737Y020354D01*
X021667Y020451D02*
X021622Y020451D01*
X021622Y020548D02*
X021626Y020548D01*
X020389Y020899D02*
X020389Y018537D01*
X024424Y020257D02*
X024835Y020257D01*
X024737Y020354D02*
X024522Y020354D01*
X024592Y020451D02*
X024667Y020451D01*
X024660Y020936D02*
X024599Y020936D01*
X024539Y021033D02*
X024720Y021033D01*
X024817Y021130D02*
X024442Y021130D01*
X025442Y021130D02*
X025627Y021130D01*
X025606Y021033D02*
X025539Y021033D01*
X025599Y020936D02*
X025606Y020936D01*
X025592Y020451D02*
X025606Y020451D01*
X025606Y020354D02*
X025522Y020354D01*
X025424Y020257D02*
X025644Y020257D01*
X024609Y022584D02*
X024592Y022584D01*
X024556Y022681D02*
X024649Y022681D01*
X024694Y022778D02*
X024494Y022778D01*
X024383Y022875D02*
X024791Y022875D01*
X024570Y023069D02*
X022803Y023069D01*
X022811Y023166D02*
X024423Y023166D01*
X025017Y023166D02*
X026201Y023166D01*
X025521Y024718D02*
X025493Y024718D01*
X025603Y024815D02*
X024192Y024815D01*
X024192Y024912D02*
X025603Y024912D01*
X025531Y025009D02*
X024192Y025009D01*
X024192Y025106D02*
X025434Y025106D01*
X025337Y025203D02*
X024192Y025203D01*
X024239Y025300D02*
X025240Y025300D01*
X025143Y025396D02*
X024587Y025396D01*
X024712Y025493D02*
X025063Y025493D01*
X025032Y025590D02*
X024786Y025590D01*
X024826Y025687D02*
X025032Y025687D01*
X025032Y025784D02*
X024842Y025784D01*
X024842Y025881D02*
X025032Y025881D01*
X025032Y025978D02*
X024815Y025978D01*
X024775Y026075D02*
X025032Y026075D01*
X025032Y026172D02*
X024687Y026172D01*
X024525Y026269D02*
X025032Y026269D01*
X025007Y026366D02*
X019487Y026366D01*
X019487Y026269D02*
X024206Y026269D01*
X024045Y026172D02*
X019487Y026172D01*
X019487Y026075D02*
X023956Y026075D01*
X023916Y025978D02*
X019487Y025978D01*
X019487Y025881D02*
X023890Y025881D01*
X023890Y025784D02*
X019487Y025784D01*
X019538Y025687D02*
X023839Y025687D01*
X023742Y025590D02*
X019635Y025590D01*
X019732Y025493D02*
X023663Y025493D01*
X023634Y025396D02*
X019829Y025396D01*
X019926Y025300D02*
X023634Y025300D01*
X023634Y025203D02*
X020023Y025203D01*
X020120Y025106D02*
X023634Y025106D01*
X023634Y025009D02*
X020217Y025009D01*
X020314Y024912D02*
X023634Y024912D01*
X023634Y024815D02*
X020411Y024815D01*
X021043Y024718D02*
X022805Y024718D01*
X022710Y024621D02*
X021196Y024621D01*
X021216Y024600D02*
X021216Y024600D01*
X021293Y024524D02*
X022695Y024524D01*
X022379Y024427D02*
X021389Y024427D01*
X021486Y024330D02*
X022247Y024330D01*
X022180Y024233D02*
X021583Y024233D01*
X021680Y024136D02*
X022140Y024136D01*
X022138Y024039D02*
X021777Y024039D01*
X021835Y023942D02*
X022148Y023942D01*
X022188Y023845D02*
X021996Y023845D01*
X022064Y023748D02*
X022128Y023748D01*
X022110Y023651D02*
X022064Y023651D01*
X022064Y023554D02*
X022110Y023554D01*
X022110Y023457D02*
X022064Y023457D01*
X022064Y023360D02*
X022110Y023360D01*
X022110Y023263D02*
X022064Y023263D01*
X022064Y023166D02*
X022110Y023166D01*
X022110Y023069D02*
X022034Y023069D01*
X022064Y022972D02*
X022110Y022972D01*
X022110Y022875D02*
X022064Y022875D01*
X022064Y022778D02*
X022110Y022778D01*
X021570Y023438D02*
X021570Y023655D01*
X019905Y023942D02*
X018685Y023942D01*
X018628Y024039D02*
X019808Y024039D01*
X019711Y024136D02*
X018531Y024136D01*
X018434Y024233D02*
X019614Y024233D01*
X019517Y024330D02*
X017156Y024330D01*
X017531Y024427D02*
X017984Y024427D01*
X018112Y024427D02*
X018190Y024427D01*
X018190Y024524D02*
X018112Y024524D01*
X018112Y024621D02*
X018190Y024621D01*
X018190Y024718D02*
X018112Y024718D01*
X017844Y024524D02*
X017628Y024524D01*
X017684Y024621D02*
X017774Y024621D01*
X017736Y024718D02*
X017724Y024718D01*
X017727Y024912D02*
X017734Y024912D01*
X017769Y025009D02*
X017688Y025009D01*
X017639Y025106D02*
X017834Y025106D01*
X018566Y024718D02*
X019129Y024718D01*
X019226Y024621D02*
X018528Y024621D01*
X018458Y024524D02*
X019323Y024524D01*
X019420Y024427D02*
X018318Y024427D01*
X018299Y026366D02*
X018536Y026366D01*
X018536Y026463D02*
X018467Y026463D01*
X018003Y026366D02*
X017399Y026366D01*
X017567Y026463D02*
X017835Y026463D01*
X017744Y026560D02*
X017659Y026560D01*
X017699Y026657D02*
X017703Y026657D01*
X016935Y026463D02*
X016667Y026463D01*
X016759Y026560D02*
X016844Y026560D01*
X016803Y026657D02*
X016799Y026657D01*
X015940Y026172D02*
X015862Y026172D01*
X015862Y026075D02*
X015940Y026075D01*
X015940Y025978D02*
X015862Y025978D01*
X015862Y025881D02*
X015940Y025881D01*
X015861Y025784D02*
X015041Y025784D01*
X015040Y025687D02*
X014962Y025687D01*
X014962Y025590D02*
X015040Y025590D01*
X015040Y025493D02*
X014962Y025493D01*
X014842Y025203D02*
X015160Y025203D01*
X015063Y025106D02*
X014939Y025106D01*
X015277Y025493D02*
X015625Y025493D01*
X015541Y025590D02*
X015361Y025590D01*
X015406Y025687D02*
X015496Y025687D01*
X015479Y025881D02*
X015423Y025881D01*
X015398Y025978D02*
X015504Y025978D01*
X015559Y026075D02*
X015343Y026075D01*
X015242Y026172D02*
X015660Y026172D01*
X015862Y025687D02*
X015940Y025687D01*
X015940Y025590D02*
X015862Y025590D01*
X015862Y025493D02*
X015940Y025493D01*
X016060Y025203D02*
X015742Y025203D01*
X015839Y025106D02*
X015963Y025106D01*
X015914Y025009D02*
X015888Y025009D01*
X018883Y027918D02*
X026594Y027918D01*
X026594Y028015D02*
X018786Y028015D01*
X018980Y027821D02*
X026594Y027821D01*
X026594Y027724D02*
X019077Y027724D01*
X019174Y027627D02*
X026594Y027627D01*
X026594Y027530D02*
X019271Y027530D01*
X019368Y027433D02*
X026594Y027433D01*
X026594Y027336D02*
X019453Y027336D01*
X019487Y027239D02*
X024998Y027239D01*
X024857Y027142D02*
X024626Y027142D01*
X024718Y027045D02*
X024777Y027045D01*
X024405Y027045D02*
X024326Y027045D01*
X024326Y027142D02*
X024405Y027142D01*
X024326Y027230D02*
X024326Y026844D01*
X023940Y026844D01*
X023950Y026904D01*
X023971Y026968D01*
X024001Y027028D01*
X024040Y027082D01*
X024088Y027130D01*
X024142Y027169D01*
X024202Y027200D01*
X024266Y027220D01*
X024326Y027230D01*
X024105Y027142D02*
X019487Y027142D01*
X019487Y027045D02*
X024013Y027045D01*
X023964Y026948D02*
X019487Y026948D01*
X019487Y026851D02*
X023941Y026851D01*
X023942Y026754D02*
X019487Y026754D01*
X019487Y026657D02*
X023965Y026657D01*
X024016Y026560D02*
X019487Y026560D01*
X019487Y026463D02*
X024110Y026463D01*
X024326Y026463D02*
X024405Y026463D01*
X024405Y026560D02*
X024326Y026560D01*
X024326Y026657D02*
X024405Y026657D01*
X024405Y026754D02*
X024326Y026754D01*
X024326Y026851D02*
X024405Y026851D01*
X024405Y026948D02*
X024326Y026948D01*
X024621Y026463D02*
X024861Y026463D01*
X024778Y026560D02*
X024715Y026560D01*
X025589Y026463D02*
X025884Y026463D01*
X025802Y026560D02*
X025606Y026560D01*
X025647Y026657D02*
X025762Y026657D01*
X025740Y026754D02*
X025668Y026754D01*
X025668Y026851D02*
X025740Y026851D01*
X025760Y026948D02*
X025648Y026948D01*
X025608Y027045D02*
X025801Y027045D01*
X025880Y027142D02*
X025528Y027142D01*
X025387Y027239D02*
X026021Y027239D01*
X026411Y027239D02*
X026594Y027239D01*
X026594Y027142D02*
X026552Y027142D01*
X026548Y026463D02*
X026711Y026463D01*
X026857Y026366D02*
X026402Y026366D01*
X026633Y026075D02*
X025589Y026075D01*
X025589Y025978D02*
X026593Y025978D01*
X026567Y025881D02*
X025589Y025881D01*
X025589Y025784D02*
X026567Y025784D01*
X026583Y025687D02*
X025641Y025687D01*
X025738Y025590D02*
X026623Y025590D01*
X026696Y025493D02*
X025835Y025493D01*
X025589Y026172D02*
X026722Y026172D01*
X026883Y026269D02*
X025589Y026269D01*
X025589Y026366D02*
X026030Y026366D01*
X024773Y024718D02*
X024273Y024718D01*
X024368Y024621D02*
X024679Y024621D01*
X024679Y024524D02*
X024368Y024524D01*
X024368Y024427D02*
X024679Y024427D01*
X024679Y024330D02*
X024368Y024330D01*
X024368Y024233D02*
X024679Y024233D01*
X024630Y024136D02*
X024368Y024136D01*
X024368Y024039D02*
X024533Y024039D01*
X024464Y023942D02*
X024368Y023942D01*
X024345Y023845D02*
X024441Y023845D01*
X023553Y024718D02*
X023525Y024718D01*
X026827Y029663D02*
X030770Y029663D01*
X029779Y012694D02*
X029339Y012694D01*
X029436Y012597D02*
X029779Y012597D01*
X025257Y008039D02*
X025245Y008039D01*
X025633Y006876D02*
X025634Y006876D01*
X025633Y006779D02*
X025634Y006779D01*
X025409Y006585D02*
X028461Y006585D01*
X028503Y006488D02*
X025506Y006488D01*
X025603Y006391D02*
X028600Y006391D01*
X028834Y006706D02*
X028854Y006726D01*
X028978Y005421D02*
X030770Y005421D01*
X030770Y005324D02*
X029161Y005324D01*
X029258Y005227D02*
X030770Y005227D01*
X030770Y005130D02*
X029299Y005130D01*
X029333Y005033D02*
X030770Y005033D01*
X030770Y004936D02*
X029333Y004936D01*
X029333Y004839D02*
X030770Y004839D01*
X030770Y004742D02*
X029333Y004742D01*
X029333Y004645D02*
X030770Y004645D01*
X030770Y004548D02*
X029333Y004548D01*
X029333Y004451D02*
X030770Y004451D01*
X030770Y004354D02*
X029333Y004354D01*
X029333Y004257D02*
X030770Y004257D01*
X030770Y004160D02*
X029333Y004160D01*
X029333Y004063D02*
X030770Y004063D01*
X030770Y003966D02*
X029333Y003966D01*
X029333Y003869D02*
X030770Y003869D01*
X030770Y003773D02*
X029333Y003773D01*
X029333Y003676D02*
X030770Y003676D01*
X030770Y003579D02*
X029333Y003579D01*
X029333Y003482D02*
X030770Y003482D01*
X030770Y003385D02*
X029333Y003385D01*
X029333Y003288D02*
X030770Y003288D01*
X030770Y003191D02*
X029333Y003191D01*
X029333Y003094D02*
X030770Y003094D01*
X030770Y002997D02*
X029333Y002997D01*
X029333Y002900D02*
X030770Y002900D01*
X030770Y002803D02*
X029296Y002803D01*
X029251Y002706D02*
X030770Y002706D01*
X030770Y002609D02*
X029154Y002609D01*
X029057Y002512D02*
X030770Y002512D01*
X030770Y002415D02*
X028960Y002415D01*
X028863Y002318D02*
X030770Y002318D01*
X030770Y002221D02*
X028766Y002221D01*
X028670Y002124D02*
X030770Y002124D01*
X030770Y002027D02*
X028573Y002027D01*
X028476Y001930D02*
X030770Y001930D01*
X030770Y001833D02*
X028379Y001833D01*
X028282Y001736D02*
X030770Y001736D01*
X030770Y001639D02*
X028185Y001639D01*
X028088Y001542D02*
X030770Y001542D01*
X030770Y001445D02*
X027991Y001445D01*
X027894Y001348D02*
X030770Y001348D01*
X030770Y001251D02*
X027797Y001251D01*
X027700Y001154D02*
X030770Y001154D01*
X030770Y001057D02*
X027603Y001057D01*
X027506Y000960D02*
X030770Y000960D01*
X030770Y000863D02*
X027409Y000863D01*
X027312Y000766D02*
X030770Y000766D01*
X027606Y002415D02*
X026789Y002415D01*
X026789Y002318D02*
X027509Y002318D01*
X027412Y002221D02*
X026776Y002221D01*
X026789Y002124D02*
X027315Y002124D01*
X027218Y002027D02*
X026789Y002027D01*
X026789Y001930D02*
X027121Y001930D01*
X027024Y001833D02*
X026789Y001833D01*
X026789Y001736D02*
X026927Y001736D01*
X026830Y001639D02*
X026789Y001639D01*
X026295Y002572D02*
X026295Y003379D01*
X025507Y004954D02*
X025507Y005348D01*
X022161Y008694D01*
X018224Y007513D02*
X018224Y010072D01*
X017633Y010072D02*
X017633Y008300D01*
X017437Y008104D01*
X014257Y003288D02*
X013933Y003288D01*
X014074Y003191D02*
X014189Y003191D01*
X014189Y003094D02*
X014162Y003094D01*
X013217Y001639D02*
X013207Y001639D01*
X013233Y001542D02*
X013167Y001542D01*
X013086Y001445D02*
X013255Y001445D01*
X013295Y001348D02*
X012960Y001348D01*
X012464Y001348D02*
X011960Y001348D01*
X012086Y001445D02*
X012339Y001445D01*
X012257Y001542D02*
X012167Y001542D01*
X012207Y001639D02*
X012217Y001639D01*
X004914Y018706D02*
X002773Y018706D01*
X002890Y018803D02*
X004954Y018803D01*
X004994Y018900D02*
X002926Y018900D01*
X002923Y018997D02*
X005072Y018997D01*
X005169Y019094D02*
X002876Y019094D01*
X002899Y019191D02*
X005352Y019191D01*
D35*
X003460Y005741D03*
X003460Y002592D03*
D36*
X004641Y001608D03*
X006610Y005741D03*
X009169Y010269D03*
X013106Y006135D03*
X013500Y007119D03*
X014287Y006726D03*
X015271Y006529D03*
X016452Y007119D03*
X017240Y007119D03*
X017830Y006332D03*
X019011Y006332D03*
X019602Y007119D03*
X019602Y007907D03*
X020586Y008300D03*
X020783Y007316D03*
X021570Y007316D03*
X023145Y006135D03*
X023933Y005741D03*
X024720Y005348D03*
X025507Y004954D03*
X026295Y004560D03*
X027082Y004167D03*
X028854Y004167D03*
X028854Y004954D03*
X028854Y006726D03*
X028854Y007710D03*
X028854Y009678D03*
X028854Y011056D03*
X026885Y007907D03*
X024917Y008300D03*
X024129Y009088D03*
X023145Y009285D03*
X024917Y010663D03*
X022751Y011647D03*
X021964Y011844D03*
X021964Y013025D03*
X022751Y013222D03*
X022751Y014403D03*
X021964Y015387D03*
X022751Y015978D03*
X021374Y016765D03*
X021374Y017552D03*
X022751Y017749D03*
X025114Y019718D03*
X025704Y019127D03*
X027279Y019718D03*
X026492Y021883D03*
X026492Y022867D03*
X024720Y023458D03*
X022555Y024049D03*
X018814Y020505D03*
X018421Y021096D03*
X018224Y021883D03*
X018224Y019915D03*
X018618Y019324D03*
X019208Y019915D03*
X019011Y017552D03*
X018421Y016765D03*
X018027Y015584D03*
X017043Y016371D03*
X016255Y016076D03*
X016255Y014993D03*
X016255Y013812D03*
X017043Y012828D03*
X018027Y012828D03*
X018027Y011844D03*
X019208Y011056D03*
X020192Y011056D03*
X020783Y011844D03*
X020980Y014206D03*
X018027Y014206D03*
X016255Y011844D03*
X013303Y010072D03*
X017437Y008104D03*
X016059Y004954D03*
X019405Y005151D03*
X021374Y005151D03*
X022358Y001804D03*
X030232Y015781D03*
X029248Y022277D03*
X016059Y020702D03*
X014877Y018930D03*
X010744Y020702D03*
X009759Y022671D03*
X008185Y022671D03*
D37*
X010744Y020702D02*
X016059Y020702D01*
X008185Y026844D02*
X008185Y028773D01*
X008775Y029363D01*
X026492Y029363D01*
X027043Y028812D01*
X027043Y026804D01*
X030035Y016588D02*
X030035Y015978D01*
X030232Y015781D01*
X026295Y001824D02*
X026295Y001017D01*
X025507Y001017D02*
X025507Y001824D01*
X024720Y001824D02*
X024720Y001017D01*
X023933Y001017D02*
X023933Y001824D01*
X023145Y001824D02*
X023145Y001017D01*
X021000Y001037D02*
X020980Y001017D01*
X019996Y001017D02*
X019996Y001824D01*
X019208Y001824D02*
X019208Y001017D01*
X018421Y001017D02*
X018421Y001824D01*
X016452Y001017D02*
X016452Y003379D01*
X015431Y004401D01*
X008145Y026804D02*
X008185Y026844D01*
D38*
X006413Y026686D02*
X006413Y026411D01*
X007791Y025033D01*
X008972Y025033D01*
X009366Y024639D01*
X009366Y024226D01*
X009385Y023458D02*
X009385Y023045D01*
X009759Y022671D01*
X008185Y022671D02*
X008185Y023478D01*
X008185Y024226D02*
X007614Y024226D01*
X006019Y025820D01*
X005468Y025820D01*
X006413Y026686D02*
X006295Y026804D01*
X014551Y024820D02*
X014551Y023438D01*
X014484Y023438D01*
X015451Y024459D02*
X016059Y023852D01*
X016059Y023438D01*
X017043Y024049D02*
X018224Y024049D01*
X018421Y023852D01*
X018421Y023438D01*
X017043Y024049D02*
X016351Y024740D01*
X016351Y024820D01*
X015451Y024820D02*
X015451Y024459D01*
X016351Y026820D02*
X016452Y026921D01*
X016452Y027001D01*
X017240Y027789D01*
X018618Y027789D01*
X019208Y027198D01*
X019208Y025623D01*
X020389Y024442D01*
X020980Y024442D01*
X021570Y023852D01*
X021570Y023655D01*
X020783Y023852D02*
X020783Y023438D01*
X020783Y023852D02*
X020586Y024049D01*
X020192Y024049D01*
X018814Y025426D01*
X018814Y027001D01*
X018421Y027395D01*
X017826Y027395D01*
X017251Y026820D01*
X022555Y024049D02*
X022751Y024245D01*
X023165Y024245D01*
X023913Y024245D02*
X023913Y025367D01*
X024366Y025820D01*
X025311Y025623D02*
X025311Y026686D01*
X025192Y026804D01*
X025311Y025623D02*
X025881Y025052D01*
X025881Y024245D01*
X025133Y024245D02*
X024720Y023832D01*
X024720Y023458D01*
X026492Y022867D02*
X026885Y022474D01*
X027870Y022474D01*
X027870Y022159D02*
X029129Y022159D01*
X029248Y022277D01*
X027870Y021844D02*
X026531Y021844D01*
X026492Y021883D01*
X030035Y015781D02*
X030035Y015151D01*
X030035Y015781D02*
X030232Y015781D01*
X030106Y011056D02*
X028854Y011056D01*
X028854Y009678D02*
X029051Y009482D01*
X030106Y009482D01*
X030106Y007592D02*
X028972Y007592D01*
X028854Y007710D01*
X029090Y006962D02*
X028854Y006726D01*
X029090Y006962D02*
X030106Y006962D01*
X025633Y008537D02*
X025153Y008537D01*
X024917Y008300D01*
X025153Y010426D02*
X024917Y010663D01*
X025153Y010426D02*
X025633Y010426D01*
X016907Y005594D02*
X015714Y005594D01*
X015218Y005098D01*
X014423Y005098D01*
X013553Y005098D01*
X013303Y005348D01*
X012929Y005348D01*
X012909Y005328D01*
X012909Y004598D02*
X012909Y004580D01*
X012909Y004598D02*
X014423Y004598D01*
X015234Y004598D01*
X015431Y004401D01*
X013145Y009915D02*
X012565Y009915D01*
X013145Y009915D02*
X013303Y010072D01*
X009129Y010230D02*
X008134Y010230D01*
X008134Y011174D02*
X007259Y011174D01*
X007181Y011253D01*
X009129Y010230D02*
X009139Y010231D01*
X009148Y010235D01*
X009157Y010241D01*
X009163Y010249D01*
X009167Y010259D01*
X009168Y010269D01*
X006610Y005741D02*
X007003Y005348D01*
X007594Y005348D01*
X006216Y004167D02*
X007003Y003379D01*
X007594Y003379D01*
X006216Y002986D02*
X007594Y001608D01*
X006216Y002986D02*
X005232Y002986D01*
X006019Y004167D02*
X006216Y004167D01*
X005626Y001608D02*
X004641Y001608D01*
D39*
X013712Y001592D02*
X014287Y001017D01*
X016452Y001017D01*
X018421Y001017D01*
X019208Y001017D01*
X019996Y001017D01*
X020980Y001017D01*
X023145Y001017D01*
X023933Y001017D01*
X024720Y001017D01*
X025507Y001017D01*
X026295Y001017D01*
X026885Y001017D01*
X028854Y002986D01*
X028854Y004954D01*
X013712Y001812D02*
X013712Y001592D01*
D40*
X020673Y004178D02*
X021000Y004178D01*
X022169Y004178D01*
X021000Y004178D02*
X021000Y002986D01*
X021000Y002001D01*
X021000Y001037D01*
X020980Y001017D02*
X021039Y001017D01*
X021748Y002001D02*
X022161Y002001D01*
X022358Y001804D01*
X022358Y001785D01*
X019996Y023438D02*
X019208Y023438D01*
X018421Y023438D01*
X017633Y023438D02*
X016846Y023438D01*
X016059Y023438D01*
X015271Y023438D02*
X014484Y023438D01*
X013696Y023438D01*
D41*
X027279Y019718D02*
X027870Y019718D01*
X028066Y019521D01*
X028263Y019521D01*
X012909Y004580D02*
X012122Y004580D01*
D42*
X024917Y019127D02*
X025704Y019127D01*
X024917Y019127D02*
X024129Y019915D01*
M02*
